<?xml version="1.0" encoding="utf-8"?>
<!-- Generator: Adobe Illustrator 22.1.0, SVG Export Plug-In . SVG Version: 6.00 Build 0)  -->
<svg version="1.1" id="Guides" xmlns="http://www.w3.org/2000/svg" xmlns:xlink="http://www.w3.org/1999/xlink" x="0px" y="0px"
	 viewBox="0 0 653.2 582.9" style="enable-background:new 0 0 653.2 582.9;" xml:space="preserve">
<style type="text/css">
	.st0{fill:none;}
	.st1{fill:#2B1A0B;stroke:#2B1A0B;stroke-miterlimit:10;}
	.st2{display:none;fill:#212121;}
	.st3{fill:#F4D5C4;}
	.st4{fill:#FAD413;}
	.st5{fill:#E8CEC1;}
	.st6{fill:#D7C2B8;}
	.st7{fill:#2B1A0B;}
	.st8{fill:none;stroke:url(#SVGID_1_);stroke-miterlimit:10;}
	.st9{fill:none;stroke:url(#SVGID_2_);stroke-miterlimit:10;}
	.st10{fill:#F9C0A9;}
	.st11{fill:#1B1B1B;}
	.st12{fill:#FFFFFF;}
	.st13{fill:#232323;}
	.st14{clip-path:url(#SVGID_4_);fill:none;stroke:#353535;stroke-miterlimit:10;}
	.st15{clip-path:url(#SVGID_6_);fill:none;stroke:#353535;stroke-miterlimit:10;}
	.st16{clip-path:url(#SVGID_8_);fill:none;stroke:#353535;stroke-miterlimit:10;}
	.st17{clip-path:url(#SVGID_10_);fill:none;stroke:#353535;stroke-miterlimit:10;}
	.st18{clip-path:url(#SVGID_12_);fill:none;stroke:#353535;stroke-miterlimit:10;}
	.st19{clip-path:url(#SVGID_14_);fill:none;stroke:#353535;stroke-miterlimit:10;}
	.st20{clip-path:url(#SVGID_16_);fill:none;stroke:#353535;stroke-miterlimit:10;}
	.st21{clip-path:url(#SVGID_18_);fill:none;stroke:#353535;stroke-miterlimit:10;}
	.st22{clip-path:url(#SVGID_20_);fill:none;stroke:#353535;stroke-miterlimit:10;}
	.st23{fill:#007BB8;}
	.st24{fill:none;stroke:#007BB8;stroke-miterlimit:10;}
	.st25{fill:#EF5F5F;}
	.st26{fill:#E5BD16;}
	.st27{fill:#333333;}
	.st28{fill:#262626;}
	.st29{fill:#2397C4;}
	.st30{fill:#E77C7C;}
	.st31{fill:none;stroke:#E67C7C;stroke-width:5;stroke-miterlimit:10;}
	.st32{fill:none;stroke:#007BB8;stroke-width:3;stroke-miterlimit:10;}
	.st33{fill:none;stroke:#ED5F5F;stroke-width:5;stroke-miterlimit:10;}
	.st34{fill:none;stroke:#ED5F5F;stroke-width:3;stroke-miterlimit:10;}
</style>
<pattern  y="582.9" width="40.5" height="17" patternUnits="userSpaceOnUse" id="New_Pattern_Swatch_2" viewBox="0 -17 40.5 17" style="overflow:visible;">
	<g>
		<rect y="-17" class="st0" width="40.5" height="17"/>
		<g>
			<rect y="-17" class="st0" width="40.5" height="17"/>
			<path class="st1" d="M40-8.5c0-4.4-3.6-8-8-8s-30.3,8-30.3,8s25.9,8,30.3,8S40-4.1,40-8.5z"/>
		</g>
	</g>
</pattern>
<rect x="-262.4" y="120.1" class="st2" width="233.2" height="464.1"/>
<path class="st3" d="M291.3,430.6c0,0,19-4.9,23.1,0.9c3.4,1.9,5.6,7.9,5.6,7.9v98.9c0,0-4.5,24.6-28.7,24.6
	c-107.2,0-107.2,0-107.2,0v-29.3h85.6c0,0,20.7,1,20.7-19.7C290.4,493.3,291.3,430.6,291.3,430.6z"/>
<g id="Backbody_2_">
	<path class="st4" d="M409.5,582.9H242.4V429.5c0-13.5,11-24.5,24.5-24.5h118c13.5,0,24.5,11,24.5,24.5v153.4H409.5z"/>
	<path class="st5" d="M300.2,383.3v21.1c0,0,4.6,15.3,25.8,15.3c21.2,0,25.8-15.3,25.8-15.3v-21.1H300.2z"/>
	<path class="st6" d="M300.2,386.7v8.3c0,0,13.6,9.6,25.8,9.6c12.2,0,25.8-10.6,25.8-10.6v-8.8L300.2,386.7z"/>
</g>
<g id="Head">
	<path class="st3" d="M324.4,399.9c-11,0-52-23.9-52-53.5v-63c0-22,17.8-39.8,39.8-39.8h27.3c22,0,39.8,17.8,39.8,39.8v63
		C379.4,376,335.4,399.9,324.4,399.9z"/>
	<path class="st7" d="M335.5,300.1h14.3c2.8,0,5-2.3,5-5l0,0c0-2.8-2.3-5-5-5h-14.3c-2.8,0-5,2.3-5,5l0,0
		C330.5,297.8,332.8,300.1,335.5,300.1z"/>
	<path class="st7" d="M284.9,300.1h14.3c2.8,0,5-2.3,5-5l0,0c0-2.8-2.3-5-5-5h-14.3c-2.8,0-5,2.3-5,5l0,0
		C279.9,297.8,282.2,300.1,284.9,300.1z"/>
	<circle class="st7" cx="337.4" cy="314.5" r="4.1"/>
	<circle class="st7" cx="294.1" cy="314.5" r="4.1"/>
	<g>
		<g>
			<pattern  id="SVGID_1_" xlink:href="#New_Pattern_Swatch_2" patternTransform="matrix(1 0 0 -1 -837.3 -16122.3008)">
			</pattern>
			<path class="st8" d="M337.7,350.5"/>
		</g>
	</g>
	<g>
		<g>
			<pattern  id="SVGID_2_" xlink:href="#New_Pattern_Swatch_2" patternTransform="matrix(1 0 0 -1 -837.3 -16122.3008)">
			</pattern>
			<path class="st9" d="M359.1,341.8"/>
		</g>
	</g>
	<path class="st10" d="M315.7,346.5L315.7,346.5c3.6,0,6.6-3,6.6-6.6v-22.7c0-3.6-3-6.6-6.6-6.6l0,0c-3.6,0-6.6,3-6.6,6.6v22.7
		C309.1,343.5,312.1,346.5,315.7,346.5z"/>
	<path class="st11" d="M382.7,260.3"/>
	<path class="st12" d="M298.2,355.2h35.1c0,0-0.4,14.8-17.5,14.8s-17.5-13.5-17.5-13.5"/>
	<path class="st13" d="M398.7,189.2c-29.7-9.6-38.8,21.9-40.6,30.1c-19.9-1.7-44.2-1.6-64.1,10.9c-21.5,13.5-20.6,46.9-20.6,46.9
		s10.7-15.4,20.2-15.6s66,0.1,66,0.1s20.3,2.4,20.3,33.5s-1.2,60.2-1.2,60.2s27.3-16.6,27.3-64.1c0-10.3-1.1-19.3-2.9-27.3
		C449.6,247.1,432.1,200,398.7,189.2z"/>
	<g>
		<g>
			<defs>
				<path id="SVGID_3_" d="M398.7,189.2c-29.7-9.6-38.8,21.9-40.6,30.1c-19.9-1.7-44.2-1.6-64.1,10.9
					c-21.5,13.5-20.6,46.9-20.6,46.9s11.6-16.6,21.1-16.8c9.5-0.2,65,1.3,65,1.3s20.3,2.4,20.3,33.5s-1.2,60.2-1.2,60.2
					s27.3-16.6,27.3-64.1c0-10.3-1.1-19.3-2.9-27.3C449.6,247.2,432.1,200,398.7,189.2z"/>
			</defs>
			<clipPath id="SVGID_4_">
				<use xlink:href="#SVGID_3_"  style="overflow:visible;"/>
			</clipPath>
			<path class="st14" d="M357.7,219.2c0,0,39.9,17.1,44.9,44.6"/>
		</g>
		<g>
			<defs>
				<path id="SVGID_5_" d="M398.7,189.2c-29.7-9.6-38.8,21.9-40.6,30.1c-19.9-1.7-44.2-1.6-64.1,10.9
					c-21.5,13.5-20.6,46.9-20.6,46.9s11.6-16.6,21.1-16.8c9.5-0.2,65,1.3,65,1.3s20.3,2.4,20.3,33.5s-1.2,60.2-1.2,60.2
					s27.3-16.6,27.3-64.1c0-10.3-1.1-19.3-2.9-27.3C449.6,247.2,432.1,200,398.7,189.2z"/>
			</defs>
			<clipPath id="SVGID_6_">
				<use xlink:href="#SVGID_5_"  style="overflow:visible;"/>
			</clipPath>
			<path class="st15" d="M367.8,224.8c2.1-9.3,7.7-17.9,15.5-23.4s17.7-8.1,27.2-6.9"/>
		</g>
		<g>
			<defs>
				<path id="SVGID_7_" d="M398.7,189.2c-29.7-9.6-38.8,21.9-40.6,30.1c-19.9-1.7-44.2-1.6-64.1,10.9
					c-21.5,13.5-20.6,46.9-20.6,46.9s11.6-16.6,21.1-16.8c9.5-0.2,65,1.3,65,1.3s20.3,2.4,20.3,33.5s-1.2,60.2-1.2,60.2
					s27.3-16.6,27.3-64.1c0-10.3-1.1-19.3-2.9-27.3C449.6,247.2,432.1,200,398.7,189.2z"/>
			</defs>
			<clipPath id="SVGID_8_">
				<use xlink:href="#SVGID_7_"  style="overflow:visible;"/>
			</clipPath>
			<path class="st16" d="M396,249.3c16.8-11.8,26.6-32.9,24.8-53.4"/>
		</g>
		<g>
			<defs>
				<path id="SVGID_9_" d="M398.7,189.2c-29.7-9.6-38.8,21.9-40.6,30.1c-19.9-1.7-44.2-1.6-64.1,10.9
					c-21.5,13.5-20.6,46.9-20.6,46.9s11.6-16.6,21.1-16.8c9.5-0.2,65,1.3,65,1.3s20.3,2.4,20.3,33.5s-1.2,60.2-1.2,60.2
					s27.3-16.6,27.3-64.1c0-10.3-1.1-19.3-2.9-27.3C449.6,247.2,432.1,200,398.7,189.2z"/>
			</defs>
			<clipPath id="SVGID_10_">
				<use xlink:href="#SVGID_9_"  style="overflow:visible;"/>
			</clipPath>
			<path class="st17" d="M418.9,198.3c-17.2,6-31.1,19.1-35.8,36.7"/>
		</g>
		<g>
			<defs>
				<path id="SVGID_11_" d="M398.7,189.2c-29.7-9.6-38.8,21.9-40.6,30.1c-19.9-1.7-44.2-1.6-64.1,10.9
					c-21.5,13.5-20.6,46.9-20.6,46.9s11.6-16.6,21.1-16.8c9.5-0.2,65,1.3,65,1.3s20.3,2.4,20.3,33.5s-1.2,60.2-1.2,60.2
					s27.3-16.6,27.3-64.1c0-10.3-1.1-19.3-2.9-27.3C449.6,247.2,432.1,200,398.7,189.2z"/>
			</defs>
			<clipPath id="SVGID_12_">
				<use xlink:href="#SVGID_11_"  style="overflow:visible;"/>
			</clipPath>
			<path class="st18" d="M277.2,246.9c14.3-9.5,32.2-11.2,49.4-12.1c17.1-0.9,31.1,0.5,46.5-7.1"/>
		</g>
		<g>
			<defs>
				<path id="SVGID_13_" d="M398.7,189.2c-29.7-9.6-38.8,21.9-40.6,30.1c-19.9-1.7-44.2-1.6-64.1,10.9
					c-21.5,13.5-20.6,46.9-20.6,46.9s11.6-16.6,21.1-16.8c9.5-0.2,65,1.3,65,1.3s20.3,2.4,20.3,33.5s-1.2,60.2-1.2,60.2
					s27.3-16.6,27.3-64.1c0-10.3-1.1-19.3-2.9-27.3C449.6,247.2,432.1,200,398.7,189.2z"/>
			</defs>
			<clipPath id="SVGID_14_">
				<use xlink:href="#SVGID_13_"  style="overflow:visible;"/>
			</clipPath>
			<path class="st19" d="M273.2,263.8c11.2-5.8,15-11,27.6-12.4c12.6-1.3,34.2,1.2,46.6-1.1s25.8-7.3,35.5-15.4"/>
		</g>
		<g>
			<defs>
				<path id="SVGID_15_" d="M398.7,189.2c-29.7-9.6-38.8,21.9-40.6,30.1c-19.9-1.7-44.2-1.6-64.1,10.9
					c-21.5,13.5-20.6,46.9-20.6,46.9s11.6-16.6,21.1-16.8c9.5-0.2,65,1.3,65,1.3s20.3,2.4,20.3,33.5s-1.2,60.2-1.2,60.2
					s27.3-16.6,27.3-64.1c0-10.3-1.1-19.3-2.9-27.3C449.6,247.2,432.1,200,398.7,189.2z"/>
			</defs>
			<clipPath id="SVGID_16_">
				<use xlink:href="#SVGID_15_"  style="overflow:visible;"/>
			</clipPath>
			<path class="st20" d="M370.9,268.3c3.8-4,9.2-6,14.1-8.5s9.9-5.9,11.6-11.2"/>
		</g>
		<g>
			<defs>
				<path id="SVGID_17_" d="M398.7,189.2c-29.7-9.6-38.8,21.9-40.6,30.1c-19.9-1.7-44.2-1.6-64.1,10.9
					c-21.5,13.5-20.6,46.9-20.6,46.9s11.6-16.6,21.1-16.8c9.5-0.2,65,1.3,65,1.3s20.3,2.4,20.3,33.5s-1.2,60.2-1.2,60.2
					s27.3-16.6,27.3-64.1c0-10.3-1.1-19.3-2.9-27.3C449.6,247.2,432.1,200,398.7,189.2z"/>
			</defs>
			<clipPath id="SVGID_18_">
				<use xlink:href="#SVGID_17_"  style="overflow:visible;"/>
			</clipPath>
			<path class="st21" d="M378.6,294.5c3.1-5.4,8-9.5,12.5-13.8s9.8-11.4,11.4-17.4"/>
		</g>
		<g>
			<defs>
				<path id="SVGID_19_" d="M398.7,189.2c-29.7-9.6-38.8,21.9-40.6,30.1c-19.9-1.7-44.2-1.6-64.1,10.9
					c-21.5,13.5-20.6,46.9-20.6,46.9s11.6-16.6,21.1-16.8c9.5-0.2,65,1.3,65,1.3s20.3,2.4,20.3,33.5s-1.2,60.2-1.2,60.2
					s27.3-16.6,27.3-64.1c0-10.3-1.1-19.3-2.9-27.3C449.6,247.2,432.1,200,398.7,189.2z"/>
			</defs>
			<clipPath id="SVGID_20_">
				<use xlink:href="#SVGID_19_"  style="overflow:visible;"/>
			</clipPath>
			<path class="st22" d="M375.3,343.8c2.2-10,7.9-18.7,13.4-27.3c9-13.9,18-27.8,27-41.7"/>
		</g>
	</g>
	<g id="Headphone">
		<circle class="st23" cx="379.2" cy="317.7" r="14.5"/>
		<path class="st24" d="M379.2,325.7c0,0-1.4,26.6-26.8,31.5"/>
		<circle class="st23" cx="351.8" cy="357.7" r="4.2"/>
		<g>
			<path class="st23" d="M380.7,304.4h-3v-55.3c0.1-9.4-1-18.4-2.4-19.4l4.2,3.1c1.2,5.8,1.2,14.2,1.1,16.3L380.7,304.4L380.7,304.4
				z"/>
		</g>
	</g>
	<g>
		<polygon class="st25" points="365.9,270.2 361.6,267.1 356.6,269 358.1,263.9 354.8,259.7 360.1,259.6 363.1,255.2 364.8,260.2 
			369.9,261.6 365.7,264.8 		"/>
		<path class="st25" d="M364,257.9c0,0,10.1-12.4,11.9-10.2s-8.9,13.1-8.9,13.1l-1.7-0.5c0,0,9.3-9.9,8.7-10.6
			c-0.6-0.7-9.5,9.6-9.5,9.6L364,257.9z"/>
	</g>
</g>
<g id="Frontbody_2_">
	<path class="st26" d="M367.7,423.9v62c0,0,10.6,1.7,16.4,2s25.2,0.3,25.2,0.3c0-6,0-20.7,0-31.9C409.4,432,392.5,422.6,367.7,423.9
		z"/>
	<path class="st3" d="M373.3,430.6c0,0,19-4.9,23.1,0.9c3.4,1.9,5.6,7.9,5.6,7.9v98.9c0,0-4.5,24.6-28.7,24.6
		c-107.2,0-107.2,0-107.2,0v-29.3h85.6c0,0,20.7,1,20.7-19.7C372.4,493.3,373.3,430.6,373.3,430.6z"/>
	<path class="st4" d="M367.7,441.2c0,0,17.4-6.9,38.8,0c0,0,1.6,4.4,2.2,7.2c0,0-23.3-8.4-41,0V441.2z"/>
	<path class="st4" d="M367.7,431.9c0,0,22.6-3.4,34.5,2.2c0,0-7.1-14.2-34.5-14V431.9z"/>
	<path class="st4" d="M367.7,456.9c0,0,20.3-8.4,41.6,1.7v8.4c0,0-16-8.6-41.6-2.1C347.9,469.9,367.7,456.9,367.7,456.9z"/>
	<path class="st4" d="M367.7,473.9c0,0,19.3-5.1,41.6,3.3v7.1c0,0-24.7-8.3-41.6-2.8C350.7,486.9,367.7,473.9,367.7,473.9z"/>
</g>
<path class="st25" d="M325.8,449.2c-11,0-16.7,15.7-16.7,15.7s-5.7-15.7-16.7-15.7s-23.1,12.6-16.4,32.7
	c6.6,20.2,33.1,37.7,33.1,37.7s26.5-17.5,33.1-37.7C348.9,461.7,336.8,449.2,325.8,449.2z"/>
<path class="st27" d="M304.5,562.9H193.8c-4.4,0-10.1-3.6-12.6-8l-40.3-69.8c-2.5-4.4-1-8,3.4-8H255c4.4,0,10.1,3.6,12.6,8
	l40.3,69.8C310.4,559.3,308.9,562.9,304.5,562.9z"/>
<path class="st28" d="M295.5,562.9H184.9c-4.4,0-10.1-3.6-12.6-8L132,485.2c-2.5-4.4-1-8,3.4-8H246c4.4,0,10.1,3.6,12.6,8l40.3,69.8
	C301.5,559.3,299.9,562.9,295.5,562.9z"/>
<g>
	<path class="st27" d="M202.9,562.9h-61.5l44.7-45.7h62.5L202.9,562.9z M148.5,559.9h53.1l39.7-39.7h-54L148.5,559.9z"/>
</g>
<path class="st29" d="M542.1,582.9h-445c-5.5,0-10-4.5-10-10l0,0c0-5.5,4.5-10,10-10h445c5.5,0,10,4.5,10,10l0,0
	C552.1,578.4,547.6,582.9,542.1,582.9z"/>
<path class="st23" d="M491.8,582.9h-445c-5.5,0-10-4.5-10-10l0,0c0-5.5,4.5-10,10-10h445c5.5,0,10,4.5,10,10l0,0
	C501.8,578.4,497.3,582.9,491.8,582.9z"/>
<g id="Cup_2_">
	<path class="st30" d="M467.8,562.9c-6,0-40.3,0-40.3,0v-61.7h44.6C472.1,501.3,473.7,562.9,467.8,562.9z"/>
	<path class="st25" d="M423.5,562.9c6,0,29.3,0,35.7,0c6.5,0,4.6-61.7,4.6-61.7h-44.6C419.3,501.3,417.6,562.9,423.5,562.9z"/>
	<path class="st31" d="M466.8,552.3c0,0,18.5,4,18.5-18.9"/>
	<path class="st31" d="M466.8,514.4c0,0,18.5-4,18.5,18.9"/>
</g>
<g id="Chat_bubble_2_">
	<path class="st25" d="M112.7,380.2h-70c-6.6,0-12-5.4-12-12v-37.5c0-6.6,5.4-12,12-12h70c6.6,0,12,5.4,12,12v37.5
		C124.7,374.8,119.3,380.2,112.7,380.2z"/>
	<path class="st23" d="M159.4,334.4h-70c-6.6,0-12-5.4-12-12v-37.5c0-6.6,5.4-12,12-12h70c6.6,0,12,5.4,12,12v37.5
		C171.4,329,166,334.4,159.4,334.4z"/>
	<circle class="st12" cx="105.7" cy="303.6" r="5"/>
	<circle class="st12" cx="124.4" cy="303.6" r="5"/>
	<circle class="st12" cx="142.6" cy="303.6" r="5"/>
	<circle class="st12" cx="59.3" cy="349.5" r="5"/>
	<circle class="st12" cx="77.9" cy="349.5" r="5"/>
	<circle class="st12" cx="96.2" cy="349.5" r="5"/>
	<polygon class="st23" points="139.6,329.2 158.5,349.5 158.5,327.9 	"/>
	<polygon class="st25" points="62.4,375 43.5,395.3 43.5,373.8 	"/>
	<circle class="st32" cx="101.1" cy="334.1" r="99.6"/>
</g>
<g id="Call">
	<path class="st25" d="M285.2,133.7c-2.7-2.3-13-10.9-16.6-14c-3.7-3.1-8.3,0.9-8.3,0.9l-8.7,8.9c-9.7,9.5-42.6-31.8-30-39.1
		l10.8-6.1c0,0,5.1-3.5,3-7.8s-7.8-16.5-9.3-19.7s-7.7-2.7-7.7-2.7s-12.7,5-21.1,8.3c-8.5,3.3-6.2,15.1-6.2,15.1s9.7,23.9,27.5,46.6
		s38.1,38.4,38.1,38.4s10.5,4.6,15.9-2.7s13.3-18,13.3-18S287.9,136,285.2,133.7z"/>
	<path class="st33" d="M254.8,70.3c0,0,32.1,5.5,26.4,38.7"/>
	<path class="st33" d="M258.8,54c0,0,46.3,7.9,38,55.6"/>
	<path class="st33" d="M263.2,38.2c0,0,59.4,10.2,48.9,71.5"/>
	<circle class="st34" cx="252.1" cy="101.1" r="99.6"/>
</g>
<g id="Mail">
	<polygon class="st23" points="611.2,260.3 493,260.3 552.1,303.1 	"/>
	<polygon class="st23" points="493,265.5 493,329.8 537,297.9 	"/>
	<polygon class="st23" points="611.2,329.8 611.2,265.5 567.3,297.9 	"/>
	<polygon class="st23" points="552.1,309.3 540.5,301 499.8,329.8 552.1,329.8 604.4,329.8 563.7,301 	"/>
	<circle class="st32" cx="552.1" cy="295.1" r="99.6"/>
</g>
</svg>
