<?xml version="1.0" encoding="utf-8"?>
<!-- Generator: Adobe Illustrator 22.1.0, SVG Export Plug-In . SVG Version: 6.00 Build 0)  -->
<svg version="1.1" id="Layer_1" xmlns="http://www.w3.org/2000/svg" xmlns:xlink="http://www.w3.org/1999/xlink" x="0px" y="0px"
	 viewBox="0 0 1548 1688.3" style="enable-background:new 0 0 1548 1688.3;" xml:space="preserve">
<style type="text/css">
	.st0{display:none;}
	.st1{display:inline;}
	.st2{fill:none;stroke:#000000;stroke-width:0.25;}
	.st3{fill:none;}
	.st4{opacity:0.3;fill:url(#SVGID_1_);enable-background:new    ;}
	.st5{fill:url(#SVGID_2_);}
	.st6{opacity:0.1;fill:#FFFFFF;enable-background:new    ;}
</style>
<g id="Guides" class="st0">
	<g id="Ratio" class="st1">
		<circle class="st2" cx="-753.7" cy="-582" r="128.8"/>
		<circle class="st2" cx="-545.3" cy="-631.1" r="79.6"/>
		<circle class="st2" cx="-514.8" cy="-502.3" r="49.2"/>
		<circle class="st2" cx="-594.5" cy="-483.6" r="30.5"/>
		<circle class="st2" cx="-606.2" cy="-532.8" r="18.7"/>
		<circle class="st2" cx="-575.7" cy="-539.8" r="11.7"/>
		<circle class="st2" cx="-571" cy="-521.1" r="7"/>
		<circle class="st2" cx="-585.1" cy="-525.7" r="2.3"/>
		<circle class="st2" cx="-580.4" cy="-525.7" r="2.3"/>
		<circle class="st3" cx="-582.7" cy="-518.7" r="4.7"/>
		<circle class="st2" cx="-582.7" cy="-518.7" r="4.7"/>
	</g>
	
		<image style="display:inline;overflow:visible;enable-background:new    ;" width="602" height="402" xlink:href="B2F599DF.jpeg"  transform="matrix(0.4975 0 0 0.4975 -795.378 -301.6793)">
	</image>
	
		<image style="display:inline;overflow:visible;enable-background:new    ;" width="241" height="241" xlink:href="B2F599DD.jpeg"  transform="matrix(0.9959 0 0 0.9959 -514.8182 -317.2077)">
	</image>
	
		<image style="display:inline;overflow:visible;enable-background:new    ;" width="281" height="337" xlink:href="B2F599E3.jpeg"  transform="matrix(0.7472 0 0 0.7472 -148.5103 -301.6046)">
	</image>
	
		<image style="display:inline;overflow:visible;enable-background:new    ;" width="1306" height="917" xlink:href="B2F599E5.jpeg"  transform="matrix(0.2128 0 0 0.2128 -795.6268 -26.3116)">
	</image>
	
		<image style="display:inline;overflow:visible;enable-background:new    ;" width="237" height="237" xlink:href="B2F599E7.jpeg"  transform="matrix(0.9958 0 0 0.9958 -451.7629 -12.2122)">
	</image>
	
		<image style="display:inline;overflow:visible;enable-background:new    ;" width="293" height="173" xlink:href="B2F599E5.jpeg"  transform="matrix(0.7456 0 0 0.7456 -152.7497 30.2884)">
	</image>
	
		<image style="display:inline;overflow:visible;enable-background:new    ;" width="112" height="124" xlink:href="B2F599E3.jpeg"  transform="matrix(0.7432 0 0 0.7432 -722.9784 244.2933)">
	</image>
	
		<image style="display:inline;overflow:visible;enable-background:new    ;" width="237" height="170" xlink:href="B2F599ED.jpeg"  transform="matrix(0.9941 0 0 0.9941 123.6942 -286.1793)">
	</image>
	
		<image style="display:inline;overflow:visible;enable-background:new    ;" width="326" height="261" xlink:href="B2F599EF.jpeg"  transform="matrix(0.9962 0 0 0.9962 128.8406 -75.2092)">
	</image>
	
		<image style="display:inline;overflow:visible;enable-background:new    ;" width="237" height="178" xlink:href="DD7F3D4C.jpeg"  transform="matrix(0.9944 0 0 0.9944 -451.5972 236.2659)">
	</image>
	
		<image style="display:inline;overflow:visible;enable-background:new    ;" width="642" height="645" xlink:href="DD7F3D4C.jpeg"  transform="matrix(0.3341 0 0 0.3341 402.9811 -286.1793)">
	</image>
</g>
<g id="Layer_2_1_">
	
		<linearGradient id="SVGID_1_" gradientUnits="userSpaceOnUse" x1="667.42" y1="100.2684" x2="201.0379" y2="566.6506" gradientTransform="matrix(1 0 0 -1 0 1688)">
		<stop  offset="0" style="stop-color:#3B298A"/>
		<stop  offset="1" style="stop-color:#2060A1"/>
	</linearGradient>
	<path class="st4" d="M766.2,1319.6c-14.7-142.2-118.6-258-254.7-290.3c-24.9-5.9-50.8-9-77.5-9c-132.2,0-246.5,76.8-300.6,188.2
		c-21.4,44-33.4,93.5-33.4,145.8c0,184.5,149.5,334,334,334c106.9,0,202-50.2,263.2-128.3c3.8-4.8,7.4-9.7,10.9-14.7
		c0.2-0.3,0.4-0.6,0.6-0.8c37.4-54,59.3-119.5,59.3-190.1C768,1342.6,767.4,1331,766.2,1319.6z"/>
	<linearGradient id="SVGID_2_" gradientUnits="userSpaceOnUse" x1="1236.6876" y1="1312.2999" x2="282.5922" y2="202.189">
		<stop  offset="0" style="stop-color:#3B298A"/>
		<stop  offset="1" style="stop-color:#007BB8"/>
	</linearGradient>
	<path class="st5" d="M774,0C346.5,0,0,346.5,0,774c0,0.5,0,0.9,0,1.4c0.3,160.5,49.4,309.6,133.4,433.1
		c127.1,187.1,334,315.5,571.8,336.5c0.9,0.1,1.9,0.2,2.9,0.2c0.6,0.1,1.2,0.1,1.8,0.1c21.2,1.7,42.6,2.6,64.2,2.6
		c405,0,737.3-311,771.2-707.2c1.9-22,2.9-44.3,2.9-66.8C1548,346.5,1201.5,0,774,0z"/>
	<path class="st6" d="M1061,558.3c-216.1,0-403.5,123.3-495.5,303.4c-26.4,51.7-45,108.1-54.1,167.6c-4.3,27.7-6.5,56.1-6.5,85
		c0,172.3,78.4,326.3,201.4,428.3c0.7,0.6,1.5,1.2,2.2,1.8c0.4,0.3,0.8,0.7,1.2,1c21.2,1.7,42.6,2.6,64.2,2.6
		c405,0,737.3-311,771.2-707.2C1449.7,672.1,1268.6,558.3,1061,558.3z"/>
	<path class="st6" d="M565.5,861.7C469.3,782,345.7,734,211,734c-74.7,0-145.9,14.7-211,41.4c0.3,160.5,49.4,309.6,133.4,433.1
		c-21.4,44-33.4,93.5-33.4,145.8c0,184.5,149.5,334,334,334c106.9,0,202-50.2,263.2-128.3c2.8-4.9,5.4-9.9,8-15
		c0.4-0.8,0.8-1.6,1.3-2.4c34.5-67.5,55.6-143,59.8-222.9c0.5-9.8,0.8-19.7,0.8-29.6C767,1117.7,688.6,963.7,565.5,861.7z"/>
</g>
</svg>
