<?xml version="1.0" encoding="utf-8"?>
<!-- Generator: Adobe Illustrator 22.1.0, SVG Export Plug-In . SVG Version: 6.00 Build 0)  -->
<svg version="1.1" id="Guides" xmlns="http://www.w3.org/2000/svg" xmlns:xlink="http://www.w3.org/1999/xlink" x="0px" y="0px"
	 viewBox="0 0 1088.7 248.3" style="enable-background:new 0 0 1088.7 248.3;" xml:space="preserve">
<style type="text/css">
	.st0{fill:none;stroke:#000000;stroke-width:0.25;}
	.st1{fill:none;}
	.st2{display:none;fill:#212121;}
	.st3{fill:none;stroke:#000000;}
	.st4{fill:#333333;}
	.st5{fill:none;stroke:#000000;stroke-width:0.75;stroke-miterlimit:10;}
	.st6{fill:#3E2F8B;}
	.st7{fill:url(#SVGID_1_);}
	.st8{opacity:0.3;enable-background:new    ;}
	.st9{fill:url(#SVGID_2_);}
	.st10{fill:url(#SVGID_3_);}
	.st11{fill:url(#SVGID_4_);}
</style>
<g>
	<circle class="st0" cx="-330.9" cy="-315.8" r="128.8"/>
	<circle class="st0" cx="-122.5" cy="-365" r="79.6"/>
	<circle class="st0" cx="-92" cy="-236.2" r="49.2"/>
	<circle class="st0" cx="-171.7" cy="-217.4" r="30.5"/>
	<circle class="st0" cx="-183.4" cy="-266.6" r="18.7"/>
	<circle class="st0" cx="-152.9" cy="-273.6" r="11.7"/>
	<circle class="st0" cx="-148.2" cy="-254.9" r="7"/>
	<circle class="st0" cx="-162.3" cy="-259.6" r="2.3"/>
	<circle class="st0" cx="-157.6" cy="-259.6" r="2.3"/>
	<circle class="st1" cx="-160" cy="-252.6" r="4.7"/>
	<circle class="st0" cx="-160" cy="-252.6" r="4.7"/>
</g>
<rect x="180.1" y="-51" class="st2" width="233.2" height="464.1"/>
<g>
	<circle class="st3" cx="-323.9" cy="84.8" r="79.6"/>
	<circle class="st3" cx="-254.8" cy="124.6" r="79.6"/>
	<circle class="st3" cx="-323.9" cy="164.5" r="79.6"/>
	<circle class="st3" cx="-343.7" cy="50.4" r="49.2"/>
	<circle class="st3" cx="-215.2" cy="124.6" r="49.2"/>
	<circle class="st3" cx="-343.7" cy="199.1" r="49.2"/>
	<line class="st3" x1="-392.9" y1="204.3" x2="-392.9" y2="45"/>
	<line class="st3" x1="-323.7" y1="244.1" x2="-185.8" y2="164.5"/>
	<line class="st3" x1="-185.8" y1="84.8" x2="-323.7" y2="5.2"/>
	<g>
		<circle class="st3" cx="-409.1" cy="50.4" r="49.2"/>
		<circle class="st3" cx="-359.9" cy="50.4" r="49.2"/>
		<circle class="st3" cx="-409.1" cy="199.1" r="49.2"/>
		<circle class="st3" cx="-359.9" cy="199.1" r="49.2"/>
		<line class="st3" x1="-458.3" y1="50.4" x2="-458.3" y2="199.1"/>
		<line class="st3" x1="-409.1" y1="50.4" x2="-409.1" y2="199.1"/>
		<line class="st3" x1="-360.2" y1="248.3" x2="-409.4" y2="248.3"/>
		<line class="st3" x1="-361.4" y1="1.2" x2="-410.6" y2="1.2"/>
	</g>
</g>
<text transform="matrix(1 0 0 1 28.5252 283.3638)" style="font-family:'MyriadPro-Regular'; font-size:12px;">3e2f8c - 007bb8</text>
<g>
	<g>
		<path class="st4" d="M332.2,22.1h24.6V160h-24.6V22.1z M346.6,136.2h25.3c5.9,0,10.4-1.5,13.6-4.5s4.8-7.3,4.8-12.8V63.3
			c0-5.6-1.6-9.8-4.8-12.8c-3.2-3-7.7-4.5-13.6-4.5h-25.3V22.1h26.2c9,0,16.8,1.6,23.2,4.7c6.4,3.1,11.3,7.7,14.6,13.7
			c3.3,6,5,13.3,5,21.7v57.6c0,8.2-1.6,15.2-4.9,21.3c-3.3,6-8.1,10.7-14.5,13.9c-6.4,3.3-14.3,4.9-23.5,4.9h-26.1L346.6,136.2
			L346.6,136.2z"/>
		<path class="st4" d="M460.9,161.4c0,0-2.8-1.5-8.5-4.4s-10-7.2-13-12.7c-3-5.6-4.5-12.2-4.5-20V99c0-8.2,1.5-15.2,4.4-21
			s7.1-10.3,12.6-13.3c5.5-3.1,12.1-4.6,19.9-4.6c7.6,0,14.1,1.7,19.4,5c5.4,3.3,9.5,8.2,12.3,14.6s4.2,14.2,4.2,23.3v17.3h-54.8
			v-17.5h31.6v-7c0-4.2-1.2-7.5-3.6-9.9s-5.4-3.6-9.1-3.6c-4.2,0-7.6,1.4-10,4.1s-3.6,6.6-3.6,11.6v26.7c0,4.8,1.2,8.5,3.7,11
			c2.5,2.6,5.9,3.8,10.4,3.8c3.4,0,6.2-0.9,8.5-2.6c2.2-1.7,3.9-4.2,5-7.5l20.8,7.9c-1.9,8-5.7,13.9-11.4,18c-5.7,4-13.1,6-22.1,6
			C464.9,161.4,460.9,161.4,460.9,161.4z"/>
		<path class="st4" d="M575.5,61.6h24.4L568.5,160h-18.4l-31.3-98.4h24.3l16.2,63.4L575.5,61.6z"/>
		<path class="st4" d="M637.1,161.4c0,0-2.8-1.5-8.5-4.4s-10-7.2-13-12.7c-3-5.6-4.5-12.2-4.5-20V99c0-8.2,1.5-15.2,4.4-21
			s7.1-10.3,12.6-13.3c5.5-3.1,12.1-4.6,19.9-4.6c7.6,0,14.1,1.7,19.4,5c5.4,3.3,9.5,8.2,12.3,14.6s4.2,14.2,4.2,23.3v17.3H629
			v-17.5h31.6v-7c0-4.2-1.2-7.5-3.6-9.9c-2.4-2.4-5.4-3.6-9.1-3.6c-4.2,0-7.6,1.4-10,4.1s-3.6,6.6-3.6,11.6v26.7
			c0,4.8,1.2,8.5,3.7,11c2.5,2.6,5.9,3.8,10.4,3.8c3.4,0,6.2-0.9,8.5-2.6c2.2-1.7,3.9-4.2,5-7.5l20.8,7.9c-1.9,8-5.7,13.9-11.4,18
			c-5.7,4-13.1,6-22.1,6C641.1,161.4,637.1,161.4,637.1,161.4z"/>
		<path class="st4" d="M724,161.4c0,0-2.6-0.9-7.9-2.8c-5.2-1.9-9.6-4.6-13.1-8.2c-3.5-3.6-6-7.9-7.3-12.9l20-10.3
			c2,3.7,4.7,6.5,8.2,8.6c3.4,2.1,7.3,3.1,11.6,3.1c3.9,0,7-0.7,9.2-2.2s3.3-3.4,3.3-5.8c0-2.3-0.7-4-2-5.3c-1.4-1.2-3-2.2-5-2.8
			s-4.8-1.4-8.6-2.2c-0.8-0.2-1.6-0.4-2.4-0.6c-0.9-0.2-1.8-0.4-2.7-0.6c-0.2-0.1-0.4-0.2-0.6-0.2c-0.2,0-0.5-0.1-0.7-0.1
			c-5.5-1.3-10.1-2.9-13.8-4.6c-3.7-1.8-6.8-4.6-9.3-8.4s-3.7-9-3.7-15.4c0-6.3,1.4-11.7,4.1-16.2c2.7-4.5,6.7-8,11.9-10.5
			c5.2-2.4,11.4-3.6,18.4-3.6c6.1,0,11.5,0.9,16.3,2.7s8.8,4.4,12.1,7.8s5.6,7.5,7.1,12.4L749,92.8c-1.6-3.2-3.8-5.7-6.5-7.5
			s-5.8-2.7-9.2-2.7c-3.7,0-6.5,0.6-8.6,1.9s-3.1,3.1-3.1,5.5c0,2,0.7,3.6,2.1,4.9c1.4,1.2,3.2,2.2,5.4,2.9c2.2,0.7,5.3,1.4,9.2,2.2
			c0.2,0.1,0.4,0.1,0.8,0.2c0.3,0.1,0.6,0.1,0.9,0.1c0.1,0.1,0.3,0.2,0.4,0.2c0.1,0,0.3,0,0.4,0.1c6.3,1.3,11.4,2.8,15.4,4.4
			s7.4,4.4,10.1,8.4c2.8,4,4.2,9.7,4.2,16.9c0,6.4-1.5,11.9-4.4,16.5s-7.1,8.2-12.7,10.8c-5.6,2.5-12,3.8-19.4,3.8
			C727.3,161.4,724,161.4,724,161.4z"/>
		<path class="st4" d="M787.2,22.1h24.7v24.5h-24.7V22.1z M787.2,61.6h24.7V160h-24.7V61.6z"/>
		<path class="st4" d="M842,157.4c-3.9-2.7-6.9-6.7-9-11.9s-3.1-11.5-3.1-18.7v-32c0-7.3,1-13.6,3.1-18.9c2.1-5.2,5.1-9.2,9-11.9
			c3.9-2.7,8.7-4,14.2-4c4.7,0,9.1,1.6,13,4.7s7.1,7.5,9.5,13.1l-2,17.1c0-2.6-0.4-4.8-1.3-6.6c-0.9-1.8-2.1-3.2-3.7-4.2
			c-1.6-1-3.7-1.5-6.1-1.5c-3.5,0-6.2,1.2-8.3,3.7s-3.1,5.9-3.1,10.3v28.3c0,4.4,1,7.7,3,10.1c2,2.4,4.8,3.6,8.3,3.6
			c2.4,0,4.4-0.5,6.1-1.5c1.6-1,2.9-2.4,3.7-4.2c0.9-1.8,1.3-4,1.3-6.6l1.3,17.9c-1.7,5.4-4.5,9.5-8.4,12.5s-8.4,4.5-13.5,4.5
			C850.7,161.5,845.9,160.1,842,157.4z M849.8,200c0,0-2.7-2.1-8.2-6.4c-5.5-4.3-8.9-10.6-10.2-19l23.9-7.4c0.7,3.2,2,5.6,3.9,7.3
			s4.2,2.5,7,2.5c3.3,0,5.9-1,7.8-3.1c1.9-2.1,2.9-4.9,2.9-8.4V61.6h24.8v102.7c0,7.5-1.5,13.9-4.5,19.2s-7.3,9.4-12.9,12.2
			c-5.6,2.8-12.4,4.2-20.3,4.2C854.6,200,849.8,200,849.8,200z"/>
		<path class="st4" d="M923.9,61.6h24.7V160h-24.7V61.6z M971.6,95.3c0-3.9-1-6.9-3.1-9.1c-2.1-2.1-4.9-3.2-8.7-3.2
			c-3.6,0-6.4,1.1-8.3,3.2c-2,2.1-2.9,5.2-2.9,9.1l-2-16.7c2.5-6.1,5.7-10.8,9.7-14c4-3.2,8.7-4.8,14.1-4.8c8.2,0,14.6,2.8,19.1,8.5
			s6.8,13.7,6.8,24V160h-24.6L971.6,95.3L971.6,95.3z"/>
		<path class="st4" d="M1038.9,161.4c0,0-2.6-0.9-7.9-2.8c-5.2-1.9-9.6-4.6-13.1-8.2c-3.5-3.6-6-7.9-7.3-12.9l20-10.3
			c2,3.7,4.7,6.5,8.2,8.6c3.4,2.1,7.3,3.1,11.6,3.1c3.9,0,7-0.7,9.2-2.2s3.3-3.4,3.3-5.8c0-2.3-0.7-4-2-5.3c-1.4-1.2-3-2.2-5-2.8
			s-4.8-1.4-8.6-2.2c-0.8-0.2-1.6-0.4-2.4-0.6c-0.9-0.2-1.8-0.4-2.7-0.6c-0.2-0.1-0.4-0.2-0.6-0.2s-0.5-0.1-0.7-0.1
			c-5.5-1.3-10.1-2.9-13.8-4.6c-3.7-1.8-6.8-4.6-9.3-8.4s-3.7-9-3.7-15.4c0-6.3,1.4-11.7,4.1-16.2c2.7-4.5,6.7-8,11.9-10.5
			c5.2-2.4,11.4-3.6,18.4-3.6c6.1,0,11.5,0.9,16.3,2.7s8.8,4.4,12.1,7.8c3.3,3.4,5.6,7.5,7.1,12.4l-19.9,9.9
			c-1.6-3.2-3.8-5.7-6.5-7.5s-5.8-2.7-9.2-2.7c-3.7,0-6.5,0.6-8.6,1.9s-3.1,3.1-3.1,5.5c0,2,0.7,3.6,2.1,4.9
			c1.4,1.2,3.2,2.2,5.4,2.9c2.2,0.7,5.3,1.4,9.2,2.2c0.2,0.1,0.4,0.1,0.8,0.2c0.3,0.1,0.6,0.1,0.9,0.1c0.1,0.1,0.3,0.2,0.4,0.2
			s0.3,0,0.4,0.1c6.3,1.3,11.4,2.8,15.4,4.4s7.4,4.4,10.1,8.4c2.8,4,4.2,9.7,4.2,16.9c0,6.4-1.5,11.9-4.4,16.5s-7.1,8.2-12.7,10.8
			c-5.6,2.5-12,3.8-19.4,3.8C1042.2,161.4,1038.9,161.4,1038.9,161.4z"/>
	</g>
</g>
<path class="st5" d="M796.2,1.1"/>
<g>
	<g>
		<path class="st6" d="M332.2,188.3h3.9v39.8h-3.9V188.3z M335.2,224.4h9.4c2.3,0,4.1-0.6,5.2-1.7c1.2-1.1,1.7-2.8,1.7-5.1v-18.8
			c0-2.3-0.6-4-1.7-5.1c-1.2-1.1-2.9-1.7-5.2-1.7h-9.4v-3.7h9.2c2.4,0,4.5,0.4,6.1,1.2s2.9,2,3.7,3.6c0.8,1.6,1.2,3.6,1.2,5.9v18.4
			c0,2.3-0.4,4.3-1.3,5.9c-0.8,1.6-2.1,2.8-3.7,3.6s-3.7,1.2-6.1,1.2h-9.2L335.2,224.4L335.2,224.4z"/>
		<path class="st6" d="M362.7,188.3h3.9v39.8h-3.9V188.3z M365.4,188.3H384v3.7h-18.6V188.3z M365.4,206.5h16.4v3.7h-16.4V206.5z
			 M365.4,224.4H384v3.7h-18.6V224.4z"/>
		<path class="st6" d="M386.8,188.3h4.2l9,34.8l9-34.8h4.2l-10.9,39.8h-4.5L386.8,188.3z"/>
		<path class="st6" d="M431.2,211.8c-1.5,1.3-2.3,3.2-2.3,5.7c0,2.4,0.7,4.3,2.1,5.6s3.4,2,6,2c2.3,0,4.3-0.6,5.9-1.9
			c1.6-1.3,2.9-3.2,3.7-5.7s1.3-5.6,1.3-9.2h3.6c0,4.4-0.6,8.1-1.7,11.1s-2.8,5.3-5.1,6.8s-5.2,2.3-8.7,2.3c-2.3,0-4.3-0.4-5.9-1.3
			c-1.6-0.9-2.9-2.1-3.8-3.8s-1.3-3.6-1.3-6c0-3.1,0.9-5.6,2.7-7.5c1.8-1.9,4.3-3,7.6-3.3l2.1,3.1
			C434.8,209.8,432.7,210.5,431.2,211.8z M435,211.7c-1.3-1.5-2.4-2.9-3.3-4.4s-1.5-2.9-2-4.4s-0.7-3.1-0.7-4.8
			c0-3.3,0.8-5.8,2.5-7.5c1.6-1.7,4-2.6,7.1-2.6s5.5,0.8,7.1,2.5s2.4,4.1,2.4,7.3v1.4h-3.9v-1.4c0-2-0.5-3.5-1.5-4.5
			s-2.3-1.5-4.1-1.5c-1.8,0-3.2,0.5-4.2,1.6s-1.5,2.7-1.5,4.7c0,1.3,0.2,2.6,0.6,3.8c0.4,1.3,1,2.5,1.8,3.7s1.8,2.5,3,3.9l15.9,18.6
			h-5.1L435,211.7z"/>
		<path class="st6" d="M467.6,188.3h3.9v39.8h-3.9V188.3z M470.5,224.4h9.4c2.3,0,4.1-0.6,5.2-1.7c1.2-1.1,1.7-2.8,1.7-5.1v-18.8
			c0-2.3-0.6-4-1.7-5.1c-1.2-1.1-2.9-1.7-5.2-1.7h-9.4v-3.7h9.2c2.4,0,4.5,0.4,6.1,1.2s2.9,2,3.7,3.6c0.8,1.6,1.2,3.6,1.2,5.9v18.4
			c0,2.3-0.4,4.3-1.3,5.9c-0.8,1.6-2.1,2.8-3.7,3.6s-3.7,1.2-6.1,1.2h-9.2L470.5,224.4L470.5,224.4z"/>
		<path class="st6" d="M498.1,188.3h3.9v39.8h-3.9V188.3z M500.8,188.3h18.6v3.7h-18.6L500.8,188.3L500.8,188.3z M500.8,206.5h16.4
			v3.7h-16.4L500.8,206.5L500.8,206.5z M500.8,224.4h18.6v3.7h-18.6L500.8,224.4L500.8,224.4z"/>
		<path class="st6" d="M532.9,228.5c0,0-0.8-0.3-2.4-0.8c-1.6-0.6-3-1.4-4.1-2.7c-1.1-1.2-1.9-2.8-2.4-4.7l3.8-1.4
			c0.5,2.1,1.5,3.6,3,4.5s3.2,1.4,5.3,1.4c2.6,0,4.7-0.6,6.1-1.7s2.1-2.8,2.1-5V217c0-1.4-0.3-2.6-1-3.5s-1.6-1.6-2.7-2.1
			c-1.1-0.5-2.5-1-4.2-1.6c0,0-0.1,0-0.1-0.1c0,0-0.1,0-0.2-0.1l-0.7-0.2c-2.2-0.7-4.1-1.4-5.4-2.1s-2.5-1.6-3.5-2.9
			c-0.9-1.3-1.4-3-1.4-5.1v-1c0-2.3,0.5-4.2,1.4-5.7s2.2-2.7,4-3.5s3.9-1.2,6.5-1.2c2,0,3.7,0.3,5.1,0.8c1.4,0.5,2.6,1.4,3.5,2.5
			s1.6,2.6,2.2,4.4L544,197c-0.6-1.9-1.5-3.3-2.6-4.1c-1.2-0.9-2.6-1.3-4.5-1.3c-2.6,0-4.6,0.6-5.9,1.7c-1.4,1.1-2.1,2.8-2.1,4.9v1
			c0,1.4,0.4,2.5,1.2,3.4s1.7,1.6,2.9,2.1c1.1,0.5,2.7,1,4.7,1.6c0.1,0,0.2,0,0.2,0.1c0.1,0,0.1,0.1,0.2,0.1c0.1,0,0.2,0,0.3,0.1
			c0.1,0,0.2,0.1,0.2,0.1c2,0.6,3.7,1.3,5,2s2.5,1.8,3.4,3.1s1.3,3,1.3,5.1v1.3c0,2.3-0.5,4.2-1.4,5.7c-0.9,1.6-2.3,2.7-4.1,3.5
			s-4,1.2-6.6,1.2C534,228.5,532.9,228.5,532.9,228.5z"/>
		<path class="st6" d="M559.4,228.1h-4v-39.8h4V228.1z"/>
		<path class="st6" d="M591,207.2v8.7c0,2.7-0.4,5-1.3,6.9s-2.2,3.3-4,4.2s-3.9,1.4-6.5,1.4s-4.8-0.4-6.6-1.3c-1.8-0.9-3.1-2.2-4-4
			s-1.3-3.9-1.3-6.5v-16.3c0-2.7,0.4-5,1.3-6.9c0.9-1.9,2.2-3.3,4-4.2s3.9-1.4,6.5-1.4c2.4,0,4.4,0.4,6.1,1.3
			c1.6,0.9,2.9,2.2,3.8,3.9c0.9,1.7,1.5,3.9,1.7,6.6h-4.3c-0.2-1.8-0.6-3.3-1.2-4.5c-0.6-1.2-1.4-2.1-2.4-2.7
			c-1-0.6-2.3-0.9-3.7-0.9c-1.7,0-3.1,0.3-4.3,1s-2,1.7-2.6,3s-0.9,2.9-0.9,4.8v16.3c0,1.8,0.3,3.3,0.9,4.4c0.6,1.2,1.5,2.1,2.7,2.7
			s2.6,0.9,4.4,0.9c1.7,0,3.1-0.3,4.2-1c1.1-0.6,2-1.6,2.6-2.9c0.6-1.3,0.9-2.9,0.9-4.9v-5.2h-7.7V207H591V207.2z"/>
		<path class="st6" d="M598.3,188.3h3.8l17.8,34.2l-1.1-0.2v-34h3.9v39.8h-3.9l-18-34.4l1.4,0.4v34h-3.9V188.3z"/>
	</g>
</g>
<g>
	<linearGradient id="SVGID_1_" gradientUnits="userSpaceOnUse" x1="213.5373" y1="45.0317" x2="213.0373" y2="203.5317">
		<stop  offset="0" style="stop-color:#3E2F8C"/>
		<stop  offset="1" style="stop-color:#007BB8"/>
	</linearGradient>
	<path class="st7" d="M203.6,203.4l46.2-26.8l16-9.2c0,0,0,0,0.1,0c0.6-0.3,5.3-2.5,10.5-7.3c0.9-0.8,1.8-1.7,2.8-2.7
		c0.3-0.3,0.5-0.6,0.8-0.9c0.3-0.3,0.6-0.6,0.8-0.9c0.3-0.3,0.5-0.6,0.8-1c0.3-0.3,0.5-0.7,0.8-1s0.5-0.7,0.8-1
		c0.4-0.6,0.8-1.1,1.2-1.7c0.2-0.3,0.4-0.7,0.7-1c0.1-0.2,0.3-0.5,0.4-0.7c0.2-0.3,0.3-0.5,0.5-0.8c0.2-0.4,0.4-0.8,0.6-1.2l0,0
		c0.4-0.8,0.8-1.6,1.2-2.5c3-6.4,4.3-13.2,4.3-20c-0.1-15.5-7.4-30.9-19-40c-1.6-1.3-3.3-2.4-5.1-3.5l0,0l-64.3-37.1l0,0
		c0,0-0.2,0-0.6,0c-13.4,0.1-26.7,3.7-38.4,10.2c-0.3,0.1-0.5,0.3-0.8,0.4c-0.1,0-0.2,0.1-0.3,0.2c-0.1,0.1-0.2,0.1-0.3,0.2
		c-0.1,0-0.2,0.1-0.2,0.1l0,0l0,0c-0.5,0.3-0.9,0.5-1.4,0.8c-9.3,5.7-17.4,13.4-23.9,22.8c-0.9,1.3-1.8,2.7-2.6,4.1V83
		c0,0.1-0.1,0.1-0.1,0.2c-0.1,0.2-0.3,0.5-0.4,0.7c0,0.1-0.1,0.1-0.1,0.2c4.6,0,9.2,0.4,13.7,1.2c9,1.6,17.8,4.7,26.1,9.5
		c8.2,4.8,15.3,10.8,21.1,17.7c3,3.6,5.7,7.4,8,11.5c0.9,1.6,1.8,3.2,2.6,4.9l0,0c5.3,10.8,8,22.6,8.1,34.6
		c0.1,13.6-3.3,27.3-10.6,40v0.3L203.6,203.4z"/>
	<path class="st8" d="M209.2,47.2c0,0-40.9-5.6-70.7,36.7c0,0-18.1-1.1-30.6,1.7c19.6-12.4,68.7-57.3,68.7-57.3L209.2,47.2z"/>
	<linearGradient id="SVGID_2_" gradientUnits="userSpaceOnUse" x1="60.1986" y1="114.6489" x2="199.0651" y2="36.2243">
		<stop  offset="0" style="stop-color:#5152A1"/>
		<stop  offset="1" style="stop-color:#007BC2"/>
	</linearGradient>
	<path class="st9" d="M203.2,43.6L157,17l-16-9.2c0,0,0,0-0.1,0c-0.6-0.4-4.8-3.3-11.5-5.4c-1.2-0.4-2.4-0.7-3.7-1
		c-0.4-0.1-0.8-0.2-1.2-0.3c-0.4-0.1-0.8-0.2-1.2-0.2c-0.4-0.1-0.8-0.1-1.2-0.2c-0.4-0.1-0.8-0.1-1.2-0.2c-0.4-0.1-0.8-0.1-1.3-0.1
		c-0.7-0.1-1.4-0.1-2.1-0.2c-0.4,0-0.8,0-1.2-0.1c-0.3,0-0.6,0-0.9,0s-0.6,0-0.9,0c-0.4,0-0.9,0-1.3,0l0,0c-0.9,0-1.8,0.1-2.8,0.2
		c-7,0.6-13.6,2.9-19.5,6.3c-13.4,7.9-23,21.8-25.2,36.5c-0.3,2-0.5,4.1-0.5,6.1l0,0v74.3l0,0c0,0,0.1,0.2,0.3,0.5
		c6.8,11.6,16.5,21.3,28.1,28.1c0.3,0.2,0.5,0.3,0.8,0.5c0.1,0.1,0.2,0.1,0.3,0.2c0.1,0.1,0.2,0.1,0.3,0.2c0.1,0,0.1,0.1,0.2,0.1
		l0,0l0,0c0.5,0.3,0.9,0.5,1.4,0.8c9.6,5.2,20.3,8.4,31.7,9.3c1.6,0.1,3.3,0.2,4.9,0.2h0.1c0.1,0,0.1,0,0.2,0c0.3,0,0.5,0,0.8,0
		c0.1,0,0.1,0,0.2,0c-2.3-3.9-4.2-8.1-5.8-12.5c-3.1-8.5-4.8-17.7-4.8-27.4c0-9.5,1.7-18.7,4.7-27.1c1.6-4.4,3.6-8.7,5.9-12.7
		c0.9-1.6,1.9-3.2,2.9-4.7l0,0c6.7-9.9,15.6-18.3,25.9-24.3c11.7-6.9,25.3-10.8,39.9-10.8h0.2L203.2,43.6z"/>
	<path class="st8" d="M143.2,177.5c-23.7-9.2-77.8-41.9-77.8-41.9V116c0,0,15.8,39.3,67.4,44C132.7,160,137.8,169.6,143.2,177.5z"/>
	<linearGradient id="SVGID_3_" gradientUnits="userSpaceOnUse" x1="195.4592" y1="211.068" x2="60.4592" y2="130.068">
		<stop  offset="0" style="stop-color:#5152A1"/>
		<stop  offset="1" style="stop-color:#007BC2"/>
	</linearGradient>
	<path class="st10" d="M65.4,124v53.3v18.4c0,0,0,0,0,0.1c-0.1,0.7-0.4,5.8,1.1,12.7c0.3,1.2,0.6,2.4,1,3.7c0.1,0.4,0.2,0.8,0.4,1.1
		c0.1,0.4,0.3,0.8,0.4,1.2s0.3,0.8,0.4,1.2c0.2,0.4,0.3,0.8,0.5,1.2s0.3,0.8,0.5,1.2c0.3,0.6,0.6,1.3,0.9,1.9
		c0.2,0.4,0.4,0.7,0.6,1.1c0.1,0.2,0.3,0.5,0.4,0.8s0.3,0.5,0.5,0.8c0.2,0.4,0.5,0.7,0.7,1.1l0,0c0.5,0.8,1,1.5,1.5,2.3
		c4.1,5.8,9.3,10.4,15.2,13.7c13.5,7.7,30.4,9,44.2,3.5c1.9-0.7,3.7-1.6,5.5-2.7l0,0l64.3-37.1l0,0c0,0,0.1-0.2,0.3-0.6
		c6.6-11.7,10.2-24.9,10.3-38.4c0-0.3,0-0.6,0-0.9c0-0.1,0-0.2,0-0.3s0-0.2,0-0.3s0-0.2,0-0.3l0,0l0,0c0-0.5,0-1.1,0-1.6
		c-0.3-10.9-2.9-21.8-7.8-32.1c-0.7-1.5-1.5-2.9-2.3-4.3v-0.1c0-0.1-0.1-0.1-0.1-0.2c-0.1-0.2-0.3-0.5-0.4-0.7
		c0-0.1-0.1-0.1-0.1-0.2c-2.3,4-4.9,7.7-7.9,11.3c-5.8,7-13,13-21.3,17.9c-8.3,4.8-17,7.9-25.9,9.5c-4.6,0.8-9.3,1.2-14,1.2
		c-1.8,0-3.7-0.1-5.5-0.2l0,0c-12-0.8-23.6-4.4-34-10.3c-11.8-6.7-22-16.6-29.3-29.1l-0.1-0.2V124z"/>
	<path class="st8" d="M203.5,203.5c0,0,24.5-39.2-0.1-79.7c0,0-1.4,2.4-2.4,3.9c0,0,22.9,32.5-1.8,78.3L203.5,203.5z"/>
	
		<linearGradient id="SVGID_4_" gradientUnits="userSpaceOnUse" x1="0" y1="126.3509" x2="98.3822" y2="126.3509" gradientTransform="matrix(1 0 0 -1 0 250)">
		<stop  offset="0" style="stop-color:#5152A1"/>
		<stop  offset="1" style="stop-color:#007BC2"/>
	</linearGradient>
	<path class="st11" d="M49.2,198V49.2c0-16.6,10.1-33.3,25.1-42.3C81.4,2.6,89.6,0,98.4,0H49.2c0,0-1.4-0.1-3.8,0.2
		c-0.3,0-0.6,0-0.9,0.1c0,0,0,0-0.1,0l0,0l0,0c-0.2,0-0.4,0-0.6,0.1c-0.3,0-0.7,0.1-1.1,0.2c-3.9,0.6-7.6,1.6-11.1,3.1
		c-0.1,0-0.2,0.1-0.3,0.1h-0.1c-0.3,0.1-0.6,0.3-0.9,0.4c-0.1,0.1-0.3,0.1-0.4,0.2C25.7,6.3,21.2,9,17,12.9
		c-0.2,0.2-0.4,0.3-0.6,0.5S16,13.8,15.8,14l-0.1,0.1l-0.1,0.1C6,23.6,0,36.4,0,49.2V198c0,0,0,0.7,0,1.9c0.5,12.9,6,24.6,14.6,33.1
		c0,0,0,0,0.1,0.1c4.9,4.9,10.1,8,15.1,10.1c0.3,0.1,0.6,0.2,0.9,0.4c0.2,0.1,0.5,0.2,0.7,0.3c2.7,1.1,5.5,1.9,8.5,2.5
		c5.6,1.1,9.5,0.9,9.5,0.9h49.2c-9,0-17.4-2.4-24.6-6.6C59.1,232.1,49.2,216.2,49.2,198z"/>
</g>
</svg>
