<?xml version="1.0" encoding="utf-8"?>
<!-- Generator: Adobe Illustrator 22.1.0, SVG Export Plug-In . SVG Version: 6.00 Build 0)  -->
<svg version="1.1" id="Guides" xmlns="http://www.w3.org/2000/svg" xmlns:xlink="http://www.w3.org/1999/xlink" x="0px" y="0px"
	 viewBox="0 0 291.9 247.2" style="enable-background:new 0 0 291.9 247.2;" xml:space="preserve">
<style type="text/css">
	.st0{fill:none;stroke:#000000;stroke-width:0.25;}
	.st1{fill:none;}
	.st2{display:none;fill:#303838;}
	.st3{fill:none;stroke:#000000;}
	.st4{fill:url(#SVGID_1_);}
	.st5{opacity:0.3;enable-background:new    ;}
	.st6{fill:url(#SVGID_2_);}
	.st7{fill:url(#SVGID_3_);}
	.st8{fill:url(#SVGID_4_);}
</style>
<g>
	<circle class="st0" cx="-330.9" cy="-316.9" r="128.8"/>
	<circle class="st0" cx="-122.5" cy="-366.1" r="79.6"/>
	<circle class="st0" cx="-92" cy="-237.3" r="49.2"/>
	<circle class="st0" cx="-171.7" cy="-218.5" r="30.5"/>
	<circle class="st0" cx="-183.4" cy="-267.7" r="18.7"/>
	<circle class="st0" cx="-152.9" cy="-274.8" r="11.7"/>
	<circle class="st0" cx="-148.2" cy="-256" r="7"/>
	<circle class="st0" cx="-162.3" cy="-260.7" r="2.3"/>
	<circle class="st0" cx="-157.6" cy="-260.7" r="2.3"/>
	<circle class="st1" cx="-160" cy="-253.7" r="4.7"/>
	<circle class="st0" cx="-160" cy="-253.7" r="4.7"/>
</g>
<rect x="180.1" y="-52.2" class="st2" width="233.2" height="464.1"/>
<g>
	<circle class="st3" cx="-323.9" cy="83.7" r="79.6"/>
	<circle class="st3" cx="-254.8" cy="123.5" r="79.6"/>
	<circle class="st3" cx="-323.9" cy="163.3" r="79.6"/>
	<circle class="st3" cx="-343.7" cy="49.2" r="49.2"/>
	<circle class="st3" cx="-215.2" cy="123.5" r="49.2"/>
	<circle class="st3" cx="-343.7" cy="198" r="49.2"/>
	<line class="st3" x1="-392.9" y1="203.2" x2="-392.9" y2="43.9"/>
	<line class="st3" x1="-323.7" y1="243" x2="-185.8" y2="163.3"/>
	<line class="st3" x1="-185.8" y1="83.7" x2="-323.7" y2="4.1"/>
	<g>
		<circle class="st3" cx="-409.1" cy="49.2" r="49.2"/>
		<circle class="st3" cx="-359.9" cy="49.2" r="49.2"/>
		<circle class="st3" cx="-409.1" cy="198" r="49.2"/>
		<circle class="st3" cx="-359.9" cy="198" r="49.2"/>
		<line class="st3" x1="-458.3" y1="49.2" x2="-458.3" y2="198"/>
		<line class="st3" x1="-409.1" y1="49.2" x2="-409.1" y2="198"/>
		<line class="st3" x1="-360.2" y1="247.2" x2="-409.4" y2="247.2"/>
		<line class="st3" x1="-361.4" y1="0.1" x2="-410.6" y2="0.1"/>
	</g>
</g>
<g>
	<linearGradient id="SVGID_1_" gradientUnits="userSpaceOnUse" x1="213.5373" y1="45.0317" x2="213.0373" y2="203.5317">
		<stop  offset="0" style="stop-color:#3E2F8C"/>
		<stop  offset="1" style="stop-color:#007BB8"/>
	</linearGradient>
	<path class="st4" d="M203.6,203.4l46.2-26.8l16-9.2c0,0,0,0,0.1,0c0.6-0.3,5.3-2.5,10.5-7.3c0.9-0.8,1.8-1.7,2.8-2.7
		c0.3-0.3,0.5-0.6,0.8-0.9c0.3-0.3,0.6-0.6,0.8-0.9c0.3-0.3,0.5-0.6,0.8-1c0.3-0.3,0.5-0.7,0.8-1s0.5-0.7,0.8-1
		c0.4-0.6,0.8-1.1,1.2-1.7c0.2-0.3,0.4-0.7,0.7-1c0.1-0.2,0.3-0.5,0.4-0.7c0.2-0.3,0.3-0.5,0.5-0.8c0.2-0.4,0.4-0.8,0.6-1.2l0,0
		c0.4-0.8,0.8-1.6,1.2-2.5c3-6.4,4.3-13.2,4.3-20c-0.1-15.5-7.4-30.9-19-40c-1.6-1.3-3.3-2.4-5.1-3.5l0,0l-64.3-37.1l0,0
		c0,0-0.2,0-0.6,0c-13.4,0.1-26.7,3.7-38.4,10.2c-0.3,0.1-0.5,0.3-0.8,0.4c-0.1,0-0.2,0.1-0.3,0.2c-0.1,0.1-0.2,0.1-0.3,0.2
		c-0.1,0-0.2,0.1-0.2,0.1l0,0l0,0c-0.5,0.3-0.9,0.5-1.4,0.8c-9.3,5.7-17.4,13.4-23.9,22.8c-0.9,1.3-1.8,2.7-2.6,4.1V83
		c0,0.1-0.1,0.1-0.1,0.2c-0.1,0.2-0.3,0.5-0.4,0.7c0,0.1-0.1,0.1-0.1,0.2c4.6,0,9.2,0.4,13.7,1.2c9,1.6,17.8,4.7,26.1,9.5
		c8.2,4.8,15.3,10.8,21.1,17.7c3,3.6,5.7,7.4,8,11.5c0.9,1.6,1.8,3.2,2.6,4.9l0,0c5.3,10.8,8,22.6,8.1,34.6
		c0.1,13.6-3.3,27.3-10.6,40v0.3L203.6,203.4z"/>
	<path class="st5" d="M209.2,47.2c0,0-40.9-5.6-70.7,36.7c0,0-18.1-1.1-30.6,1.7c19.6-12.4,68.7-57.3,68.7-57.3L209.2,47.2z"/>
	<linearGradient id="SVGID_2_" gradientUnits="userSpaceOnUse" x1="60.1986" y1="114.6489" x2="199.0651" y2="36.2243">
		<stop  offset="0" style="stop-color:#5152A1"/>
		<stop  offset="1" style="stop-color:#007BC2"/>
	</linearGradient>
	<path class="st6" d="M203.2,43.6L157,17l-16-9.2c0,0,0,0-0.1,0c-0.6-0.4-4.8-3.3-11.5-5.4c-1.2-0.4-2.4-0.7-3.7-1
		c-0.4-0.1-0.8-0.2-1.2-0.3c-0.4-0.1-0.8-0.2-1.2-0.2c-0.4-0.1-0.8-0.1-1.2-0.2c-0.4-0.1-0.8-0.1-1.2-0.2c-0.4-0.1-0.8-0.1-1.3-0.1
		c-0.7-0.1-1.4-0.1-2.1-0.2c-0.4,0-0.8,0-1.2-0.1c-0.3,0-0.6,0-0.9,0s-0.6,0-0.9,0c-0.4,0-0.9,0-1.3,0l0,0c-0.9,0-1.8,0.1-2.8,0.2
		c-7,0.6-13.6,2.9-19.5,6.3c-13.4,7.9-23,21.8-25.2,36.5c-0.3,2-0.5,4.1-0.5,6.1l0,0v74.3l0,0c0,0,0.1,0.2,0.3,0.5
		c6.8,11.6,16.5,21.3,28.1,28.1c0.3,0.2,0.5,0.3,0.8,0.5c0.1,0.1,0.2,0.1,0.3,0.2c0.1,0.1,0.2,0.1,0.3,0.2c0.1,0,0.1,0.1,0.2,0.1
		l0,0l0,0c0.5,0.3,0.9,0.5,1.4,0.8c9.6,5.2,20.3,8.4,31.7,9.3c1.6,0.1,3.3,0.2,4.9,0.2h0.1c0.1,0,0.1,0,0.2,0c0.3,0,0.5,0,0.8,0
		c0.1,0,0.1,0,0.2,0c-2.3-3.9-4.2-8.1-5.8-12.5c-3.1-8.5-4.8-17.7-4.8-27.4c0-9.5,1.7-18.7,4.7-27.1c1.6-4.4,3.6-8.7,5.9-12.7
		c0.9-1.6,1.9-3.2,2.9-4.7l0,0c6.7-9.9,15.6-18.3,25.9-24.3c11.7-6.9,25.3-10.8,39.9-10.8h0.2L203.2,43.6z"/>
	<path class="st5" d="M143.2,177.5c-23.7-9.2-77.8-41.9-77.8-41.9V116c0,0,15.8,39.3,67.4,44C132.7,160,137.8,169.6,143.2,177.5z"/>
	<linearGradient id="SVGID_3_" gradientUnits="userSpaceOnUse" x1="195.4592" y1="211.068" x2="60.4592" y2="130.068">
		<stop  offset="0" style="stop-color:#5152A1"/>
		<stop  offset="1" style="stop-color:#007BC2"/>
	</linearGradient>
	<path class="st7" d="M65.4,124v53.3v18.4c0,0,0,0,0,0.1c-0.1,0.7-0.4,5.8,1.1,12.7c0.3,1.2,0.6,2.4,1,3.7c0.1,0.4,0.2,0.8,0.4,1.1
		c0.1,0.4,0.3,0.8,0.4,1.2s0.3,0.8,0.4,1.2c0.2,0.4,0.3,0.8,0.5,1.2s0.3,0.8,0.5,1.2c0.3,0.6,0.6,1.3,0.9,1.9
		c0.2,0.4,0.4,0.7,0.6,1.1c0.1,0.2,0.3,0.5,0.4,0.8s0.3,0.5,0.5,0.8c0.2,0.4,0.5,0.7,0.7,1.1l0,0c0.5,0.8,1,1.5,1.5,2.3
		c4.1,5.8,9.3,10.4,15.2,13.7c13.5,7.7,30.4,9,44.2,3.5c1.9-0.7,3.7-1.6,5.5-2.7l0,0l64.3-37.1l0,0c0,0,0.1-0.2,0.3-0.6
		c6.6-11.7,10.2-24.9,10.3-38.4c0-0.3,0-0.6,0-0.9c0-0.1,0-0.2,0-0.3s0-0.2,0-0.3s0-0.2,0-0.3l0,0l0,0c0-0.5,0-1.1,0-1.6
		c-0.3-10.9-2.9-21.8-7.8-32.1c-0.7-1.5-1.5-2.9-2.3-4.3v-0.1c0-0.1-0.1-0.1-0.1-0.2c-0.1-0.2-0.3-0.5-0.4-0.7
		c0-0.1-0.1-0.1-0.1-0.2c-2.3,4-4.9,7.7-7.9,11.3c-5.8,7-13,13-21.3,17.9c-8.3,4.8-17,7.9-25.9,9.5c-4.6,0.8-9.3,1.2-14,1.2
		c-1.8,0-3.7-0.1-5.5-0.2l0,0c-12-0.8-23.6-4.4-34-10.3c-11.8-6.7-22-16.6-29.3-29.1l-0.1-0.2V124z"/>
	<path class="st5" d="M203.5,203.5c0,0,24.5-39.2-0.1-79.7c0,0-1.4,2.4-2.4,3.9c0,0,22.9,32.5-1.8,78.3L203.5,203.5z"/>
	
		<linearGradient id="SVGID_4_" gradientUnits="userSpaceOnUse" x1="0" y1="126.3509" x2="98.3822" y2="126.3509" gradientTransform="matrix(1 0 0 -1 0 250)">
		<stop  offset="0" style="stop-color:#5152A1"/>
		<stop  offset="1" style="stop-color:#007BC2"/>
	</linearGradient>
	<path class="st8" d="M49.2,198V49.2c0-16.6,10.1-33.3,25.1-42.3C81.4,2.6,89.6,0,98.4,0H49.2c0,0-1.4-0.1-3.8,0.2
		c-0.3,0-0.6,0-0.9,0.1c0,0,0,0-0.1,0l0,0l0,0c-0.2,0-0.4,0-0.6,0.1c-0.3,0-0.7,0.1-1.1,0.2c-3.9,0.6-7.6,1.6-11.1,3.1
		c-0.1,0-0.2,0.1-0.3,0.1h-0.1c-0.3,0.1-0.6,0.3-0.9,0.4c-0.1,0.1-0.3,0.1-0.4,0.2C25.7,6.3,21.2,9,17,12.9
		c-0.2,0.2-0.4,0.3-0.6,0.5S16,13.8,15.8,14l-0.1,0.1l-0.1,0.1C6,23.6,0,36.4,0,49.2V198c0,0,0,0.7,0,1.9c0.5,12.9,6,24.6,14.6,33.1
		c0,0,0,0,0.1,0.1c4.9,4.9,10.1,8,15.1,10.1c0.3,0.1,0.6,0.2,0.9,0.4c0.2,0.1,0.5,0.2,0.7,0.3c2.7,1.1,5.5,1.9,8.5,2.5
		c5.6,1.1,9.5,0.9,9.5,0.9h49.2c-9,0-17.4-2.4-24.6-6.6C59.1,232.1,49.2,216.2,49.2,198z"/>
</g>
<text transform="matrix(1 0 0 1 28.5252 282.2418)" style="font-family:'MyriadPro-Regular'; font-size:12px;">3e2f8c - 007bb8</text>
</svg>
