<?xml version="1.0" encoding="utf-8"?>
<!-- Generator: Adobe Illustrator 22.1.0, SVG Export Plug-In . SVG Version: 6.00 Build 0)  -->
<svg version="1.1" id="Guides" xmlns="http://www.w3.org/2000/svg" xmlns:xlink="http://www.w3.org/1999/xlink" x="0px" y="0px"
	 viewBox="0 0 7.8 14.3" style="enable-background:new 0 0 7.8 14.3;" xml:space="preserve">
<style type="text/css">
	.st0{fill:none;stroke:#000000;stroke-width:0.25;}
	.st1{fill:none;}
	.st2{display:none;fill:#212121;}
	.st3{fill:none;stroke:#000000;}
	.st4{fill:url(#SVGID_1_);}
	.st5{opacity:0.3;}
	.st6{fill:url(#SVGID_2_);}
	.st7{fill:url(#SVGID_3_);}
	.st8{fill:url(#SVGID_4_);}
	.st9{fill:#FFFFFF;}
</style>
<g>
	<circle class="st0" cx="-213.8" cy="-625.1" r="128.8"/>
	<circle class="st0" cx="-5.3" cy="-674.3" r="79.6"/>
	<circle class="st0" cx="25.2" cy="-545.4" r="49.2"/>
	<circle class="st0" cx="-54.5" cy="-526.7" r="30.5"/>
	<circle class="st0" cx="-66.2" cy="-575.9" r="18.7"/>
	<circle class="st0" cx="-35.7" cy="-582.9" r="11.7"/>
	<circle class="st0" cx="-31.1" cy="-564.2" r="7"/>
	<circle class="st0" cx="-45.1" cy="-568.9" r="2.3"/>
	<circle class="st0" cx="-40.4" cy="-568.9" r="2.3"/>
	<circle class="st1" cx="-42.8" cy="-561.8" r="4.7"/>
	<circle class="st0" cx="-42.8" cy="-561.8" r="4.7"/>
</g>
<rect x="297.3" y="-360.3" class="st2" width="233.2" height="464.1"/>
<g>
	<circle class="st3" cx="-206.8" cy="-224.5" r="79.6"/>
	<circle class="st3" cx="-137.6" cy="-184.6" r="79.6"/>
	<circle class="st3" cx="-206.8" cy="-144.8" r="79.6"/>
	<circle class="st3" cx="-226.6" cy="-258.9" r="49.2"/>
	<circle class="st3" cx="-98" cy="-184.6" r="49.2"/>
	<circle class="st3" cx="-226.6" cy="-110.2" r="49.2"/>
	<line class="st3" x1="-275.7" y1="-105" x2="-275.7" y2="-264.3"/>
	<line class="st3" x1="-206.5" y1="-65.2" x2="-68.6" y2="-144.8"/>
	<line class="st3" x1="-68.6" y1="-224.5" x2="-206.5" y2="-304.1"/>
	<g>
		<circle class="st3" cx="-291.9" cy="-258.9" r="49.2"/>
		<circle class="st3" cx="-242.7" cy="-258.9" r="49.2"/>
		<circle class="st3" cx="-291.9" cy="-110.2" r="49.2"/>
		<circle class="st3" cx="-242.7" cy="-110.2" r="49.2"/>
		<line class="st3" x1="-341.1" y1="-258.9" x2="-341.1" y2="-110.2"/>
		<line class="st3" x1="-291.9" y1="-258.9" x2="-291.9" y2="-110.2"/>
		<line class="st3" x1="-243" y1="-61" x2="-292.2" y2="-61"/>
		<line class="st3" x1="-244.2" y1="-308.1" x2="-293.4" y2="-308.1"/>
	</g>
</g>
<linearGradient id="SVGID_1_" gradientUnits="userSpaceOnUse" x1="251.6" y1="-184.5028" x2="409.1113" y2="-184.5028">
	<stop  offset="0" style="stop-color:#200077"/>
	<stop  offset="1" style="stop-color:#2460A9"/>
</linearGradient>
<path class="st4" d="M320.8-104.8l46.2-26.8l16-9.2c0,0,0,0,0.1,0c0.6-0.3,5.3-2.5,10.5-7.3c0.9-0.8,1.8-1.7,2.8-2.7
	c0.3-0.3,0.5-0.6,0.8-0.9c0.3-0.3,0.6-0.6,0.8-0.9c0.3-0.3,0.5-0.6,0.8-1c0.3-0.3,0.5-0.7,0.8-1c0.3-0.3,0.5-0.7,0.8-1
	c0.4-0.6,0.8-1.1,1.2-1.7c0.2-0.3,0.4-0.7,0.7-1c0.1-0.2,0.3-0.5,0.4-0.7c0.2-0.3,0.3-0.5,0.5-0.8c0.2-0.4,0.4-0.8,0.6-1.2
	c0,0,0,0,0,0c0.4-0.8,0.8-1.6,1.2-2.5c3-6.4,4.3-13.2,4.3-20c-0.1-15.5-7.4-30.9-19-40c-1.6-1.3-3.3-2.4-5.1-3.5c0,0,0,0,0,0
	l-64.3-37.1h0c0,0-0.2,0-0.6,0c-13.4,0.1-26.7,3.7-38.4,10.2c-0.3,0.1-0.5,0.3-0.8,0.4c-0.1,0-0.2,0.1-0.3,0.2
	c-0.1,0.1-0.2,0.1-0.3,0.2c-0.1,0-0.2,0.1-0.2,0.1c0,0,0,0,0,0l0,0c-0.5,0.3-0.9,0.5-1.4,0.8c-9.3,5.7-17.4,13.4-23.9,22.8
	c-0.9,1.3-1.8,2.7-2.6,4.1c0,0,0,0.1,0,0.1c0,0.1-0.1,0.1-0.1,0.2c-0.1,0.2-0.3,0.5-0.4,0.7c0,0.1-0.1,0.1-0.1,0.2
	c4.6,0,9.2,0.4,13.7,1.2c9,1.6,17.8,4.7,26.1,9.5c8.2,4.8,15.3,10.8,21.1,17.7c3,3.6,5.7,7.4,8,11.5c0.9,1.6,1.8,3.2,2.6,4.9h0
	c5.3,10.8,8,22.6,8.1,34.6c0.1,13.6-3.3,27.3-10.6,40l0,0.3L320.8-104.8z"/>
<path class="st5" d="M326.4-261c0,0-40.9-5.6-70.7,36.7c0,0-18.1-1.1-30.6,1.7c19.6-12.4,68.7-57.3,68.7-57.3L326.4-261z"/>
<linearGradient id="SVGID_2_" gradientUnits="userSpaceOnUse" x1="182.5157" y1="-226.52" x2="320.6843" y2="-226.52">
	<stop  offset="0" style="stop-color:#3D298E"/>
	<stop  offset="1" style="stop-color:#2460A9"/>
</linearGradient>
<path class="st6" d="M320.4-264.5l-46.2-26.7l-16-9.2c0,0,0,0-0.1,0c-0.6-0.4-4.8-3.3-11.5-5.4c-1.2-0.4-2.4-0.7-3.7-1
	c-0.4-0.1-0.8-0.2-1.2-0.3c-0.4-0.1-0.8-0.2-1.2-0.2c-0.4-0.1-0.8-0.1-1.2-0.2c-0.4-0.1-0.8-0.1-1.2-0.2c-0.4-0.1-0.8-0.1-1.3-0.1
	c-0.7-0.1-1.4-0.1-2.1-0.2c-0.4,0-0.8,0-1.2-0.1c-0.3,0-0.6,0-0.9,0c-0.3,0-0.6,0-0.9,0c-0.4,0-0.9,0-1.3,0c0,0,0,0,0,0
	c-0.9,0-1.8,0.1-2.8,0.2c-7,0.6-13.6,2.9-19.5,6.3c-13.4,7.9-23,21.8-25.2,36.5c-0.3,2-0.5,4.1-0.5,6.1c0,0,0,0,0,0l0,74.3l0,0
	c0,0,0.1,0.2,0.3,0.5c6.8,11.6,16.5,21.3,28.1,28.1c0.3,0.2,0.5,0.3,0.8,0.5c0.1,0.1,0.2,0.1,0.3,0.2c0.1,0.1,0.2,0.1,0.3,0.2
	c0.1,0,0.1,0.1,0.2,0.1c0,0,0,0,0,0l0,0c0.5,0.3,0.9,0.5,1.4,0.8c9.6,5.2,20.3,8.4,31.7,9.3c1.6,0.1,3.3,0.2,4.9,0.2
	c0,0,0.1,0,0.1,0c0.1,0,0.1,0,0.2,0c0.3,0,0.5,0,0.8,0c0.1,0,0.1,0,0.2,0c-2.3-3.9-4.2-8.1-5.8-12.5c-3.1-8.5-4.8-17.7-4.8-27.4
	c0-9.5,1.7-18.7,4.7-27.1c1.6-4.4,3.6-8.7,5.9-12.7c0.9-1.6,1.9-3.2,2.9-4.7l0,0c6.7-9.9,15.6-18.3,25.9-24.3
	c11.7-6.9,25.3-10.8,39.9-10.8l0.2,0L320.4-264.5z"/>
<path class="st5" d="M260.4-130.7c-23.7-9.2-77.8-41.9-77.8-41.9l0-19.6c0,0,15.8,39.3,67.4,44C249.9-148.2,255-138.6,260.4-130.7z"
	/>
<linearGradient id="SVGID_3_" gradientUnits="userSpaceOnUse" x1="277.1301" y1="-117.7838" x2="415.2987" y2="-117.7838" gradientTransform="matrix(-0.5 -0.866 0.866 -0.5 525.0178 97.3105)">
	<stop  offset="0" style="stop-color:#3D298E"/>
	<stop  offset="1" style="stop-color:#2460A9"/>
</linearGradient>
<path class="st7" d="M182.6-184.2l0,53.3l0,18.4c0,0,0,0,0,0.1c-0.1,0.7-0.4,5.8,1.1,12.7c0.3,1.2,0.6,2.4,1,3.7
	c0.1,0.4,0.2,0.8,0.4,1.1c0.1,0.4,0.3,0.8,0.4,1.2c0.1,0.4,0.3,0.8,0.4,1.2c0.2,0.4,0.3,0.8,0.5,1.2c0.2,0.4,0.3,0.8,0.5,1.2
	c0.3,0.6,0.6,1.3,0.9,1.9c0.2,0.4,0.4,0.7,0.6,1.1c0.1,0.2,0.3,0.5,0.4,0.8c0.1,0.3,0.3,0.5,0.5,0.8c0.2,0.4,0.5,0.7,0.7,1.1
	c0,0,0,0,0,0c0.5,0.8,1,1.5,1.5,2.3c4.1,5.8,9.3,10.4,15.2,13.7c13.5,7.7,30.4,9,44.2,3.5c1.9-0.7,3.7-1.6,5.5-2.7c0,0,0,0,0,0
	l64.3-37.1l0,0c0,0,0.1-0.2,0.3-0.6c6.6-11.7,10.2-24.9,10.3-38.4c0-0.3,0-0.6,0-0.9c0-0.1,0-0.2,0-0.3c0-0.1,0-0.2,0-0.3
	c0-0.1,0-0.2,0-0.3c0,0,0,0,0,0l0,0c0-0.5,0-1.1,0-1.6c-0.3-10.9-2.9-21.8-7.8-32.1c-0.7-1.5-1.5-2.9-2.3-4.3c0,0,0-0.1,0-0.1
	c0-0.1-0.1-0.1-0.1-0.2c-0.1-0.2-0.3-0.5-0.4-0.7c0-0.1-0.1-0.1-0.1-0.2c-2.3,4-4.9,7.7-7.9,11.3c-5.8,7-13,13-21.3,17.9
	c-8.3,4.8-17,7.9-25.9,9.5c-4.6,0.8-9.3,1.2-14,1.2c-1.8,0-3.7-0.1-5.5-0.2l0,0c-12-0.8-23.6-4.4-34-10.3
	c-11.8-6.7-22-16.6-29.3-29.1l-0.1-0.2L182.6-184.2z"/>
<path class="st5" d="M320.7-104.7c0,0,24.5-39.2-0.1-79.7c0,0-1.4,2.4-2.4,3.9c0,0,22.9,32.5-1.8,78.3L320.7-104.7z"/>
<linearGradient id="SVGID_4_" gradientUnits="userSpaceOnUse" x1="117.1878" y1="-184.5416" x2="215.57" y2="-184.5416">
	<stop  offset="0" style="stop-color:#3D298E"/>
	<stop  offset="1" style="stop-color:#2460A9"/>
</linearGradient>
<path class="st8" d="M166.4-110.2v-148.8c0-16.6,10.1-33.3,25.1-42.3c7.1-4.3,15.3-6.9,24.1-6.9h-49.2c0,0-1.4-0.1-3.8,0.2
	c-0.3,0-0.6,0-0.9,0.1c0,0,0,0-0.1,0h0c0,0,0,0,0,0c-0.2,0-0.4,0-0.6,0.1c-0.3,0-0.7,0.1-1.1,0.2c-3.9,0.6-7.6,1.6-11.1,3.1
	c-0.1,0-0.2,0.1-0.3,0.1c0,0-0.1,0-0.1,0c-0.3,0.1-0.6,0.3-0.9,0.4c-0.1,0.1-0.3,0.1-0.4,0.2c-4.2,1.9-8.7,4.6-12.9,8.6
	c-0.2,0.2-0.4,0.3-0.6,0.5c-0.2,0.2-0.4,0.4-0.6,0.6c0,0-0.1,0.1-0.1,0.1c0,0-0.1,0.1-0.1,0.1c-9.6,9.4-15.6,22.2-15.6,35v148.8
	c0,0,0,0.7,0,1.9c0.5,12.9,6,24.6,14.6,33.1c0,0,0,0,0.1,0.1c4.9,4.9,10.1,8,15.1,10.1c0.3,0.1,0.6,0.2,0.9,0.4
	c0.2,0.1,0.5,0.2,0.7,0.3c2.7,1.1,5.5,1.9,8.5,2.5c5.6,1.1,9.5,0.9,9.5,0.9h49.2c-9,0-17.4-2.4-24.6-6.6
	C176.3-76.1,166.4-92,166.4-110.2z"/>
<text transform="matrix(1 0 0 1 145.713 -25.92)" style="font-family:'MyriadPro-Regular'; font-size:12px;">3e2f8c - 007bb8</text>
<g>
	<polygon class="st9" points="7.4,9.6 4.4,13 3.9,13.6 3.9,0 4.4,1.4 4.4,12.3 7,9.3 	"/>
	<polygon class="st9" points="7.8,9.9 4.4,13.8 3.9,14.3 3.4,13.8 3.4,0 4.4,0 4.4,12.3 7,9.3 7.4,9.6 	"/>
</g>
<g>
	<polygon class="st9" points="3.9,0 3.9,13.6 3.4,13 0.4,9.6 0.8,9.3 3.4,12.3 3.4,1.4 	"/>
	<polygon class="st9" points="4.4,0 4.4,13.8 3.9,14.3 3.4,13.8 0,9.9 0.4,9.6 0.8,9.3 3.4,12.3 3.4,0 	"/>
</g>
</svg>
