<?xml version="1.0" encoding="utf-8"?>
<!-- Generator: Adobe Illustrator 22.1.0, SVG Export Plug-In . SVG Version: 6.00 Build 0)  -->
<svg version="1.1" id="Layer_1" xmlns="http://www.w3.org/2000/svg" xmlns:xlink="http://www.w3.org/1999/xlink" x="0px" y="0px"
	 viewBox="0 0 291.1 199.7" style="enable-background:new 0 0 291.1 199.7;" xml:space="preserve">
<style type="text/css">
	.st0{fill:#3A3A3A;}
	.st1{fill:#FAFAFA;}
	.st2{fill:#333333;}
	.st3{fill:#2B2B2B;}
	.st4{fill:none;stroke:#2060A1;stroke-width:6;stroke-miterlimit:10;}
	.st5{fill:#2060A1;}
	.st6{opacity:0.5;fill:#2060A1;enable-background:new    ;}
	.st7{fill:none;stroke:#2060A1;stroke-width:2;stroke-miterlimit:10;}
	.st8{fill:#EC5F5F;}
	.st9{fill:#D8D8D8;}
	.st10{fill:#A09F9F;}
	.st11{fill:#E8E8E8;}
	.st12{fill:#007BB8;}
	.st13{fill:none;stroke:#EC5F5F;stroke-width:2;stroke-miterlimit:10;}
	.st14{fill:#ED5F5F;}
	.st15{fill:none;stroke:#2060A1;stroke-width:12;stroke-miterlimit:10;}
</style>
<g id="Ecommerce">
	<g id="Laptop">
		<path class="st0" d="M291.1-191.8H-3.4v-181.5c0-4.1,3.4-7.5,7.5-7.5h280c4.1,0,7.5,3.4,7.5,7.5v181
			C291.6-192.1,291.4-191.8,291.1-191.8z"/>
		<path class="st1" d="M279-199.3H9.3c-2.7,0-4.8-2.2-4.8-4.8v-164.3c0-2.7,2.2-4.8,4.8-4.8H279c2.7,0,4.8,2.2,4.8,4.8v164.3
			C283.8-201.5,281.6-199.3,279-199.3z"/>
		<path class="st2" d="M144.1-193.9H-40.5c0,9.3,12.3,12.6,12.3,12.6h172.3h172.3c0,0,12.3-3.3,12.3-12.6H144.1z"/>
	</g>
	<g id="Phone">
		<path class="st3" d="M10.5-181.3h-63.8c-4.3,0-7.8-3.5-7.8-7.8v-128.8c0-4.3,3.5-7.8,7.8-7.8h63.8c4.3,0,7.8,3.5,7.8,7.8v128.8
			C18.3-184.8,14.8-181.3,10.5-181.3z"/>
		<path class="st1" d="M11.1-185.7H-54c-2.2,0-4-1.8-4-4v-127.5c0-2.2,1.8-4,4-4h65.1c2.2,0,4,1.8,4,4v127.5
			C15.1-187.5,13.3-185.7,11.1-185.7z"/>
		<path class="st3" d="M-36.9-321.2c0,0,0.2,4.8,5.9,4.8s14.8,0,19.2,0s5.8-4.8,5.8-4.8H-36.9z"/>
		<circle class="st1" cx="-31" cy="-318.8" r="1.4"/>
	</g>
	<g id="Cart_1_">
		<line class="st4" x1="117.5" y1="-310.3" x2="205.1" y2="-310.3"/>
		<line class="st4" x1="123.3" y1="-295.2" x2="198.6" y2="-295.2"/>
		<line class="st4" x1="179.3" y1="-325.7" x2="170.4" y2="-279.8"/>
		<polyline class="st4" points="71.9,-325.7 96.5,-325.7 125.6,-266.3 191.5,-266.3 		"/>
		<circle class="st5" cx="141.8" cy="-247.2" r="10"/>
		<circle class="st5" cx="181.5" cy="-247.2" r="10"/>
		<polygon class="st4" points="111.6,-325.7 133.7,-279.8 190.4,-279.8 210.4,-325.7 		"/>
		<line class="st4" x1="145" y1="-325.7" x2="153.9" y2="-279.8"/>
		<ellipse class="st6" cx="143.4" cy="-230.8" rx="71.5" ry="1"/>
	</g>
	<g id="Bag">
		<path class="st5" d="M-1.9-238.9c-0.6-5.4-2-24.7-2.4-26.2c-0.5-1.8-2.5-2.2-2.5-2.2h-13.5l0,0H-34c0,0-2,0.4-2.5,2.2
			c-0.5,1.5-2,21.5-2.4,26.2c-0.1,1.1,0.6,2.8,1.9,2.8c1.3,0,15.8,0,16.6,0l0,0c0.8,0,15.4,0,16.6,0C-2.4-236.1-1.8-237.8-1.9-238.9
			z"/>
		<path class="st7" d="M-28.4-266c0,0,0.8-10.1,7.7-10.1s8.3,10.1,8.3,10.1"/>
		<path class="st8" d="M-27.3-265.6c0,0-0.3,0.7-1,0.7s-1-0.7-1-0.7"/>
		<circle class="st1" cx="-28.4" cy="-264.5" r="1.4"/>
		<circle class="st5" cx="-28.4" cy="-265.1" r="1.1"/>
		<circle class="st1" cx="-12.4" cy="-264.5" r="1.4"/>
		<circle class="st5" cx="-12.4" cy="-265.1" r="1.1"/>
		<ellipse class="st6" cx="-20.4" cy="-231.8" rx="18.5" ry="1"/>
	</g>
</g>
<g id="Web_Dev">
	<rect x="1144.3" y="-206.3" class="st9" width="44.9" height="19.3"/>
	<rect x="1144.3" y="-219.1" class="st10" width="44.9" height="19.3"/>
	<path class="st2" d="M1297.6-228.3h-261.7V-375c0-2.8,2.3-5,5-5h251.7c2.8,0,5,2.3,5,5L1297.6-228.3L1297.6-228.3z"/>
	<path class="st5" d="M1290.9-234.2h-248.3c-0.3,0-0.5-0.2-0.5-0.5v-136.1c0-1.8,1.5-3.2,3.2-3.2h242.9c1.8,0,3.2,1.5,3.2,3.2v136.1
		C1291.5-234.4,1291.2-234.2,1290.9-234.2z"/>
	<path class="st9" d="M1292-205.7h-250.9c-2.9,0-5.2-2.3-5.2-5.2v-17.5h261.7v17C1297.6-208.2,1295.1-205.7,1292-205.7z"/>
	<path class="st11" d="M1193.9-182.9l-4.7-5.2h-22.4h-22.4l-4.7,5.2c0,0-0.3,2,1.2,2s26,0,26,0s24.4,0,26,0
		C1194.2-180.9,1193.9-182.9,1193.9-182.9z"/>
	<path class="st1" d="M1167.4-213L1167.4-213c-2.5,0-4.5-2-4.5-4.5l0,0c0-2.5,2-4.5,4.5-4.5l0,0c2.5,0,4.5,2,4.5,4.5l0,0
		C1171.9-215.1,1169.9-213,1167.4-213z"/>
	<path class="st1" d="M1070.4-366.5v91.6h47.2v-4.2H1074v-69h120.5v33.3h3.6v-51.6L1070.4-366.5L1070.4-366.5z"/>
	<path class="st1" d="M1116.5-333.3v91.6h140.7v-91.6H1116.5z M1253.2-245.9h-132.7v-69h132.7V-245.9z"/>
	<circle class="st5" cx="1176.4" cy="-357.4" r="2.3"/>
	<circle class="st5" cx="1192" cy="-357.4" r="2.3"/>
	<circle class="st5" cx="1184.2" cy="-357.4" r="2.3"/>
	<circle class="st5" cx="1235.2" cy="-324.6" r="2.3"/>
	<circle class="st5" cx="1250.8" cy="-324.6" r="2.3"/>
	<circle class="st5" cx="1243" cy="-324.6" r="2.3"/>
	<polygon class="st1" points="1162.8,-299.7 1145.2,-280.1 1162.2,-261 1171.3,-261 1154.1,-280.2 1171.5,-299.6 	"/>
	<polygon class="st1" points="1190.3,-299.7 1174.3,-261.1 1183.4,-261.1 1198.9,-299.7 	"/>
	<polygon class="st1" points="1210.3,-299.7 1227.9,-280.1 1210.9,-261 1201.8,-261 1219,-280.2 1201.6,-299.6 	"/>
</g>
<g id="UXUI">
	<g>
		<path class="st5" d="M720.2-269.7c0,0,61.5-124.5,87.2-109.5s-64.3,122.9-64.3,122.9s-3.7,2.8-14.5-3.5
			C718-266.1,720.2-269.7,720.2-269.7z"/>
	</g>
	<g>
		<path class="st5" d="M716.5-263.5c0,0,3.3,9.1,22.2,12.9c0,0-7.4,10.2-15.9,10.1c0,0,14.4,16.7-7.3,27.8s-42.6,8.6-42.6,8.6
			s9.6-6.6,7.5-12.2c-2.1-5.6,5.6-42.3,30.2-31.5C710.6-247.7,712.1-254.9,716.5-263.5z"/>
	</g>
	<g id="Web_1_">
		<g id="Web">
			<rect x="553.3" y="-316.3" class="st2" width="59.9" height="85"/>
			<rect x="553.3" y="-223.6" class="st2" width="59.9" height="42.7"/>
		</g>
		<g>
			<path class="st2" d="M732.5-223.6c-1.7,6.4-6.7,11.7-14.8,15.9c-17.2,8.9-33.8,10.3-42.9,10.3c-4.1,0-6.6-0.3-6.9-0.3l-9.9-1.2
				l8.2-5.6c3.5-2.4,7.8-7,7-9.1c-0.8-2-0.8-5.6-0.1-9.8h-51.7v42.7h128v-42.7h-16.9V-223.6z"/>
		</g>
		<g>
			<path class="st2" d="M726.6-292.6H621.3v13.9h98.1C721.1-282,723.5-286.8,726.6-292.6z"/>
		</g>
		<g>
			<path class="st2" d="M739.8-316.3H621.3v13.9H732C734.4-306.7,737-311.4,739.8-316.3z"/>
		</g>
		<path class="st2" d="M749.5-332.6v-47.5H553.3v56.1h191C746-326.9,747.7-329.7,749.5-332.6z"/>
		<g>
			<path class="st2" d="M739.4-245.2c-2.4,2.2-5.6,4.4-9.1,5.7c1.1,2.2,2.2,5,2.7,8.2h16.5v-13.9H739.4z"/>
			<path class="st2" d="M681.7-245.2h-60.4v13.9H675C676.5-236.1,678.7-241.1,681.7-245.2z"/>
		</g>
		<g>
			<path class="st2" d="M708-255.2c1-3.3,2.7-8.2,5.5-13.7h-92.3v13.9h72.6C697.7-256.4,702.4-256.8,708-255.2z"/>
		</g>
	</g>
</g>
<g id="Android">
	<path class="st12" d="M242.2,102.1V77.8h-16.6c-1.6-6.7-4.3-12.9-7.9-18.5l11.2-11.2L211.8,31l-11.2,11.2c-6.3-4.1-13.4-7-21-8.4
		V19.4h-24.3v14.9c-7.3,1.7-14,4.8-20,9l-11-11l-17.2,17.2l11.6,11.6c-3.5,5.8-6,12.2-7.3,19.1H94.9v24.3h17
		c1.6,6.7,4.3,12.9,7.9,18.5l-11.3,11.3l17.2,17.2l11.3-11.3c5.9,3.8,12.5,6.6,19.7,8.2v15.2H181v-15.2c7.4-1.6,14.2-4.5,20.3-8.6
		l10.6,10.6l17.2-17.2l-10.8-10.8c3.9-6.1,6.6-12.9,8-20.3C226.3,102.1,242.2,102.1,242.2,102.1z M169,53
		c20.7,0,37.4,16.8,37.4,37.4s-16.8,37.4-37.4,37.4s-37.4-16.8-37.4-37.4S148.3,53,169,53z"/>
	<path class="st2" d="M285.9,198.3H170.1c-2.9,0-5.2-2.3-5.2-5.2V5.2c0-2.9,2.3-5.2,5.2-5.2h115.8c2.9,0,5.2,2.3,5.2,5.2v187.9
		C291.1,196,288.8,198.3,285.9,198.3z"/>
	<path class="st1" d="M281,192.4H175c-2.9,0-5.2-2.3-5.2-5.2V11c0-2.9,2.3-5.2,5.2-5.2h106c2.9,0,5.2,2.3,5.2,5.2v176.2
		C286.2,190.1,283.8,192.4,281,192.4z"/>
	<g id="Android_1_">
		<g>
			<path class="st12" d="M215.5,60.4c0,0-4.8-8.3-4.9-8.6c-0.2-0.3,0.2-0.8,0.5-0.9c0.3-0.2,1-0.2,1.2,0c0.1,0.2,4.9,8.6,4.9,8.6
				L215.5,60.4z"/>
		</g>
		<path class="st13" d="M244.5,51.4"/>
		<path class="st13" d="M239.6,59.9"/>
		<g>
			<path class="st12" d="M240.6,60.4c0,0,4.8-8.3,4.9-8.6c0.2-0.3-0.2-0.8-0.5-0.9c-0.3-0.2-1-0.2-1.2,0c-0.1,0.2-4.9,8.6-4.9,8.6
				L240.6,60.4z"/>
		</g>
		<g>
			<path class="st12" d="M251.5,82.8h-47.3c-1.2,0-2.2,1-2.2,2.2v40.6c0,1.2,1,2.2,2.2,2.2h8v-1.6h11.6v1.6h8.2v-1.6h11.6v1.6h7.8
				c1.2,0,2.2-1,2.2-2.2V85C253.7,83.8,252.7,82.8,251.5,82.8z"/>
			<path class="st12" d="M212.3,142.7c0-3.2,2.6-5.8,5.8-5.8s5.8,2.6,5.8,5.8v-14.9h-11.6V142.7z"/>
			<rect x="212.3" y="126.2" class="st12" width="11.6" height="1.6"/>
			<path class="st12" d="M218.1,148.5c3.2,0,5.8-2.6,5.8-5.8h-11.6C212.3,145.9,214.9,148.5,218.1,148.5z"/>
			<path class="st12" d="M218.1,136.9c-3.2,0-5.8,2.6-5.8,5.8h11.6C223.9,139.5,221.3,136.9,218.1,136.9z"/>
			<path class="st12" d="M232.1,142.7c0-3.2,2.6-5.8,5.8-5.8s5.8,2.6,5.8,5.8v-14.9h-11.6V142.7z"/>
			<rect x="232.1" y="126.2" class="st12" width="11.6" height="1.6"/>
			<path class="st12" d="M237.9,148.5c3.2,0,5.8-2.6,5.8-5.8h-11.6C232.1,145.9,234.7,148.5,237.9,148.5z"/>
			<path class="st12" d="M237.9,136.9c-3.2,0-5.8,2.6-5.8,5.8h11.6C243.7,139.5,241.1,136.9,237.9,136.9z"/>
		</g>
		<path class="st12" d="M193.1,82.8c-3.2,0-5.8,2.6-5.8,5.8v6.9v9.6v6.9c0,3.2,2.6,5.8,5.8,5.8s5.8-2.6,5.8-5.8v-6.9v-9.6v-6.9
			C198.9,85.4,196.3,82.8,193.1,82.8z"/>
		<path class="st12" d="M262.9,82.8c-3.2,0-5.8,2.6-5.8,5.8v6.9v9.6v6.9c0,3.2,2.6,5.8,5.8,5.8c3.2,0,5.8-2.6,5.8-5.8v-6.9v-9.6
			v-6.9C268.7,85.4,266.1,82.8,262.9,82.8z"/>
		<path class="st12" d="M253.7,79.7H202c0-11.5,11.6-23,25.9-23S253.3,68.2,253.7,79.7z"/>
		<circle class="st1" cx="240.1" cy="68.6" r="2.4"/>
		<circle class="st1" cx="216" cy="68.6" r="2.4"/>
		<path class="st12" d="M110.1,160.5V145H99.5c-1-4.3-2.7-8.2-5-11.8l7.2-7.2l-11-10.9l-7.2,7.2c-4-2.6-8.5-4.5-13.4-5.4v-9.2H54.6
			v9.5c-4.6,1.1-9,3.1-12.7,5.7l-7-7l-10.9,11l7.4,7.4c-2.2,3.7-3.8,7.8-4.7,12.2H16.2V162h10.9c1,4.3,2.7,8.2,5,11.8l-7.2,7.2
			l11,10.9l7.2-7.2c3.8,2.4,8,4.2,12.6,5.2v9.7h15.5v-9.7c4.7-1,9.1-2.9,12.9-5.5l6.8,6.8l10.9-11l-6.9-6.9
			c2.5-3.9,4.2-8.3,5.1-12.9L110.1,160.5z M63.3,129.2c13.2,0,23.9,10.7,23.9,23.9S76.5,177,63.3,177s-23.9-10.7-23.9-23.9
			C39.4,139.9,50.1,129.2,63.3,129.2z"/>
		<path class="st12" d="M58.5,68.4l-3.9-9L48.5,62c-1.6-2.2-3.6-4.1-5.9-5.6l2.4-5.9l-9.1-3.6l-2.4,5.9c-3-0.5-6.1-0.5-9.1,0.2
			l-2.3-5.3l-9,3.9l2.4,5.5c-2.4,1.8-4.4,4-6,6.5l-5.9-2.3L0,70.4l6.2,2.5c-0.4,2.7-0.3,5.5,0.3,8.3l-6.1,2.6l3.9,9l6.3-2.7
			c1.6,2.2,3.6,4.1,5.9,5.6l-2.4,6l9.1,3.6l2.4-6c2.8,0.5,5.7,0.5,8.6-0.1l2.4,5.6l9-3.9l-2.4-5.6c2.5-1.8,4.6-3.9,6.2-6.4l5.6,2.2
			l3.6-9.1l-5.7-2.3c0.5-2.9,0.4-5.9-0.3-8.8L58.5,68.4z M23.5,61.8c7.7-3.3,16.6,0.2,19.9,7.9c3.3,7.7-0.2,16.6-7.9,19.9
			s-16.6-0.2-19.9-7.9S15.8,65.1,23.5,61.8z"/>
	</g>
</g>
<g id="CRM">
	<g>
		<path class="st5" d="M698,80.6c0,0-1.8,0.2-4.4,1.6c0.5,1.5,0.8,3.1,0.8,4.7c0,3.2-1,6.2-2.8,8.7c5.4,3,12.9,10.7,15.1,29.6
			c15.7-0.5,21.8-5.8,21.8-5.8c-0.2-37-18.3-38.8-18.4-38.8c3.3-2,5.5-5.7,5.5-9.9c0-6.4-5.2-11.6-11.6-11.6
			c-6.4,0-11.6,5.2-11.6,11.6c0,2.9,1.1,5.6,2.8,7.6C696.1,79.2,697,80,698,80.6z"/>
		<path class="st14" d="M685.4,100l-0.6-0.1l0.1,0.1h-3c-1.4,5-2.2,11.4-2.3,19.4c0,0,5.8,5,20.6,5.7c-1.3-10.9-4.6-17-7.4-20.3
			C689.2,100.6,685.6,100.1,685.4,100z"/>
		<path class="st14" d="M688,87.2c-1.4,1.8-2.8,4.1-4.1,6.9L684,94C686.4,92.6,687.9,90,688,87.2z"/>
		<path class="st14" d="M675.3,94.1c-1.2-2.9-2.6-5.1-4-6.9c0.1,1.9,0.8,3.8,2,5.2C673.9,93.1,674.5,93.6,675.3,94.1L675.3,94.1z"/>
		<path class="st5" d="M662,100.2c1.9-2.1,3.9-3.6,5.6-4.5c-1.8-2.5-2.8-5.5-2.8-8.7c0-1.7,0.3-3.2,0.8-4.7
			c-2.5-1.4-4.3-1.6-4.4-1.6c3.3-2,5.5-5.7,5.5-9.9c0-6.4-5.2-11.6-11.6-11.6c-6.4,0-11.6,5.2-11.6,11.6c0,2.9,1.1,5.6,2.8,7.6
			c0.8,0.9,1.7,1.7,2.7,2.3c0,0-18.2,1.7-18.4,38.8c0,0,6.1,5.3,21.8,5.8C653.8,114.2,656.9,105.8,662,100.2z"/>
		<path class="st14" d="M666.4,104.9c-2.8,3.3-6.1,9.4-7.4,20.3c14.8-0.8,20.6-5.7,20.6-5.7c0-8-0.9-14.4-2.3-19.4h-3.6
			C673.1,100.2,669.8,100.9,666.4,104.9z"/>
		<path class="st5" d="M685.7,96.8c3.3-2,5.5-5.7,5.5-9.9c0-6.4-5.2-11.6-11.6-11.6c-6.4,0-11.6,5.2-11.6,11.6
			c0,2.9,1.1,5.6,2.8,7.6c0.8,0.9,1.7,1.7,2.7,2.3c0,0-18.2,1.7-18.4,38.8c0,0,6.8,5.8,24.4,5.8c17.7,0,24.4-5.8,24.4-5.8
			C703.8,98.6,685.8,96.8,685.7,96.8z"/>
	</g>
	<g>
		<path class="st2" d="M760.8,135.8l-19.8,7.1c-20.9,29.1-60.7,39.2-93.3,22c-11.9-6.3-21.4-15.4-28-26.1l-6.7,17.1l-18.5-7.3
			c9.1,16.5,22.9,30.6,40.8,40c46.7,24.5,104.2,8.3,131.4-36L760.8,135.8z"/>
		<path class="st2" d="M715.7,35.5c32.9,17.3,47.2,56.3,34.4,90.3l18.6-6.5l5.9,17.1C792.7,89.8,773.3,35.8,728,12
			c-10.5-5.7-21.7-9.2-33-10.7L680.7,15l12.4,13C700.8,29.2,708.4,31.7,715.7,35.5z"/>
		<path class="st2" d="M605.6,139l6.5-16.4c-5.8-18.1-4.7-38.3,4.8-56.4c11.9-22.6,34-36.4,57.7-38.7l-12.3-12.9l14.7-14
			c-34.2,1.7-66.6,20.8-83.6,53.2c-13.1,24.9-14.6,52.9-6.4,77.7L605.6,139z"/>
	</g>
</g>
<g id="IOT">
	<g>
		<path class="st2" d="M1258.1,200.6h-193.4v-0.5c-14.6-1.8-28.2-8.5-38.6-19.2c-12.1-12.3-18.7-28.6-18.7-45.9
			c0-30.6,21.5-57.2,50.9-63.9c2.7-18.6,11.7-35.7,25.6-48.5c15.3-14.2,35.2-22,56.1-22c28.3,0,54.7,14.7,69.8,38.5
			c23.5,3,43.4,19,51.5,41.2c31.8,1.6,57.2,28,57.2,60.2C1318.4,173.6,1291.4,200.6,1258.1,200.6z M1073.2,186.8h184.9
			c25.6,0,46.4-20.8,46.4-46.4S1283.7,94,1258.1,94c-0.5,0-1.1,0-1.6,0l-5.6,0.2l-1.4-5.3c-5.5-20.3-23.4-35-44.4-36.4l-3.7-0.3
			l-1.8-3.2c-12.2-21.4-35.1-34.7-59.7-34.7c-35.5,0-65.6,27.7-68.5,63.1L1071,83l-5.5,0.8c-25.3,3.6-44.3,25.7-44.3,51.2
			c0,27.9,22.7,51.1,50.6,51.7L1073.2,186.8z"/>
	</g>
	<circle class="st15" cx="1067.4" cy="147.1" r="18.5"/>
	<circle class="st15" cx="1133.4" cy="66" r="26.5"/>
	<path class="st15" d="M1260.7,0.5c31.8,0,57.6,25.8,57.6,57.6"/>
	<path class="st15" d="M1260.7,21c20.5,0,37.2,16.7,37.2,37.2"/>
	<path class="st15" d="M1260.7,41.4c9.3,0,16.8,7.5,16.8,16.8"/>
	<circle class="st15" cx="1159.8" cy="138.9" r="13.6"/>
	<circle class="st15" cx="1253.4" cy="143.5" r="24.2"/>
	<line class="st15" x1="1085.9" y1="147.1" x2="1146.2" y2="138.9"/>
	<line class="st15" x1="1173.4" y1="138.9" x2="1229.2" y2="143"/>
	<line class="st15" x1="1154.6" y1="123.2" x2="1141.8" y2="91.1"/>
</g>
</svg>
