<?xml version="1.0" encoding="utf-8"?>
<!-- Generator: Adobe Illustrator 22.1.0, SVG Export Plug-In . SVG Version: 6.00 Build 0)  -->
<svg version="1.1" id="Layer_1" xmlns="http://www.w3.org/2000/svg" xmlns:xlink="http://www.w3.org/1999/xlink" x="0px" y="0px"
	 viewBox="0 0 199.5 199.4" style="enable-background:new 0 0 199.5 199.4;" xml:space="preserve">
<style type="text/css">
	.st0{fill:#3A3A3A;}
	.st1{fill:#FAFAFA;}
	.st2{fill:#333333;}
	.st3{fill:#2B2B2B;}
	.st4{fill:none;stroke:#2060A1;stroke-width:6;stroke-miterlimit:10;}
	.st5{fill:#2060A1;}
	.st6{opacity:0.5;fill:#2060A1;enable-background:new    ;}
	.st7{fill:none;stroke:#2060A1;stroke-width:2;stroke-miterlimit:10;}
	.st8{fill:#EC5F5F;}
	.st9{fill:#D8D8D8;}
	.st10{fill:#A09F9F;}
	.st11{fill:#E8E8E8;}
	.st12{fill:none;stroke:#EC5F5F;stroke-width:2;stroke-miterlimit:10;}
	.st13{fill:#007BB8;}
	.st14{fill:#ED5F5F;}
	.st15{fill:none;stroke:#2060A1;stroke-width:12;stroke-miterlimit:10;}
</style>
<g id="Ecommerce">
	<g id="Laptop">
		<path class="st0" d="M-290.8-192.4h-294.5v-181.5c0-4.1,3.4-7.5,7.5-7.5h280c4.1,0,7.5,3.4,7.5,7.5v181
			C-290.3-192.6-290.5-192.4-290.8-192.4z"/>
		<path class="st1" d="M-303-199.9h-269.7c-2.7,0-4.8-2.2-4.8-4.8V-369c0-2.7,2.2-4.8,4.8-4.8H-303c2.7,0,4.8,2.2,4.8,4.8v164.3
			C-298.1-202.1-300.3-199.9-303-199.9z"/>
		<path class="st2" d="M-437.8-194.5h-184.6c0,9.3,12.3,12.6,12.3,12.6h172.3h172.3c0,0,12.3-3.3,12.3-12.6H-437.8z"/>
	</g>
	<g id="Phone">
		<path class="st3" d="M-571.4-181.8h-63.8c-4.3,0-7.8-3.5-7.8-7.8v-128.8c0-4.3,3.5-7.8,7.8-7.8h63.8c4.3,0,7.8,3.5,7.8,7.8v128.8
			C-563.6-185.4-567.1-181.8-571.4-181.8z"/>
		<path class="st1" d="M-570.8-186.3h-65.1c-2.2,0-4-1.8-4-4v-127.5c0-2.2,1.8-4,4-4h65.1c2.2,0,4,1.8,4,4v127.5
			C-566.8-188.1-568.6-186.3-570.8-186.3z"/>
		<path class="st3" d="M-618.8-321.8c0,0,0.2,4.8,5.9,4.8c5.6,0,14.8,0,19.2,0s5.8-4.8,5.8-4.8H-618.8z"/>
		<circle class="st1" cx="-612.9" cy="-319.4" r="1.4"/>
	</g>
	<g id="Cart_1_">
		<line class="st4" x1="-464.5" y1="-310.8" x2="-376.9" y2="-310.8"/>
		<line class="st4" x1="-458.6" y1="-295.8" x2="-383.3" y2="-295.8"/>
		<line class="st4" x1="-402.6" y1="-326.3" x2="-411.5" y2="-280.4"/>
		<polyline class="st4" points="-510.1,-326.3 -485.4,-326.3 -456.3,-266.9 -390.4,-266.9 		"/>
		<circle class="st5" cx="-440.1" cy="-247.7" r="10"/>
		<circle class="st5" cx="-400.4" cy="-247.7" r="10"/>
		<polygon class="st4" points="-470.3,-326.3 -448.2,-280.4 -391.5,-280.4 -371.6,-326.3 		"/>
		<line class="st4" x1="-436.9" y1="-326.3" x2="-428" y2="-280.4"/>
		<ellipse class="st6" cx="-438.5" cy="-231.4" rx="71.5" ry="1"/>
	</g>
	<g id="Bag">
		<path class="st5" d="M-583.8-239.5c-0.6-5.4-2-24.7-2.4-26.2c-0.5-1.8-2.5-2.2-2.5-2.2h-13.5l0,0h-13.5c0,0-2,0.4-2.5,2.2
			c-0.5,1.5-2,21.5-2.4,26.2c-0.1,1.1,0.6,2.8,1.9,2.8c1.3,0,15.8,0,16.6,0l0,0c0.8,0,15.4,0,16.6,0
			C-584.4-236.7-583.7-238.4-583.8-239.5z"/>
		<path class="st7" d="M-610.3-266.6c0,0,0.8-10.1,7.7-10.1s8.3,10.1,8.3,10.1"/>
		<path class="st8" d="M-609.2-266.2c0,0-0.3,0.7-1,0.7c-0.8,0-1-0.7-1-0.7"/>
		<circle class="st1" cx="-610.3" cy="-265" r="1.4"/>
		<circle class="st5" cx="-610.3" cy="-265.7" r="1.1"/>
		<circle class="st1" cx="-594.3" cy="-265" r="1.4"/>
		<circle class="st5" cx="-594.3" cy="-265.7" r="1.1"/>
		<ellipse class="st6" cx="-602.3" cy="-232.4" rx="18.5" ry="1"/>
	</g>
</g>
<g id="Web_Dev">
	<rect x="562.4" y="-206.9" class="st9" width="44.9" height="19.3"/>
	<rect x="562.4" y="-219.6" class="st10" width="44.9" height="19.3"/>
	<path class="st2" d="M715.7-228.9H454v-146.7c0-2.8,2.3-5,5-5h251.7c2.8,0,5,2.3,5,5V-228.9z"/>
	<path class="st5" d="M709-234.7H460.7c-0.3,0-0.5-0.2-0.5-0.5v-136.1c0-1.8,1.5-3.2,3.2-3.2h242.9c1.8,0,3.2,1.5,3.2,3.2v136.1
		C709.5-235,709.3-234.7,709-234.7z"/>
	<path class="st9" d="M710.1-206.2H459.2c-2.9,0-5.2-2.3-5.2-5.2v-17.5h261.7v17C715.7-208.8,713.2-206.2,710.1-206.2z"/>
	<path class="st11" d="M612-183.5l-4.7-5.2h-22.4h-22.4l-4.7,5.2c0,0-0.3,2,1.2,2s26,0,26,0s24.4,0,26,0S612-183.5,612-183.5z"/>
	<path class="st1" d="M585.5-213.6L585.5-213.6c-2.5,0-4.5-2-4.5-4.5l0,0c0-2.5,2-4.5,4.5-4.5l0,0c2.5,0,4.5,2,4.5,4.5l0,0
		C590-215.6,587.9-213.6,585.5-213.6z"/>
	<path class="st1" d="M488.5-367.1v91.6h47.2v-4.2h-43.6v-69h120.5v33.3h3.6V-367L488.5-367.1L488.5-367.1z"/>
	<path class="st1" d="M534.6-333.9v91.6h140.7v-91.6H534.6z M671.3-246.5H538.6v-69h132.7V-246.5z"/>
	<circle class="st5" cx="594.5" cy="-358" r="2.3"/>
	<circle class="st5" cx="610.1" cy="-358" r="2.3"/>
	<circle class="st5" cx="602.3" cy="-358" r="2.3"/>
	<circle class="st5" cx="653.3" cy="-325.2" r="2.3"/>
	<circle class="st5" cx="668.9" cy="-325.2" r="2.3"/>
	<circle class="st5" cx="661.1" cy="-325.2" r="2.3"/>
	<polygon class="st1" points="580.9,-300.3 563.2,-280.7 580.3,-261.6 589.4,-261.6 572.2,-280.8 589.6,-300.1 	"/>
	<polygon class="st1" points="608.3,-300.3 592.4,-261.6 601.5,-261.6 617,-300.3 	"/>
	<polygon class="st1" points="628.4,-300.3 646,-280.7 629,-261.6 619.9,-261.6 637.1,-280.8 619.7,-300.1 	"/>
</g>
<g id="UXUI">
	<g>
		<path class="st5" d="M138.3-270.3c0,0,61.5-124.5,87.2-109.5s-64.3,122.9-64.3,122.9s-3.7,2.8-14.5-3.5
			C136-266.7,138.3-270.3,138.3-270.3z"/>
	</g>
	<g>
		<path class="st5" d="M134.6-264c0,0,3.3,9.1,22.2,12.9c0,0-7.4,10.2-15.9,10.1c0,0,14.4,16.7-7.3,27.8S91-204.6,91-204.6
			s9.6-6.6,7.5-12.2c-2.1-5.6,5.6-42.3,30.2-31.5C128.7-248.3,130.2-255.4,134.6-264z"/>
	</g>
	<g id="Web_1_">
		<g id="Web">
			<rect x="-28.6" y="-316.9" class="st2" width="59.9" height="85"/>
			<rect x="-28.6" y="-224.2" class="st2" width="59.9" height="42.7"/>
		</g>
		<g>
			<path class="st2" d="M150.6-224.2c-1.7,6.4-6.7,11.7-14.8,15.9C118.6-199.5,102-198,93-198c-4.1,0-6.6-0.3-6.9-0.3l-9.9-1.2
				l8.2-5.6c3.5-2.4,7.8-7,7-9.1c-0.8-2-0.8-5.6-0.1-9.8H39.6v42.7h128V-224h-17V-224.2z"/>
		</g>
		<g>
			<path class="st2" d="M144.7-293.2H39.4v13.9h98.1C139.1-282.6,141.6-287.4,144.7-293.2z"/>
		</g>
		<g>
			<path class="st2" d="M157.9-316.9H39.4v13.9h110.7C152.5-307.3,155.1-312,157.9-316.9z"/>
		</g>
		<path class="st2" d="M167.6-333.2v-47.5H-28.6v56.1h191C164.1-327.4,165.8-330.3,167.6-333.2z"/>
		<g>
			<path class="st2" d="M157.5-245.8c-2.4,2.2-5.6,4.4-9.1,5.7c1.1,2.2,2.2,5,2.7,8.2h16.5v-13.9H157.5z"/>
			<path class="st2" d="M99.8-245.8H39.4v13.9h53.7C94.6-236.7,96.8-241.7,99.8-245.8z"/>
		</g>
		<g>
			<path class="st2" d="M126.1-255.8c1-3.3,2.7-8.2,5.5-13.7H39.4v13.9H112C115.8-257,120.5-257.4,126.1-255.8z"/>
		</g>
	</g>
</g>
<g id="Android">
	<path class="st5" d="M-339.7,101.5V77.2h-16.6c-1.6-6.7-4.3-12.9-7.9-18.5l11.2-11.2l-17.2-17.2l-11.2,11.2c-6.3-4.1-13.4-7-21-8.4
		V18.9h-24.3v14.9c-7.3,1.7-14,4.8-20,9l-11-11L-474.9,49l11.6,11.6c-3.5,5.8-6,12.2-7.3,19.1H-487V104h17
		c1.6,6.7,4.3,12.9,7.9,18.5l-11.3,11.3l17.2,17.2l11.3-11.3c5.9,3.8,12.5,6.6,19.7,8.2v15.2h24.3v-15.2c7.4-1.6,14.2-4.5,20.3-8.6
		l10.6,10.6l17.2-17.2l-10.8-10.8c3.9-6.1,6.6-12.9,8-20.3L-339.7,101.5L-339.7,101.5z M-412.9,52.4c20.7,0,37.4,16.8,37.4,37.4
		s-16.8,37.4-37.4,37.4c-20.7,0-37.4-16.8-37.4-37.4S-433.6,52.4-412.9,52.4z"/>
	<path class="st2" d="M-296,197.7h-115.8c-2.9,0-5.2-2.3-5.2-5.2V4.6c0-2.9,2.3-5.2,5.2-5.2H-296c2.9,0,5.2,2.3,5.2,5.2v187.9
		C-290.8,195.4-293.2,197.7-296,197.7z"/>
	<path class="st1" d="M-300.9,191.9h-105.9c-2.9,0-5.2-2.3-5.2-5.2V10.5c0-2.9,2.3-5.2,5.2-5.2h105.9c2.9,0,5.2,2.3,5.2,5.2v176.2
		C-295.8,189.5-298.1,191.9-300.9,191.9z"/>
	<g id="Android_1_">
		<g>
			<path class="st5" d="M-366.5,59.8c0,0-4.8-8.3-4.9-8.6s0.2-0.8,0.5-0.9c0.3-0.2,1-0.2,1.2,0s4.9,8.6,4.9,8.6L-366.5,59.8z"/>
		</g>
		<path class="st12" d="M-337.4,50.8"/>
		<path class="st12" d="M-342.3,59.4"/>
		<g>
			<path class="st5" d="M-341.3,59.8c0,0,4.8-8.3,4.9-8.6s-0.2-0.8-0.5-0.9c-0.3-0.2-1-0.2-1.2,0c-0.1,0.2-4.9,8.6-4.9,8.6
				L-341.3,59.8z"/>
		</g>
		<g>
			<path class="st5" d="M-330.4,82.2h-47.3c-1.2,0-2.2,1-2.2,2.2V125c0,1.2,1,2.2,2.2,2.2h8v-1.6h11.6v1.6h8.2v-1.6h11.6v1.6h7.8
				c1.2,0,2.2-1,2.2-2.2V84.4C-328.2,83.2-329.2,82.2-330.4,82.2z"/>
			<path class="st5" d="M-369.7,142.1c0-3.2,2.6-5.8,5.8-5.8c3.2,0,5.8,2.6,5.8,5.8v-14.9h-11.6L-369.7,142.1L-369.7,142.1z"/>
			<rect x="-369.7" y="125.6" class="st5" width="11.6" height="1.6"/>
			<path class="st5" d="M-363.9,147.9c3.2,0,5.8-2.6,5.8-5.8h-11.6C-369.7,145.3-367.1,147.9-363.9,147.9z"/>
			<path class="st5" d="M-363.9,136.3c-3.2,0-5.8,2.6-5.8,5.8h11.6C-358,138.9-360.6,136.3-363.9,136.3z"/>
			<path class="st5" d="M-349.8,142.1c0-3.2,2.6-5.8,5.8-5.8c3.2,0,5.8,2.6,5.8,5.8v-14.9h-11.6L-349.8,142.1L-349.8,142.1z"/>
			<rect x="-349.8" y="125.6" class="st5" width="11.6" height="1.6"/>
			<path class="st5" d="M-344,147.9c3.2,0,5.8-2.6,5.8-5.8h-11.6C-349.8,145.3-347.2,147.9-344,147.9z"/>
			<path class="st5" d="M-344,136.3c-3.2,0-5.8,2.6-5.8,5.8h11.6C-338.2,138.9-340.8,136.3-344,136.3z"/>
		</g>
		<path class="st5" d="M-388.8,82.2c-3.2,0-5.8,2.6-5.8,5.8v6.9v9.6v6.9c0,3.2,2.6,5.8,5.8,5.8c3.2,0,5.8-2.6,5.8-5.8v-6.9v-9.6V88
			C-383,84.8-385.6,82.2-388.8,82.2z"/>
		<path class="st5" d="M-319,82.2c-3.2,0-5.8,2.6-5.8,5.8v6.9v9.6v6.9c0,3.2,2.6,5.8,5.8,5.8c3.2,0,5.8-2.6,5.8-5.8v-6.9v-9.6V88
			C-313.2,84.8-315.8,82.2-319,82.2z"/>
		<path class="st5" d="M-328.2,79.1h-51.7c0-11.5,11.6-23,25.9-23S-328.6,67.6-328.2,79.1z"/>
		<circle class="st1" cx="-341.8" cy="68" r="2.4"/>
		<circle class="st1" cx="-365.9" cy="68" r="2.4"/>
		<path class="st5" d="M-471.9,159.9v-15.5h-10.6c-1-4.3-2.7-8.2-5-11.8l7.2-7.2l-11-10.9l-7.2,7.2c-4-2.6-8.5-4.5-13.4-5.4v-9.2
			h-15.5v9.5c-4.6,1.1-9,3.1-12.7,5.7l-7-7l-10.9,11l7.4,7.4c-2.2,3.7-3.8,7.8-4.7,12.2h-10.5v15.5h10.9c1,4.3,2.7,8.2,5,11.8
			l-7.2,7.2l11,10.9l7.2-7.2c3.8,2.4,8,4.2,12.6,5.2v9.7h15.5v-9.7c4.7-1,9.1-2.9,12.9-5.5l6.8,6.8l10.9-11l-6.9-6.9
			c2.5-3.9,4.2-8.3,5.1-12.9L-471.9,159.9z M-518.6,128.6c13.2,0,23.9,10.7,23.9,23.9s-10.7,23.9-23.9,23.9
			c-13.2,0-23.9-10.7-23.9-23.9S-531.8,128.6-518.6,128.6z"/>
		<path class="st5" d="M-523.4,67.8l-3.9-9l-6.2,2.7c-1.6-2.2-3.6-4.1-5.9-5.6l2.4-5.9l-9.1-3.6l-2.4,5.9c-3-0.5-6.1-0.5-9.1,0.2
			l-2.3-5.3l-9,3.9l2.4,5.5c-2.4,1.8-4.4,4-6,6.5l-5.9-2.3l-3.6,9.1l6.2,2.5c-0.4,2.7-0.3,5.5,0.3,8.3l-6.1,2.6l3.9,9l6.3-2.7
			c1.6,2.2,3.6,4.1,5.9,5.6l-2.4,6l9.1,3.6l2.4-6c2.8,0.5,5.7,0.5,8.6-0.1l2.4,5.6l9-3.9l-2.4-5.6c2.5-1.8,4.6-3.9,6.2-6.4l5.6,2.2
			l3.6-9.1l-5.7-2.3c0.5-2.9,0.4-5.9-0.3-8.8L-523.4,67.8z M-558.4,61.2c7.7-3.3,16.6,0.2,19.9,7.9c3.3,7.7-0.2,16.6-7.9,19.9
			s-16.6-0.2-19.9-7.9C-569.6,73.4-566.1,64.5-558.4,61.2z"/>
	</g>
</g>
<g id="CRM">
	<g>
		<path class="st13" d="M116.1,80c0,0-1.8,0.2-4.4,1.6c0.5,1.5,0.8,3.1,0.8,4.7c0,3.2-1,6.2-2.8,8.7c5.4,3,12.9,10.7,15.1,29.6
			c15.7-0.5,21.8-5.8,21.8-5.8c-0.2-37-18.3-38.8-18.4-38.8c3.3-2,5.5-5.7,5.5-9.9c0-6.4-5.2-11.6-11.6-11.6s-11.6,5.2-11.6,11.6
			c0,2.9,1.1,5.6,2.8,7.6C114.2,78.7,115.1,79.4,116.1,80z"/>
		<path class="st14" d="M103.4,99.4l-0.6-0.1l0.1,0.1h-3c-1.4,5-2.2,11.4-2.3,19.4c0,0,5.8,5,20.6,5.7c-1.3-10.9-4.6-17-7.4-20.3
			C107.3,100.1,103.7,99.5,103.4,99.4z"/>
		<path class="st14" d="M106.1,86.6c-1.4,1.8-2.8,4.1-4.1,6.9l0.1-0.1C104.5,92,106,89.4,106.1,86.6z"/>
		<path class="st14" d="M93.4,93.6c-1.2-2.9-2.6-5.1-4-6.9c0.1,1.9,0.8,3.8,2,5.2C91.9,92.5,92.6,93.1,93.4,93.6L93.4,93.6z"/>
		<path class="st13" d="M80.1,99.6C82,97.5,84,96,85.7,95c-1.8-2.5-2.8-5.5-2.8-8.7c0-1.7,0.3-3.2,0.8-4.7c-2.5-1.4-4.3-1.6-4.4-1.6
			c3.3-2,5.5-5.7,5.5-9.9c0-6.4-5.2-11.6-11.6-11.6s-11.6,5.2-11.6,11.6c0,2.9,1.1,5.6,2.8,7.6c0.8,0.9,1.7,1.7,2.7,2.3
			c0,0-18.2,1.7-18.4,38.8c0,0,6.1,5.3,21.8,5.8C71.8,113.7,75,105.2,80.1,99.6z"/>
		<path class="st14" d="M84.5,104.3c-2.8,3.3-6.1,9.4-7.4,20.3c14.8-0.8,20.6-5.7,20.6-5.7c0-8-0.9-14.4-2.3-19.4h-3.6
			C91.2,99.6,87.9,100.4,84.5,104.3z"/>
		<path class="st13" d="M103.8,96.2c3.3-2,5.5-5.7,5.5-9.9c0-6.4-5.2-11.6-11.6-11.6S86.1,80,86.1,86.4c0,2.9,1.1,5.6,2.8,7.6
			c0.8,0.9,1.7,1.7,2.7,2.3c0,0-18.2,1.7-18.4,38.8c0,0,6.8,5.8,24.4,5.8s24.4-5.8,24.4-5.8C121.9,98,103.8,96.2,103.8,96.2z"/>
	</g>
	<g>
		<path class="st2" d="M178.9,135.2l-19.8,7.1c-20.9,29.1-60.7,39.2-93.3,22c-11.9-6.3-21.4-15.4-28-26.1L31,155.3L12.5,148
			c9.1,16.5,22.9,30.6,40.8,40c46.7,24.5,104.2,8.3,131.4-36L178.9,135.2z"/>
		<path class="st2" d="M133.8,34.9c32.9,17.3,47.2,56.3,34.4,90.3l18.6-6.5l5.9,17.1c18.1-46.6-1.3-100.6-46.6-124.4
			C135.5,5.8,124.3,2.3,113,0.8L98.7,14.4l12.4,13C118.9,28.7,126.5,31.1,133.8,34.9z"/>
		<path class="st2" d="M23.7,138.5l6.5-16.4C24.4,104,25.5,83.8,35,65.7C46.9,43.1,69,29.3,92.7,27L80.4,14L95.1,0
			C60.9,1.7,28.5,20.8,11.4,53.2C-1.7,78.1-3.2,106.1,5,130.9L23.7,138.5z"/>
	</g>
</g>
<g id="IOT">
	<g>
		<path class="st2" d="M676.2,200H482.8v-0.5c-14.6-1.8-28.2-8.5-38.6-19.2c-12.1-12.3-18.7-28.6-18.7-45.9
			c0-30.6,21.5-57.2,50.9-63.9c2.7-18.6,11.7-35.7,25.6-48.5c15.2-14.2,35.1-22,56-22c28.3,0,54.7,14.7,69.8,38.5
			c23.5,3,43.4,19,51.5,41.2c31.8,1.6,57.2,28,57.2,60.2C736.5,173,709.4,200,676.2,200z M491.3,186.2h184.9
			c25.6,0,46.4-20.8,46.4-46.4s-20.8-46.4-46.4-46.4c-0.5,0-1.1,0-1.6,0l-5.6,0.2l-1.4-5.3c-5.5-20.3-23.4-35-44.4-36.4l-3.7-0.3
			l-1.8-3.2C605.4,27,582.6,13.8,558,13.8c-35.5,0-65.6,27.7-68.5,63.1l-0.4,5.5l-5.5,0.8c-25.3,3.6-44.3,25.7-44.3,51.2
			c0,27.9,22.7,51.1,50.6,51.7L491.3,186.2z"/>
	</g>
	<circle class="st15" cx="485.5" cy="146.6" r="18.5"/>
	<circle class="st15" cx="551.4" cy="65.4" r="26.5"/>
	<path class="st15" d="M678.8,0c31.8,0,57.6,25.8,57.6,57.6"/>
	<path class="st15" d="M678.8,20.4c20.5,0,37.2,16.7,37.2,37.2"/>
	<path class="st15" d="M678.8,40.8c9.3,0,16.8,7.5,16.8,16.8"/>
	<circle class="st15" cx="577.9" cy="138.3" r="13.6"/>
	<circle class="st15" cx="671.5" cy="142.9" r="24.2"/>
	<line class="st15" x1="504" y1="146.6" x2="564.3" y2="138.3"/>
	<line class="st15" x1="591.5" y1="138.3" x2="647.3" y2="142.4"/>
	<line class="st15" x1="572.7" y1="122.6" x2="559.8" y2="90.5"/>
</g>
</svg>
