<?xml version="1.0" encoding="utf-8"?>
<!-- Generator: Adobe Illustrator 22.1.0, SVG Export Plug-In . SVG Version: 6.00 Build 0)  -->
<svg version="1.1" id="Layer_1" xmlns="http://www.w3.org/2000/svg" xmlns:xlink="http://www.w3.org/1999/xlink" x="0px" y="0px"
	 viewBox="0 0 389.9 199.6" style="enable-background:new 0 0 389.9 199.6;" xml:space="preserve">
<style type="text/css">
	.st0{fill:#3A3A3A;}
	.st1{fill:#FAFAFA;}
	.st2{fill:#333333;}
	.st3{fill:#2B2B2B;}
	.st4{fill:none;stroke:#007BB8;stroke-width:6;stroke-miterlimit:10;}
	.st5{fill:#007BB8;}
	.st6{opacity:0.5;fill:#007BB8;enable-background:new    ;}
	.st7{fill:none;stroke:#007BB8;stroke-width:2;stroke-miterlimit:10;}
	.st8{fill:#EC5F5F;}
	.st9{fill:#2060A1;}
	.st10{fill:#D8D8D8;}
	.st11{fill:#A09F9F;}
	.st12{fill:#E8E8E8;}
	.st13{fill:none;stroke:#EC5F5F;stroke-width:2;stroke-miterlimit:10;}
	.st14{fill:#ED5F5F;}
	.st15{fill:none;stroke:#2060A1;stroke-width:12;stroke-miterlimit:10;}
</style>
<g id="Ecommerce">
	<g id="Laptop">
		<path class="st0" d="M352.3,189H57.8V7.5c0-4.1,3.4-7.5,7.5-7.5h280c4.1,0,7.5,3.4,7.5,7.5v181C352.8,188.8,352.5,189,352.3,189z"
			/>
		<path class="st1" d="M340.1,181.5H70.4c-2.7,0-4.8-2.2-4.8-4.8V12.3c0-2.7,2.2-4.8,4.8-4.8h269.7c2.7,0,4.8,2.2,4.8,4.8v164.3
			C344.9,179.3,342.7,181.5,340.1,181.5z"/>
		<path class="st2" d="M205.3,186.9H20.6c0,9.3,12.3,12.6,12.3,12.6h172.3h172.3c0,0,12.3-3.3,12.3-12.6H205.3z"/>
	</g>
	<g id="Phone">
		<path class="st3" d="M71.6,199.6H7.8c-4.3,0-7.8-3.5-7.8-7.8V62.9c0-4.3,3.5-7.8,7.8-7.8h63.8c4.3,0,7.8,3.5,7.8,7.8v128.8
			C79.4,196.1,75.9,199.6,71.6,199.6z"/>
		<path class="st1" d="M72.3,195.1H7.2c-2.2,0-4-1.8-4-4V63.6c0-2.2,1.8-4,4-4h65.1c2.2,0,4,1.8,4,4v127.5
			C76.2,193.3,74.4,195.1,72.3,195.1z"/>
		<path class="st3" d="M24.3,59.6c0,0,0.2,4.8,5.9,4.8s14.8,0,19.2,0s5.8-4.8,5.8-4.8S24.3,59.6,24.3,59.6z"/>
		<circle class="st1" cx="30.1" cy="62" r="1.4"/>
	</g>
	<g id="Cart_1_">
		<line class="st4" x1="178.6" y1="70.6" x2="266.2" y2="70.6"/>
		<line class="st4" x1="184.5" y1="85.6" x2="259.8" y2="85.6"/>
		<line class="st4" x1="240.5" y1="55.1" x2="231.6" y2="101"/>
		<polyline class="st4" points="133,55.1 157.6,55.1 186.8,114.5 252.6,114.5 		"/>
		<circle class="st5" cx="202.9" cy="133.7" r="10"/>
		<circle class="st5" cx="242.6" cy="133.7" r="10"/>
		<polygon class="st4" points="172.7,55.1 194.9,101 251.5,101 271.5,55.1 		"/>
		<line class="st4" x1="206.2" y1="55.1" x2="215.1" y2="101"/>
		<ellipse class="st6" cx="204.5" cy="150" rx="71.5" ry="1"/>
	</g>
	<g id="Bag">
		<path class="st5" d="M59.2,141.9c-0.6-5.4-2-24.7-2.4-26.2c-0.5-1.8-2.5-2.2-2.5-2.2H40.7l0,0H27.1c0,0-2,0.4-2.5,2.2
			c-0.5,1.5-2,21.5-2.4,26.2c-0.1,1.1,0.6,2.8,1.9,2.8s15.8,0,16.6,0l0,0c0.8,0,15.4,0,16.6,0C58.7,144.7,59.4,143,59.2,141.9z"/>
		<path class="st7" d="M32.7,114.8c0,0,0.8-10.1,7.7-10.1s8.3,10.1,8.3,10.1"/>
		<path class="st8" d="M33.9,115.2c0,0-0.3,0.7-1,0.7s-1-0.7-1-0.7"/>
		<circle class="st1" cx="32.7" cy="116.4" r="1.4"/>
		<circle class="st9" cx="32.7" cy="115.7" r="1.1"/>
		<circle class="st1" cx="48.7" cy="116.4" r="1.4"/>
		<circle class="st9" cx="48.7" cy="115.7" r="1.1"/>
		<ellipse class="st6" cx="40.7" cy="149" rx="18.5" ry="1"/>
	</g>
</g>
<g id="Web_Dev">
	<rect x="1205.5" y="174.5" class="st10" width="44.9" height="19.3"/>
	<rect x="1205.5" y="161.8" class="st11" width="44.9" height="19.3"/>
	<path class="st2" d="M1358.8,152.6h-261.7V5.9c0-2.8,2.3-5,5-5h251.7c2.8,0,5,2.3,5,5V152.6z"/>
	<path class="st9" d="M1352.1,146.7h-248.3c-0.3,0-0.5-0.2-0.5-0.5V10c0-1.8,1.5-3.2,3.2-3.2h242.9c1.8,0,3.2,1.5,3.2,3.2v136.1
		C1352.6,146.4,1352.4,146.7,1352.1,146.7z"/>
	<path class="st10" d="M1353.1,175.2h-250.9c-2.9,0-5.2-2.3-5.2-5.2v-17.5h261.7v17C1358.8,172.6,1356.2,175.2,1353.1,175.2z"/>
	<path class="st12" d="M1255,197.9l-4.7-5.2h-22.4h-22.4l-4.7,5.2c0,0-0.3,2,1.2,2s26,0,26,0s24.4,0,26,0
		C1255.4,200,1255,197.9,1255,197.9z"/>
	<path class="st1" d="M1228.5,167.8L1228.5,167.8c-2.5,0-4.5-2-4.5-4.5l0,0c0-2.5,2-4.5,4.5-4.5l0,0c2.5,0,4.5,2,4.5,4.5l0,0
		C1233,165.8,1231,167.8,1228.5,167.8z"/>
	<path class="st1" d="M1131.5,14.3v91.6h47.2v-4.2h-43.6v-69h120.5V66h3.6V14.3H1131.5z"/>
	<path class="st1" d="M1177.6,47.6v91.6h140.7V47.6H1177.6z M1314.3,134.9h-132.7v-69h132.7V134.9z"/>
	<circle class="st9" cx="1237.5" cy="23.4" r="2.3"/>
	<circle class="st9" cx="1253.2" cy="23.4" r="2.3"/>
	<circle class="st9" cx="1245.3" cy="23.4" r="2.3"/>
	<circle class="st9" cx="1296.3" cy="56.2" r="2.3"/>
	<circle class="st9" cx="1312" cy="56.2" r="2.3"/>
	<circle class="st9" cx="1304.2" cy="56.2" r="2.3"/>
	<polygon class="st1" points="1224,81.1 1206.3,100.8 1223.3,119.8 1232.4,119.8 1215.3,100.6 1232.6,81.3 	"/>
	<polygon class="st1" points="1251.4,81.1 1235.5,119.8 1244.5,119.8 1260.1,81.1 	"/>
	<polygon class="st1" points="1271.4,81.1 1289.1,100.8 1272,119.8 1262.9,119.8 1280.1,100.6 1262.7,81.3 	"/>
</g>
<g id="UXUI">
	<g>
		<path class="st9" d="M781.3,111.1c0,0,61.5-124.5,87.2-109.5s-64.3,122.9-64.3,122.9s-3.7,2.8-14.5-3.5
			C779.1,114.7,781.3,111.1,781.3,111.1z"/>
	</g>
	<g>
		<path class="st9" d="M777.7,117.4c0,0,3.3,9.1,22.2,12.9c0,0-7.4,10.2-15.9,10.1c0,0,14.4,16.7-7.3,27.8
			c-21.7,11.2-42.6,8.6-42.6,8.6s9.6-6.6,7.5-12.2c-2.1-5.6,5.6-42.3,30.2-31.5C771.7,133.2,773.2,126,777.7,117.4z"/>
	</g>
	<g id="Web_1_">
		<g id="Web">
			<rect x="614.4" y="64.5" class="st2" width="59.9" height="85"/>
			<rect x="614.4" y="157.2" class="st2" width="59.9" height="42.7"/>
		</g>
		<g>
			<path class="st2" d="M793.7,157.2c-1.7,6.4-6.7,11.7-14.8,15.9c-17.2,8.9-33.8,10.3-42.9,10.3c-4.1,0-6.6-0.3-6.9-0.3l-9.9-1.2
				l8.2-5.6c3.5-2.4,7.8-7,7-9.1c-0.8-2-0.8-5.6-0.1-9.8h-51.7V200h128v-42.7h-16.9V157.2z"/>
		</g>
		<g>
			<path class="st2" d="M787.8,88.2H682.4v13.9h98.1C782.2,98.8,784.7,94,787.8,88.2z"/>
		</g>
		<g>
			<path class="st2" d="M801,64.5H682.4v13.9h110.7C795.5,74.1,798.2,69.4,801,64.5z"/>
		</g>
		<path class="st2" d="M810.6,48.2V0.7H614.4v56.1h191C807.1,54,808.8,51.1,810.6,48.2z"/>
		<g>
			<path class="st2" d="M800.6,135.6c-2.4,2.2-5.6,4.4-9.1,5.7c1.1,2.2,2.2,5,2.7,8.2h16.5v-13.9H800.6z"/>
			<path class="st2" d="M742.8,135.6h-60.4v13.9h53.7C737.6,144.7,739.9,139.8,742.8,135.6z"/>
		</g>
		<g>
			<path class="st2" d="M769.2,125.6c1-3.3,2.7-8.2,5.5-13.7h-92.3v13.9H755C758.8,124.4,763.6,124,769.2,125.6z"/>
		</g>
	</g>
</g>
<g id="Android">
	<path class="st9" d="M303.4,482.9v-24.3h-16.6c-1.6-6.7-4.3-12.9-7.9-18.5l11.2-11.2l-17.2-17.2L261.7,423c-6.3-4.1-13.4-7-21-8.4
		v-14.3h-24.3v14.9c-7.3,1.7-14,4.8-20,9l-11-11l-17.2,17.2l11.6,11.6c-3.5,5.8-6,12.2-7.3,19.1H156v24.3h17
		c1.6,6.7,4.3,12.9,7.9,18.5l-11.3,11.3l17.2,17.2l11.3-11.3c5.9,3.8,12.5,6.6,19.7,8.2v15.2H242v-15.2c7.4-1.6,14.2-4.5,20.3-8.6
		l10.6,10.6l17.2-17.2l-10.8-10.8c3.9-6.1,6.6-12.9,8-20.3h16.1V482.9z M230.1,433.8c20.7,0,37.4,16.8,37.4,37.4
		c0,20.7-16.8,37.4-37.4,37.4s-37.4-16.8-37.4-37.4C192.7,450.5,209.4,433.8,230.1,433.8z"/>
	<path class="st2" d="M347,579.1H231.2c-2.9,0-5.2-2.3-5.2-5.2V386c0-2.9,2.3-5.2,5.2-5.2H347c2.9,0,5.2,2.3,5.2,5.2v187.9
		C352.2,576.8,349.9,579.1,347,579.1z"/>
	<path class="st1" d="M342.1,573.3H236.2c-2.9,0-5.2-2.3-5.2-5.2V391.9c0-2.9,2.3-5.2,5.2-5.2h105.9c2.9,0,5.2,2.3,5.2,5.2v176.2
		C347.3,570.9,345,573.3,342.1,573.3z"/>
	<g id="Android_1_">
		<g>
			<path class="st9" d="M276.6,441.2c0,0-4.8-8.3-4.9-8.6c-0.2-0.3,0.2-0.8,0.5-0.9s1-0.2,1.2,0c0.1,0.2,4.9,8.6,4.9,8.6
				L276.6,441.2z"/>
		</g>
		<path class="st13" d="M305.7,432.2"/>
		<path class="st13" d="M300.7,440.8"/>
		<g>
			<path class="st9" d="M301.7,441.2c0,0,4.8-8.3,4.9-8.6c0.2-0.3-0.2-0.8-0.5-0.9s-1-0.2-1.2,0c-0.1,0.2-4.9,8.6-4.9,8.6
				L301.7,441.2z"/>
		</g>
		<g>
			<path class="st9" d="M312.6,463.6h-47.3c-1.2,0-2.2,1-2.2,2.2v40.6c0,1.2,1,2.2,2.2,2.2h8V507H285v1.6h8.2V507h11.6v1.6h7.8
				c1.2,0,2.2-1,2.2-2.2v-40.6C314.9,464.6,313.9,463.6,312.6,463.6z"/>
			<path class="st9" d="M273.4,523.5c0-3.2,2.6-5.8,5.8-5.8c3.2,0,5.8,2.6,5.8,5.8v-14.9h-11.6L273.4,523.5L273.4,523.5z"/>
			<rect x="273.4" y="507" class="st9" width="11.6" height="1.6"/>
			<path class="st9" d="M279.2,529.3c3.2,0,5.8-2.6,5.8-5.8h-11.6C273.4,526.7,276,529.3,279.2,529.3z"/>
			<path class="st9" d="M279.2,517.7c-3.2,0-5.8,2.6-5.8,5.8H285C285,520.3,282.4,517.7,279.2,517.7z"/>
			<path class="st9" d="M293.2,523.5c0-3.2,2.6-5.8,5.8-5.8c3.2,0,5.8,2.6,5.8,5.8v-14.9h-11.6L293.2,523.5L293.2,523.5z"/>
			<rect x="293.2" y="507" class="st9" width="11.6" height="1.6"/>
			<path class="st9" d="M299,529.3c3.2,0,5.8-2.6,5.8-5.8h-11.6C293.2,526.7,295.8,529.3,299,529.3z"/>
			<path class="st9" d="M299,517.7c-3.2,0-5.8,2.6-5.8,5.8h11.6C304.9,520.3,302.3,517.7,299,517.7z"/>
		</g>
		<path class="st9" d="M254.3,463.6c-3.2,0-5.8,2.6-5.8,5.8v6.9v9.6v6.9c0,3.2,2.6,5.8,5.8,5.8s5.8-2.6,5.8-5.8v-6.9v-9.6v-6.9
			C260.1,466.2,257.5,463.6,254.3,463.6z"/>
		<path class="st9" d="M324,463.6c-3.2,0-5.8,2.6-5.8,5.8v6.9v9.6v6.9c0,3.2,2.6,5.8,5.8,5.8c3.2,0,5.8-2.6,5.8-5.8v-6.9v-9.6v-6.9
			C329.8,466.2,327.2,463.6,324,463.6z"/>
		<path class="st9" d="M314.9,460.5h-51.7c0-11.5,11.6-23,25.9-23S314.5,449,314.9,460.5z"/>
		<circle class="st1" cx="301.3" cy="449.5" r="2.4"/>
		<circle class="st1" cx="277.1" cy="449.5" r="2.4"/>
		<path class="st9" d="M171.2,541.3v-15.5h-10.6c-1-4.3-2.7-8.2-5-11.8l7.2-7.2l-11-10.9l-7.2,7.2c-4-2.6-8.5-4.5-13.4-5.4v-9.2
			h-15.5v9.5c-4.6,1.1-9,3.1-12.7,5.7l-7-7l-10.9,11l7.4,7.4c-2.2,3.7-3.8,7.8-4.7,12.2H77.3v15.5h10.9c1,4.3,2.7,8.2,5,11.8
			l-7.2,7.2l11,10.9l7.2-7.2c3.8,2.4,8,4.2,12.6,5.2v9.7h15.5v-9.7c4.7-1,9.1-2.9,12.9-5.5l6.8,6.8l10.9-11l-6.9-6.9
			c2.5-3.9,4.2-8.3,5.1-12.9L171.2,541.3z M124.4,510c13.2,0,23.9,10.7,23.9,23.9s-10.7,23.9-23.9,23.9s-23.9-10.7-23.9-23.9
			S111.2,510,124.4,510z"/>
		<path class="st9" d="M119.7,449.2l-3.9-9l-6.2,2.7c-1.6-2.2-3.6-4.1-5.9-5.6l2.4-5.9l-9.1-3.6l-2.4,5.9c-3-0.5-6.1-0.5-9.1,0.2
			l-2.3-5.3l-9,3.9l2.4,5.5c-2.4,1.8-4.4,4-6,6.5l-5.9-2.3l-3.6,9.1l6.2,2.5c-0.4,2.7-0.3,5.5,0.3,8.3l-6.1,2.6l3.9,9l6.3-2.7
			c1.6,2.2,3.6,4.1,5.9,5.6l-2.4,6l9.1,3.6l2.4-6c2.8,0.5,5.7,0.5,8.6-0.1l2.4,5.6l9-3.9l-2.4-5.6c2.5-1.8,4.6-3.9,6.2-6.4l5.6,2.2
			l3.6-9.1l-5.7-2.3c0.5-2.9,0.4-5.9-0.3-8.8L119.7,449.2z M84.7,442.7c7.7-3.3,16.6,0.2,19.9,7.9c3.3,7.7-0.2,16.6-7.9,19.9
			s-16.6-0.2-19.9-7.9C73.4,454.8,77,446,84.7,442.7z"/>
	</g>
</g>
<g id="CRM">
	<g>
		<path class="st9" d="M759.1,461.5c0,0-1.8,0.2-4.4,1.6c0.5,1.5,0.8,3.1,0.8,4.7c0,3.2-1,6.2-2.8,8.7c5.4,3,12.9,10.7,15.1,29.6
			c15.7-0.5,21.8-5.8,21.8-5.8c-0.2-37-18.3-38.8-18.4-38.8c3.3-2,5.5-5.7,5.5-9.9c0-6.4-5.2-11.6-11.6-11.6
			c-6.4,0-11.6,5.2-11.6,11.6c0,2.9,1.1,5.6,2.8,7.6C757.2,460.1,758.1,460.8,759.1,461.5z"/>
		<path class="st14" d="M746.5,480.8l-0.6-0.1l0.1,0.1h-3c-1.4,5-2.2,11.4-2.3,19.4c0,0,5.8,5,20.6,5.7c-1.3-10.9-4.6-17-7.4-20.3
			C750.3,481.5,746.8,480.9,746.5,480.8z"/>
		<path class="st14" d="M749.1,468c-1.4,1.8-2.8,4.1-4.1,6.9l0.1-0.1C747.6,473.4,749,470.9,749.1,468z"/>
		<path class="st14" d="M736.4,475c-1.2-2.9-2.6-5.1-4-6.9c0.1,1.9,0.8,3.8,2,5.2C735,473.9,735.6,474.5,736.4,475L736.4,475z"/>
		<path class="st9" d="M723.2,481c1.9-2.1,3.9-3.6,5.6-4.5c-1.8-2.5-2.8-5.5-2.8-8.7c0-1.7,0.3-3.2,0.8-4.7
			c-2.5-1.4-4.3-1.6-4.4-1.6c3.3-2,5.5-5.7,5.5-9.9c0-6.4-5.2-11.6-11.6-11.6c-6.4,0-11.6,5.2-11.6,11.6c0,2.9,1.1,5.6,2.8,7.6
			c0.8,0.9,1.7,1.7,2.7,2.3c0,0-18.2,1.7-18.4,38.8c0,0,6.1,5.3,21.8,5.8C714.9,495.1,718.1,486.7,723.2,481z"/>
		<path class="st14" d="M727.6,485.7c-2.8,3.3-6.1,9.4-7.4,20.3c14.8-0.8,20.6-5.7,20.6-5.7c0-8-0.9-14.4-2.3-19.4h-3.6
			C734.2,481,730.9,481.8,727.6,485.7z"/>
		<path class="st9" d="M746.8,477.6c3.3-2,5.5-5.7,5.5-9.9c0-6.4-5.2-11.6-11.6-11.6c-6.4,0-11.6,5.2-11.6,11.6
			c0,2.9,1.1,5.6,2.8,7.6c0.8,0.9,1.7,1.7,2.7,2.3c0,0-18.2,1.7-18.4,38.8c0,0,6.8,5.8,24.4,5.8c17.7,0,24.4-5.8,24.4-5.8
			C765,479.4,746.9,477.7,746.8,477.6z"/>
	</g>
	<g>
		<path class="st2" d="M821.9,516.6l-19.8,7.1c-20.9,29.1-60.7,39.2-93.3,22c-11.9-6.3-21.4-15.4-28-26.1l-6.7,17.1l-18.5-7.3
			c9.1,16.5,22.9,30.6,40.8,40c46.7,24.5,104.2,8.3,131.4-36L821.9,516.6z"/>
		<path class="st2" d="M776.8,416.3c32.9,17.3,47.2,56.3,34.4,90.3l18.6-6.5l5.9,17.1c18.1-46.6-1.3-100.6-46.6-124.4
			c-10.6-5.6-21.8-9.1-33.1-10.6l-14.3,13.7l12.4,13C761.9,410.1,769.6,412.5,776.8,416.3z"/>
		<path class="st2" d="M666.8,519.9l6.5-16.4c-5.8-18.1-4.7-38.3,4.8-56.4c11.9-22.6,34-36.4,57.7-38.7l-12.3-12.9l14.7-14
			c-34.2,1.7-66.6,20.8-83.6,53.2c-13.1,24.9-14.6,52.9-6.4,77.7L666.8,519.9z"/>
	</g>
</g>
<g id="IOT">
	<g>
		<path class="st2" d="M1319.3,581.4h-193.4v-0.5c-14.6-1.8-28.2-8.5-38.6-19.2c-12.1-12.3-18.7-28.6-18.7-45.9
			c0-30.6,21.5-57.2,50.9-63.9c2.7-18.6,11.7-35.7,25.6-48.5c15.3-14.2,35.2-22,56.1-22c28.3,0,54.7,14.7,69.8,38.5
			c23.5,3,43.4,19,51.5,41.2c31.8,1.6,57.2,28,57.2,60.2C1379.5,554.4,1352.5,581.4,1319.3,581.4z M1134.3,567.6h184.9
			c25.6,0,46.4-20.8,46.4-46.4c0-25.6-20.8-46.4-46.4-46.4c-0.5,0-1.1,0-1.6,0l-5.6,0.2l-1.4-5.3c-5.5-20.3-23.4-35-44.4-36.4
			l-3.7-0.3l-1.8-3.2c-12.2-21.4-35.1-34.7-59.7-34.7c-35.5,0-65.6,27.7-68.5,63.1l-0.4,5.5l-5.5,0.8c-25.3,3.6-44.3,25.7-44.3,51.2
			c0,27.9,22.7,51.1,50.6,51.7L1134.3,567.6z"/>
	</g>
	<circle class="st15" cx="1128.5" cy="528" r="18.5"/>
	<circle class="st15" cx="1194.5" cy="446.9" r="26.5"/>
	<path class="st15" d="M1321.9,381.4c31.8,0,57.6,25.8,57.6,57.6"/>
	<path class="st15" d="M1321.9,401.8c20.5,0,37.2,16.7,37.2,37.2"/>
	<path class="st15" d="M1321.9,422.2c9.3,0,16.8,7.5,16.8,16.8"/>
	<circle class="st15" cx="1220.9" cy="519.7" r="13.6"/>
	<circle class="st15" cx="1314.5" cy="524.3" r="24.2"/>
	<line class="st15" x1="1147.1" y1="528" x2="1207.4" y2="519.7"/>
	<line class="st15" x1="1234.5" y1="519.7" x2="1290.3" y2="523.9"/>
	<line class="st15" x1="1215.8" y1="504" x2="1202.9" y2="471.9"/>
</g>
</svg>
