<?xml version="1.0" encoding="utf-8"?>
<!-- Generator: Adobe Illustrator 22.1.0, SVG Export Plug-In . SVG Version: 6.00 Build 0)  -->
<svg version="1.1" id="Layer_1" xmlns="http://www.w3.org/2000/svg" xmlns:xlink="http://www.w3.org/1999/xlink" x="0px" y="0px"
	 viewBox="0 0 317 206.1" style="enable-background:new 0 0 317 206.1;" xml:space="preserve">
<style type="text/css">
	.st0{fill:#3A3A3A;}
	.st1{fill:#FAFAFA;}
	.st2{fill:#333333;}
	.st3{fill:#2B2B2B;}
	.st4{fill:none;stroke:#2060A1;stroke-width:6;stroke-miterlimit:10;}
	.st5{fill:#2060A1;}
	.st6{opacity:0.5;fill:#2060A1;enable-background:new    ;}
	.st7{fill:none;stroke:#2060A1;stroke-width:2;stroke-miterlimit:10;}
	.st8{fill:#EC5F5F;}
	.st9{fill:#D8D8D8;}
	.st10{fill:#A09F9F;}
	.st11{fill:#E8E8E8;}
	.st12{fill:none;stroke:#EC5F5F;stroke-width:2;stroke-miterlimit:10;}
	.st13{fill:#ED5F5F;}
	.st14{fill:none;stroke:#007BB8;stroke-width:12;stroke-miterlimit:10;}
</style>
<g id="Ecommerce">
	<g id="Laptop">
		<path class="st0" d="M-716.2-186.4h-294.5v-181.5c0-4.1,3.4-7.5,7.5-7.5h280c4.1,0,7.5,3.4,7.5,7.5v181
			C-715.7-186.6-716-186.4-716.2-186.4z"/>
		<path class="st1" d="M-728.4-193.9h-269.7c-2.7,0-4.8-2.2-4.8-4.8V-363c0-2.7,2.2-4.8,4.8-4.8h269.7c2.7,0,4.8,2.2,4.8,4.8v164.3
			C-723.6-196-725.7-193.9-728.4-193.9z"/>
		<path class="st2" d="M-863.2-188.4h-184.6c0,9.3,12.3,12.6,12.3,12.6h172.3H-691c0,0,12.3-3.3,12.3-12.6H-863.2z"/>
	</g>
	<g id="Phone">
		<path class="st3" d="M-996.9-175.8h-63.8c-4.3,0-7.8-3.5-7.8-7.8v-128.8c0-4.3,3.5-7.8,7.8-7.8h63.8c4.3,0,7.8,3.5,7.8,7.8v128.8
			C-989.1-179.3-992.6-175.8-996.9-175.8z"/>
		<path class="st1" d="M-996.2-180.3h-65.1c-2.2,0-4-1.8-4-4v-127.5c0-2.2,1.8-4,4-4h65.1c2.2,0,4,1.8,4,4v127.5
			C-992.3-182.1-994.1-180.3-996.2-180.3z"/>
		<path class="st3" d="M-1044.2-315.7c0,0,0.2,4.8,5.9,4.8c5.6,0,14.8,0,19.2,0c4.5,0,5.8-4.8,5.8-4.8H-1044.2z"/>
		<circle class="st1" cx="-1038.3" cy="-313.3" r="1.4"/>
	</g>
	<g id="Cart_1_">
		<line class="st4" x1="-889.9" y1="-304.8" x2="-802.3" y2="-304.8"/>
		<line class="st4" x1="-884" y1="-289.7" x2="-808.7" y2="-289.7"/>
		<line class="st4" x1="-828" y1="-320.2" x2="-836.9" y2="-274.3"/>
		<polyline class="st4" points="-935.5,-320.2 -910.9,-320.2 -881.7,-260.8 -815.9,-260.8 		"/>
		<circle class="st5" cx="-865.5" cy="-241.7" r="10"/>
		<circle class="st5" cx="-825.8" cy="-241.7" r="10"/>
		<polygon class="st4" points="-895.8,-320.2 -873.6,-274.3 -817,-274.3 -797,-320.2 		"/>
		<line class="st4" x1="-862.3" y1="-320.2" x2="-853.4" y2="-274.3"/>
		<ellipse class="st6" cx="-863.9" cy="-225.4" rx="71.5" ry="1"/>
	</g>
	<g id="Bag">
		<path class="st5" d="M-1009.2-233.5c-0.6-5.4-2-24.7-2.4-26.2c-0.5-1.8-2.5-2.2-2.5-2.2h-13.5l0,0h-13.5c0,0-2,0.4-2.5,2.2
			c-0.5,1.5-2,21.5-2.4,26.2c-0.1,1.1,0.6,2.8,1.9,2.8s15.8,0,16.6,0l0,0c0.8,0,15.4,0,16.6,0
			C-1009.8-230.7-1009.1-232.3-1009.2-233.5z"/>
		<path class="st7" d="M-1035.8-260.6c0,0,0.8-10.1,7.7-10.1s8.3,10.1,8.3,10.1"/>
		<path class="st8" d="M-1034.6-260.2c0,0-0.3,0.7-1,0.7s-1-0.7-1-0.7"/>
		<circle class="st1" cx="-1035.8" cy="-259" r="1.4"/>
		<circle class="st5" cx="-1035.8" cy="-259.7" r="1.1"/>
		<circle class="st1" cx="-1019.8" cy="-259" r="1.4"/>
		<circle class="st5" cx="-1019.8" cy="-259.7" r="1.1"/>
		<ellipse class="st6" cx="-1027.8" cy="-226.3" rx="18.5" ry="1"/>
	</g>
</g>
<g id="Web_Dev">
	<rect x="137" y="-200.9" class="st9" width="44.9" height="19.3"/>
	<rect x="137" y="-213.6" class="st10" width="44.9" height="19.3"/>
	<path class="st2" d="M290.3-222.8H28.6v-146.7c0-2.8,2.3-5,5-5h251.7c2.8,0,5,2.3,5,5V-222.8z"/>
	<path class="st5" d="M283.6-228.7H35.3c-0.3,0-0.5-0.2-0.5-0.5v-136.1c0-1.8,1.5-3.2,3.2-3.2h242.9c1.8,0,3.2,1.5,3.2,3.2v136.1
		C284.1-228.9,283.9-228.7,283.6-228.7z"/>
	<path class="st9" d="M284.6-200.2H33.8c-2.9,0-5.2-2.3-5.2-5.2v-17.5h261.7v17C290.3-202.7,287.7-200.2,284.6-200.2z"/>
	<path class="st11" d="M186.6-177.4l-4.7-5.2h-22.4H137l-4.7,5.2c0,0-0.3,2,1.2,2s26,0,26,0s24.4,0,26,0
		C186.9-175.4,186.6-177.4,186.6-177.4z"/>
	<path class="st1" d="M160-207.6L160-207.6c-2.5,0-4.5-2-4.5-4.5l0,0c0-2.5,2-4.5,4.5-4.5l0,0c2.5,0,4.5,2,4.5,4.5l0,0
		C164.5-209.6,162.5-207.6,160-207.6z"/>
	<path class="st1" d="M63-361.1v91.6h47.2v-4.2H66.7v-69h120.5v33.3h3.6V-361L63-361.1L63-361.1z"/>
	<path class="st1" d="M109.1-327.8v91.6h140.7v-91.6H109.1z M245.8-240.4H113.2v-69h132.7L245.8-240.4L245.8-240.4z"/>
	<circle class="st5" cx="169" cy="-352" r="2.3"/>
	<circle class="st5" cx="184.7" cy="-352" r="2.3"/>
	<circle class="st5" cx="176.9" cy="-352" r="2.3"/>
	<circle class="st5" cx="227.9" cy="-319.1" r="2.3"/>
	<circle class="st5" cx="243.5" cy="-319.1" r="2.3"/>
	<circle class="st5" cx="235.7" cy="-319.1" r="2.3"/>
	<polygon class="st1" points="155.5,-294.3 137.8,-274.6 154.8,-255.6 164,-255.6 146.8,-274.7 164.1,-294.1 	"/>
	<polygon class="st1" points="182.9,-294.3 167,-255.6 176,-255.6 191.6,-294.3 	"/>
	<polygon class="st1" points="202.9,-294.3 220.6,-274.6 203.5,-255.6 194.4,-255.6 211.6,-274.7 194.3,-294.1 	"/>
</g>
<g id="UXUI">
	<g>
		<path class="st5" d="M-287.2-264.3c0,0,61.5-124.5,87.2-109.5s-64.3,122.9-64.3,122.9s-3.7,2.8-14.5-3.5
			C-289.4-260.6-287.2-264.3-287.2-264.3z"/>
	</g>
	<g>
		<path class="st5" d="M-290.8-258c0,0,3.3,9.1,22.2,12.9c0,0-7.4,10.2-15.9,10.1c0,0,14.4,16.7-7.3,27.8
			c-21.7,11.2-42.6,8.6-42.6,8.6s9.6-6.6,7.5-12.2s5.6-42.3,30.2-31.5C-296.7-242.2-295.3-249.4-290.8-258z"/>
	</g>
	<g id="Web_1_">
		<g id="Web">
			<rect x="-454" y="-310.8" class="st2" width="59.9" height="85"/>
			<rect x="-454" y="-218.1" class="st2" width="59.9" height="42.7"/>
		</g>
		<g>
			<path class="st2" d="M-274.8-218.1c-1.7,6.4-6.7,11.7-14.8,15.9c-17.2,8.9-33.8,10.3-42.9,10.3c-4.1,0-6.6-0.3-6.9-0.3l-9.9-1.2
				l8.2-5.6c3.5-2.4,7.8-7,7-9.1c-0.8-2-0.8-5.6-0.1-9.8h-51.7v42.7h128v-42.7h-16.9V-218.1z"/>
		</g>
		<g>
			<path class="st2" d="M-280.7-287.1h-105.4v13.9h98.1C-286.3-276.6-283.8-281.4-280.7-287.1z"/>
		</g>
		<g>
			<path class="st2" d="M-267.5-310.8h-118.6v13.9h110.7C-273-301.3-270.3-306-267.5-310.8z"/>
		</g>
		<path class="st2" d="M-257.9-327.2v-47.5H-454v56.1h191C-261.4-321.4-259.6-324.3-257.9-327.2z"/>
		<g>
			<path class="st2" d="M-267.9-239.8c-2.4,2.2-5.6,4.4-9.1,5.7c1.1,2.2,2.2,5,2.7,8.2h16.5v-13.9H-267.9z"/>
			<path class="st2" d="M-325.7-239.8h-60.4v13.9h53.7C-330.9-230.7-328.6-235.6-325.7-239.8z"/>
		</g>
		<g>
			<path class="st2" d="M-299.3-249.8c1-3.3,2.7-8.2,5.5-13.7h-92.3v13.9h72.6C-309.6-251-304.9-251.4-299.3-249.8z"/>
		</g>
	</g>
</g>
<g id="Android">
	<path class="st5" d="M-765.1,107.6V83.3h-16.6c-1.6-6.7-4.3-12.9-7.9-18.5l11.2-11.2l-17.2-17.2l-11.2,11.2c-6.3-4.1-13.4-7-21-8.4
		V24.9h-24.3v14.9c-7.3,1.7-14,4.8-20,9l-11-11L-900.3,55l11.6,11.6c-3.5,5.8-6,12.2-7.3,19.1h-16.5V110h17
		c1.6,6.7,4.3,12.9,7.9,18.5l-11.3,11.3l17.2,17.2l11.3-11.3c5.9,3.8,12.5,6.6,19.7,8.2V169h24.3v-15.2c7.4-1.6,14.2-4.5,20.3-8.6
		l10.6,10.6l17.2-17.2l-10.8-10.8c3.9-6.1,6.6-12.9,8-20.3L-765.1,107.6L-765.1,107.6z M-838.4,58.4c20.7,0,37.4,16.8,37.4,37.4
		s-16.8,37.4-37.4,37.4c-20.7,0-37.4-16.8-37.4-37.4S-859,58.4-838.4,58.4z"/>
	<path class="st2" d="M-721.4,203.8h-115.8c-2.9,0-5.2-2.3-5.2-5.2V10.7c0-2.9,2.3-5.2,5.2-5.2h115.8c2.9,0,5.2,2.3,5.2,5.2v187.9
		C-716.3,201.4-718.6,203.8-721.4,203.8z"/>
	<path class="st1" d="M-726.4,197.9h-105.9c-2.9,0-5.2-2.3-5.2-5.2V16.5c0-2.9,2.3-5.2,5.2-5.2h105.9c2.9,0,5.2,2.3,5.2,5.2v176.2
		C-721.2,195.6-723.5,197.9-726.4,197.9z"/>
	<g id="Android_1_">
		<g>
			<path class="st5" d="M-791.9,65.9c0,0-4.8-8.3-4.9-8.6c-0.2-0.3,0.2-0.8,0.5-0.9c0.3-0.2,1-0.2,1.2,0s4.9,8.6,4.9,8.6
				L-791.9,65.9z"/>
		</g>
		<path class="st12" d="M-762.8,56.8"/>
		<path class="st12" d="M-767.7,65.4"/>
		<g>
			<path class="st5" d="M-766.8,65.9c0,0,4.8-8.3,4.9-8.6c0.2-0.3-0.2-0.8-0.5-0.9c-0.3-0.2-1-0.2-1.2,0s-4.9,8.6-4.9,8.6
				L-766.8,65.9z"/>
		</g>
		<g>
			<path class="st5" d="M-755.8,88.2h-47.3c-1.2,0-2.2,1-2.2,2.2V131c0,1.2,1,2.2,2.2,2.2h8v-1.6h11.6v1.6h8.2v-1.6h11.6v1.6h7.8
				c1.2,0,2.2-1,2.2-2.2V90.5C-753.6,89.2-754.6,88.2-755.8,88.2z"/>
			<path class="st5" d="M-795.1,148.1c0-3.2,2.6-5.8,5.8-5.8s5.8,2.6,5.8,5.8v-14.9h-11.6V148.1z"/>
			<rect x="-795.1" y="131.6" class="st5" width="11.6" height="1.6"/>
			<path class="st5" d="M-789.3,153.9c3.2,0,5.8-2.6,5.8-5.8h-11.6C-795.1,151.3-792.5,153.9-789.3,153.9z"/>
			<path class="st5" d="M-789.3,142.3c-3.2,0-5.8,2.6-5.8,5.8h11.6C-783.5,144.9-786.1,142.3-789.3,142.3z"/>
			<path class="st5" d="M-775.3,148.1c0-3.2,2.6-5.8,5.8-5.8s5.8,2.6,5.8,5.8v-14.9h-11.6V148.1z"/>
			<rect x="-775.3" y="131.6" class="st5" width="11.6" height="1.6"/>
			<path class="st5" d="M-769.4,153.9c3.2,0,5.8-2.6,5.8-5.8h-11.6C-775.3,151.3-772.6,153.9-769.4,153.9z"/>
			<path class="st5" d="M-769.4,142.3c-3.2,0-5.8,2.6-5.8,5.8h11.6C-763.6,144.9-766.2,142.3-769.4,142.3z"/>
		</g>
		<path class="st5" d="M-814.2,88.2c-3.2,0-5.8,2.6-5.8,5.8v6.9v9.6v6.9c0,3.2,2.6,5.8,5.8,5.8s5.8-2.6,5.8-5.8v-6.9V101v-6.9
			C-808.4,90.8-811,88.2-814.2,88.2z"/>
		<path class="st5" d="M-744.5,88.2c-3.2,0-5.8,2.6-5.8,5.8v6.9v9.6v6.9c0,3.2,2.6,5.8,5.8,5.8s5.8-2.6,5.8-5.8v-6.9V101v-6.9
			C-738.7,90.8-741.3,88.2-744.5,88.2z"/>
		<path class="st5" d="M-753.6,85.2h-51.7c0-11.5,11.6-23,25.9-23C-765.2,62.2-754,73.7-753.6,85.2z"/>
		<circle class="st1" cx="-767.2" cy="74.1" r="2.4"/>
		<circle class="st1" cx="-791.3" cy="74.1" r="2.4"/>
		<path class="st5" d="M-897.3,166v-15.5h-10.6c-1-4.3-2.7-8.2-5-11.8l7.2-7.2l-11-10.9l-7.2,7.2c-4-2.6-8.5-4.5-13.4-5.4v-9.2
			h-15.5v9.5c-4.6,1.1-9,3.1-12.7,5.7l-7-7l-10.9,11l7.4,7.4c-2.2,3.7-3.8,7.8-4.7,12.2h-10.5v15.5h10.9c1,4.3,2.7,8.2,5,11.8
			l-7.2,7.2l11,10.9l7.2-7.2c3.8,2.4,8,4.2,12.6,5.2v9.7h15.5v-9.7c4.7-1,9.1-2.9,12.9-5.5l6.8,6.8l10.9-11l-6.9-6.9
			c2.5-3.9,4.2-8.3,5.1-12.9L-897.3,166z M-944.1,134.6c13.2,0,23.9,10.7,23.9,23.9s-10.7,23.9-23.9,23.9s-23.9-10.7-23.9-23.9
			C-968,145.4-957.3,134.6-944.1,134.6z"/>
		<path class="st5" d="M-948.8,73.8l-3.9-9l-6.2,2.7c-1.6-2.2-3.6-4.1-5.9-5.6l2.4-5.9l-9.1-3.6l-2.4,5.9c-3-0.5-6.1-0.5-9.1,0.2
			l-2.3-5.3l-9,3.9l2.4,5.5c-2.4,1.8-4.4,4-6,6.5l-5.9-2.3l-3.6,9.1l6.2,2.5c-0.4,2.7-0.3,5.5,0.3,8.3l-6.1,2.6l3.9,9l6.3-2.7
			c1.6,2.2,3.6,4.1,5.9,5.6l-2.4,6l9.1,3.6l2.4-6c2.8,0.5,5.7,0.5,8.6-0.1l2.4,5.6l9-3.9l-2.4-5.6c2.5-1.8,4.6-3.9,6.2-6.4l5.6,2.2
			l3.6-9.1l-5.7-2.3c0.5-2.9,0.4-5.9-0.3-8.8L-948.8,73.8z M-983.8,67.3c7.7-3.3,16.6,0.2,19.9,7.9c3.3,7.7-0.2,16.6-7.9,19.9
			s-16.6-0.2-19.9-7.9C-995.1,79.5-991.5,70.6-983.8,67.3z"/>
	</g>
</g>
<g id="CRM">
	<g>
		<path class="st5" d="M-309.4,86.1c0,0-1.8,0.2-4.4,1.6c0.5,1.5,0.8,3.1,0.8,4.7c0,3.2-1,6.2-2.8,8.7c5.4,3,12.9,10.7,15.1,29.6
			c15.7-0.5,21.8-5.8,21.8-5.8c-0.2-37-18.3-38.8-18.4-38.8c3.3-2,5.5-5.7,5.5-9.9c0-6.4-5.2-11.6-11.6-11.6S-315,69.8-315,76.2
			c0,2.9,1.1,5.6,2.8,7.6C-311.3,84.7-310.4,85.5-309.4,86.1z"/>
		<path class="st13" d="M-322,105.5l-0.6-0.1l0.1,0.1h-3c-1.4,5-2.2,11.4-2.3,19.4c0,0,5.8,5,20.6,5.7c-1.3-10.9-4.6-17-7.4-20.3
			C-318.2,106.1-321.7,105.5-322,105.5z"/>
		<path class="st13" d="M-319.4,92.7c-1.4,1.8-2.8,4.1-4.1,6.9l0.1-0.1C-320.9,98.1-319.5,95.5-319.4,92.7z"/>
		<path class="st13" d="M-332,99.6c-1.2-2.9-2.6-5.1-4-6.9c0.1,1.9,0.8,3.8,2,5.2C-333.5,98.5-332.8,99.1-332,99.6L-332,99.6z"/>
		<path class="st5" d="M-345.3,105.6c1.9-2.1,3.9-3.6,5.6-4.5c-1.8-2.5-2.8-5.5-2.8-8.7c0-1.7,0.3-3.2,0.8-4.7
			c-2.5-1.4-4.3-1.6-4.4-1.6c3.3-2,5.5-5.7,5.5-9.9c0-6.4-5.2-11.6-11.6-11.6s-11.6,5.2-11.6,11.6c0,2.9,1.1,5.6,2.8,7.6
			c0.8,0.9,1.7,1.7,2.7,2.3c0,0-18.2,1.7-18.4,38.8c0,0,6.1,5.3,21.8,5.8C-353.6,119.7-350.4,111.3-345.3,105.6z"/>
		<path class="st13" d="M-340.9,110.4c-2.8,3.3-6.1,9.4-7.4,20.3c14.8-0.8,20.6-5.7,20.6-5.7c0-8-0.9-14.4-2.3-19.4h-3.6
			C-334.3,105.6-337.5,106.4-340.9,110.4z"/>
		<path class="st5" d="M-321.7,102.3c3.3-2,5.5-5.7,5.5-9.9c0-6.4-5.2-11.6-11.6-11.6s-11.6,5.2-11.6,11.6c0,2.9,1.1,5.6,2.8,7.6
			c0.8,0.9,1.7,1.7,2.7,2.3c0,0-18.2,1.7-18.4,38.8c0,0,6.8,5.8,24.4,5.8s24.4-5.8,24.4-5.8C-303.5,104.1-321.6,102.3-321.7,102.3z"
			/>
	</g>
	<g>
		<path class="st2" d="M-246.5,141.3l-19.8,7.1c-20.9,29.1-60.7,39.2-93.3,22c-11.9-6.3-21.4-15.4-28-26.1l-6.7,17.1l-18.5-7.3
			c9.1,16.5,22.9,30.6,40.8,40c46.7,24.5,104.2,8.3,131.4-36L-246.5,141.3z"/>
		<path class="st2" d="M-291.7,41c32.9,17.3,47.2,56.3,34.4,90.3l18.6-6.5l5.9,17.1c18.1-46.6-1.3-100.6-46.6-124.4
			c-10.6-5.6-21.8-9.1-33.1-10.6l-14.3,13.7l12.4,13C-306.6,34.7-298.9,37.2-291.7,41z"/>
		<path class="st2" d="M-401.7,144.5l6.5-16.4c-5.8-18.1-4.7-38.3,4.8-56.4c11.9-22.6,34-36.4,57.7-38.7L-345,20l14.7-14
			C-364.5,7.7-397,26.9-414,59.3c-13.1,24.9-14.6,52.9-6.4,77.7L-401.7,144.5z"/>
	</g>
</g>
<g id="IOT">
	<g>
		<path class="st2" d="M250.8,206.1H57.4v-0.5c-14.6-1.8-28.2-8.5-38.6-19.2C6.7,174,0,157.7,0,140.5c0-30.6,21.5-57.2,50.9-63.9
			C53.6,58,62.6,40.9,76.5,28c15.3-14.2,35.2-22,56.1-22c28.3,0,54.7,14.7,69.8,38.5c23.5,3,43.4,19,51.5,41.2
			c31.8,1.6,57.2,28,57.2,60.2C311,179,284,206.1,250.8,206.1z M65.9,192.2h184.9c25.6,0,46.4-20.8,46.4-46.4s-20.8-46.4-46.4-46.4
			c-0.5,0-1.1,0-1.6,0l-5.6,0.2l-1.4-5.3c-5.5-20.3-23.4-35-44.4-36.4l-3.7-0.3l-1.8-3.2c-12.2-21.4-35.1-34.7-59.7-34.7
			c-35.5,0-65.6,27.7-68.5,63.1l-0.4,5.5l-5.5,0.8c-25.3,3.6-44.3,25.7-44.3,51.2c0,27.9,22.7,51.1,50.6,51.7L65.9,192.2z"/>
	</g>
	<circle class="st14" cx="60" cy="152.6" r="18.5"/>
	<circle class="st14" cx="126" cy="71.5" r="26.5"/>
	<path class="st14" d="M253.4,6C285.2,6,311,31.8,311,63.6"/>
	<path class="st14" d="M253.4,26.4c20.5,0,37.2,16.7,37.2,37.2"/>
	<path class="st14" d="M253.4,46.8c9.3,0,16.8,7.5,16.8,16.8"/>
	<circle class="st14" cx="152.5" cy="144.4" r="13.6"/>
	
		<ellipse transform="matrix(0.1602 -0.9871 0.9871 0.1602 59.6179 367.8724)" class="st14" cx="246" cy="148.9" rx="24.2" ry="24.2"/>
	<line class="st14" x1="78.6" y1="152.6" x2="138.9" y2="144.4"/>
	<line class="st14" x1="166" y1="144.4" x2="221.9" y2="148.5"/>
	<line class="st14" x1="147.3" y1="128.6" x2="134.4" y2="96.6"/>
</g>
</svg>
