<?xml version="1.0" encoding="utf-8"?>
<!-- Generator: Adobe Illustrator 22.1.0, SVG Export Plug-In . SVG Version: 6.00 Build 0)  -->
<svg version="1.1" id="Layer_1" xmlns="http://www.w3.org/2000/svg" xmlns:xlink="http://www.w3.org/1999/xlink" x="0px" y="0px"
	 viewBox="0 0 258.7 199.6" style="enable-background:new 0 0 258.7 199.6;" xml:space="preserve">
<style type="text/css">
	.st0{fill:#3A3A3A;}
	.st1{fill:#FAFAFA;}
	.st2{fill:#333333;}
	.st3{fill:#2B2B2B;}
	.st4{fill:none;stroke:#2060A1;stroke-width:6;stroke-miterlimit:10;}
	.st5{fill:#2060A1;}
	.st6{opacity:0.5;fill:#2060A1;enable-background:new    ;}
	.st7{fill:none;stroke:#2060A1;stroke-width:2;stroke-miterlimit:10;}
	.st8{fill:#EC5F5F;}
	.st9{fill:#D8D8D8;}
	.st10{fill:#A09F9F;}
	.st11{fill:#E8E8E8;}
	.st12{fill:#007BB8;}
	.st13{fill:none;stroke:#EC5F5F;stroke-width:2;stroke-miterlimit:10;}
	.st14{fill:#ED5F5F;}
	.st15{fill:none;stroke:#2060A1;stroke-width:12;stroke-miterlimit:10;}
</style>
<g id="Ecommerce">
	<g id="Laptop">
		<path class="st0" d="M-262.2,188.6h-294.5V7.1c0-4.1,3.4-7.5,7.5-7.5h280c4.1,0,7.5,3.4,7.5,7.5v181
			C-261.7,188.4-261.9,188.6-262.2,188.6z"/>
		<path class="st1" d="M-274.4,181.1H-544c-2.7,0-4.8-2.2-4.8-4.8V11.9c0-2.7,2.2-4.8,4.8-4.8h269.7c2.7,0,4.8,2.2,4.8,4.8v164.3
			C-269.5,178.9-271.7,181.1-274.4,181.1z"/>
		<path class="st2" d="M-409.2,186.5h-184.6c0,9.3,12.3,12.6,12.3,12.6h172.3h172.3c0,0,12.3-3.3,12.3-12.6H-409.2z"/>
	</g>
	<g id="Phone">
		<path class="st3" d="M-542.8,199.2h-63.8c-4.3,0-7.8-3.5-7.8-7.8V62.6c0-4.3,3.5-7.8,7.8-7.8h63.8c4.3,0,7.8,3.5,7.8,7.8v128.8
			C-535,195.7-538.5,199.2-542.8,199.2z"/>
		<path class="st1" d="M-542.2,194.7h-65.1c-2.2,0-4-1.8-4-4V63.2c0-2.2,1.8-4,4-4h65.1c2.2,0,4,1.8,4,4v127.5
			C-538.2,192.9-540,194.7-542.2,194.7z"/>
		<path class="st3" d="M-590.2,59.2c0,0,0.2,4.8,5.9,4.8c5.6,0,14.8,0,19.2,0s5.8-4.8,5.8-4.8H-590.2z"/>
		<circle class="st1" cx="-584.3" cy="61.6" r="1.4"/>
	</g>
	<g id="Cart_1_">
		<line class="st4" x1="-435.8" y1="70.2" x2="-348.2" y2="70.2"/>
		<line class="st4" x1="-430" y1="85.3" x2="-354.7" y2="85.3"/>
		<line class="st4" x1="-374" y1="54.8" x2="-382.9" y2="100.6"/>
		<polyline class="st4" points="-481.4,54.8 -456.8,54.8 -427.7,114.1 -361.8,114.1 		"/>
		<circle class="st5" cx="-411.5" cy="133.3" r="10"/>
		<circle class="st5" cx="-371.8" cy="133.3" r="10"/>
		<polygon class="st4" points="-441.7,54.8 -419.6,100.6 -362.9,100.6 -342.9,54.8 		"/>
		<line class="st4" x1="-408.3" y1="54.8" x2="-399.4" y2="100.6"/>
		<ellipse class="st6" cx="-409.9" cy="149.6" rx="71.5" ry="1"/>
	</g>
	<g id="Bag">
		<path class="st5" d="M-555.2,141.5c-0.6-5.4-2-24.7-2.4-26.2c-0.5-1.8-2.5-2.2-2.5-2.2h-13.5l0,0h-13.5c0,0-2,0.4-2.5,2.2
			c-0.5,1.5-2,21.5-2.4,26.2c-0.1,1.1,0.6,2.8,1.9,2.8c1.3,0,15.8,0,16.6,0l0,0c0.8,0,15.4,0,16.6,0
			C-555.8,144.3-555.1,142.6-555.2,141.5z"/>
		<path class="st7" d="M-581.7,114.4c0,0,0.8-10.1,7.7-10.1s8.3,10.1,8.3,10.1"/>
		<path class="st8" d="M-580.6,114.8c0,0-0.3,0.7-1,0.7c-0.8,0-1-0.7-1-0.7"/>
		<circle class="st1" cx="-581.7" cy="116" r="1.4"/>
		<circle class="st5" cx="-581.7" cy="115.3" r="1.1"/>
		<circle class="st1" cx="-565.7" cy="116" r="1.4"/>
		<circle class="st5" cx="-565.7" cy="115.3" r="1.1"/>
		<ellipse class="st6" cx="-573.7" cy="148.6" rx="18.5" ry="1"/>
	</g>
</g>
<g id="Web_Dev">
	<rect x="591" y="174.1" class="st9" width="44.9" height="19.3"/>
	<rect x="591" y="161.4" class="st10" width="44.9" height="19.3"/>
	<path class="st2" d="M744.3,152.2H482.6V5.5c0-2.8,2.3-5,5-5h251.7c2.8,0,5,2.3,5,5V152.2z"/>
	<path class="st5" d="M737.6,146.3H489.3c-0.3,0-0.5-0.2-0.5-0.5V9.6c0-1.8,1.5-3.2,3.2-3.2h242.9c1.8,0,3.2,1.5,3.2,3.2v136.1
		C738.1,146,737.9,146.3,737.6,146.3z"/>
	<path class="st9" d="M738.7,174.8H487.8c-2.9,0-5.2-2.3-5.2-5.2v-17.5h261.7v17C744.3,172.2,741.8,174.8,738.7,174.8z"/>
	<path class="st11" d="M640.6,197.6l-4.7-5.2h-22.4H591l-4.7,5.2c0,0-0.3,2,1.2,2s26,0,26,0s24.4,0,26,0
		C640.9,199.6,640.6,197.6,640.6,197.6z"/>
	<path class="st1" d="M614.1,167.4L614.1,167.4c-2.5,0-4.5-2-4.5-4.5l0,0c0-2.5,2-4.5,4.5-4.5l0,0c2.5,0,4.5,2,4.5,4.5l0,0
		C618.6,165.4,616.5,167.4,614.1,167.4z"/>
	<path class="st1" d="M517.1,13.9v91.6h47.2v-4.2h-43.6v-69h120.5v33.3h3.6V13.9H517.1z"/>
	<path class="st1" d="M563.2,47.2v91.6h140.7V47.2H563.2z M699.9,134.6H567.2v-69h132.7V134.6z"/>
	<circle class="st5" cx="623.1" cy="23" r="2.3"/>
	<circle class="st5" cx="638.7" cy="23" r="2.3"/>
	<circle class="st5" cx="630.9" cy="23" r="2.3"/>
	<circle class="st5" cx="681.9" cy="55.9" r="2.3"/>
	<circle class="st5" cx="697.5" cy="55.9" r="2.3"/>
	<circle class="st5" cx="689.7" cy="55.9" r="2.3"/>
	<polygon class="st1" points="609.5,80.7 591.8,100.4 608.9,119.4 618,119.4 600.8,100.2 618.2,80.9 	"/>
	<polygon class="st1" points="637,80.7 621,119.4 630.1,119.4 645.6,80.7 	"/>
	<polygon class="st1" points="657,80.7 674.6,100.4 657.6,119.4 648.5,119.4 665.7,100.2 648.3,80.9 	"/>
</g>
<g id="UXUI">
	<g>
		<path class="st12" d="M166.9,110.7c0,0,61.5-124.5,87.2-109.5s-64.3,122.9-64.3,122.9s-3.7,2.8-14.5-3.5
			C164.7,114.4,166.9,110.7,166.9,110.7z"/>
	</g>
	<g>
		<path class="st12" d="M163.2,117c0,0,3.3,9.1,22.2,12.9c0,0-7.4,10.2-15.9,10.1c0,0,14.4,16.7-7.3,27.8
			c-21.7,11.2-42.6,8.6-42.6,8.6s9.6-6.6,7.5-12.2s5.6-42.3,30.2-31.5C157.3,132.8,158.8,125.6,163.2,117z"/>
	</g>
	<g id="Web_1_">
		<g id="Web">
			<rect y="64.2" class="st2" width="59.9" height="85"/>
			<rect y="156.8" class="st2" width="59.9" height="42.7"/>
		</g>
		<g>
			<path class="st2" d="M179.2,156.8c-1.7,6.4-6.7,11.7-14.8,15.9c-17.2,8.9-33.8,10.3-42.9,10.3c-4.1,0-6.6-0.3-6.9-0.3l-9.9-1.2
				l8.2-5.6c3.5-2.4,7.8-7,7-9.1c-0.8-2-0.8-5.6-0.1-9.8H68.2v42.7h128V157h-17V156.8z"/>
		</g>
		<g>
			<path class="st2" d="M173.3,87.8H68v13.9h98C167.7,98.4,170.2,93.6,173.3,87.8z"/>
		</g>
		<g>
			<path class="st2" d="M186.5,64.2H68v13.9h110.7C181.1,73.7,183.7,69,186.5,64.2z"/>
		</g>
		<path class="st2" d="M196.2,47.8V0.3H0v56.1h191C192.7,53.6,194.4,50.7,196.2,47.8z"/>
		<g>
			<path class="st2" d="M186.1,135.2c-2.4,2.2-5.6,4.4-9.1,5.7c1.1,2.2,2.2,5,2.7,8.2h16.5v-13.9H186.1z"/>
			<path class="st2" d="M128.4,135.2H68v13.9h53.7C123.2,144.3,125.4,139.4,128.4,135.2z"/>
		</g>
		<g>
			<path class="st2" d="M154.7,125.2c1-3.3,2.7-8.2,5.5-13.7H68v13.9h72.6C144.4,124,149.1,123.6,154.7,125.2z"/>
		</g>
	</g>
</g>
<g id="Android">
	<path class="st5" d="M-311.1,482.5v-24.3h-16.6c-1.6-6.7-4.3-12.9-7.9-18.5l11.2-11.2l-17.2-17.2l-11.2,11.2
		c-6.3-4.1-13.4-7-21-8.4v-14.3H-398v14.9c-7.3,1.7-14,4.8-20,9l-11-11l-17.2,17.2l11.6,11.6c-3.5,5.8-6,12.2-7.3,19.1h-16.5v24.3
		h17c1.6,6.7,4.3,12.9,7.9,18.5l-11.3,11.3l17.2,17.2l11.3-11.3c5.9,3.8,12.5,6.6,19.7,8.2V544h24.3v-15.2
		c7.4-1.6,14.2-4.5,20.3-8.6l10.6,10.6l17.2-17.2l-10.8-10.8c3.9-6.1,6.6-12.9,8-20.3H-311.1z M-384.3,433.4
		c20.7,0,37.4,16.8,37.4,37.4c0,20.7-16.8,37.4-37.4,37.4s-37.4-16.8-37.4-37.4C-421.8,450.2-405,433.4-384.3,433.4z"/>
	<path class="st2" d="M-267.4,578.7h-115.8c-2.9,0-5.2-2.3-5.2-5.2V385.6c0-2.9,2.3-5.2,5.2-5.2h115.8c2.9,0,5.2,2.3,5.2,5.2v187.9
		C-262.2,576.4-264.6,578.7-267.4,578.7z"/>
	<path class="st1" d="M-272.3,572.9h-105.9c-2.9,0-5.2-2.3-5.2-5.2V391.5c0-2.9,2.3-5.2,5.2-5.2h105.9c2.9,0,5.2,2.3,5.2,5.2v176.2
		C-267.1,570.5-269.5,572.9-272.3,572.9z"/>
	<g id="Android_1_">
		<g>
			<path class="st5" d="M-337.8,440.9c0,0-4.8-8.3-4.9-8.6c-0.2-0.3,0.2-0.8,0.5-0.9s1-0.2,1.2,0c0.1,0.2,4.9,8.6,4.9,8.6
				L-337.8,440.9z"/>
		</g>
		<path class="st13" d="M-308.8,431.8"/>
		<path class="st13" d="M-313.7,440.4"/>
		<g>
			<path class="st5" d="M-312.7,440.9c0,0,4.8-8.3,4.9-8.6c0.2-0.3-0.2-0.8-0.5-0.9s-1-0.2-1.2,0c-0.1,0.2-4.9,8.6-4.9,8.6
				L-312.7,440.9z"/>
		</g>
		<g>
			<path class="st5" d="M-301.8,463.2h-47.3c-1.2,0-2.2,1-2.2,2.2V506c0,1.2,1,2.2,2.2,2.2h8v-1.6h11.6v1.6h8.2v-1.6h11.6v1.6h7.8
				c1.2,0,2.2-1,2.2-2.2v-40.6C-299.6,464.2-300.6,463.2-301.8,463.2z"/>
			<path class="st5" d="M-341.1,523.1c0-3.2,2.6-5.8,5.8-5.8c3.2,0,5.8,2.6,5.8,5.8v-14.9h-11.6L-341.1,523.1L-341.1,523.1z"/>
			<rect x="-341.1" y="506.6" class="st5" width="11.6" height="1.6"/>
			<path class="st5" d="M-335.2,528.9c3.2,0,5.8-2.6,5.8-5.8H-341C-341.1,526.3-338.5,528.9-335.2,528.9z"/>
			<path class="st5" d="M-335.2,517.3c-3.2,0-5.8,2.6-5.8,5.8h11.6C-329.4,519.9-332,517.3-335.2,517.3z"/>
			<path class="st5" d="M-321.2,523.1c0-3.2,2.6-5.8,5.8-5.8c3.2,0,5.8,2.6,5.8,5.8v-14.9h-11.6L-321.2,523.1L-321.2,523.1z"/>
			<rect x="-321.2" y="506.6" class="st5" width="11.6" height="1.6"/>
			<path class="st5" d="M-315.4,528.9c3.2,0,5.8-2.6,5.8-5.8h-11.6C-321.2,526.3-318.6,528.9-315.4,528.9z"/>
			<path class="st5" d="M-315.4,517.3c-3.2,0-5.8,2.6-5.8,5.8h11.6C-309.6,519.9-312.2,517.3-315.4,517.3z"/>
		</g>
		<path class="st5" d="M-360.2,463.2c-3.2,0-5.8,2.6-5.8,5.8v6.9v9.6v6.9c0,3.2,2.6,5.8,5.8,5.8c3.2,0,5.8-2.6,5.8-5.8v-6.9V476v-7
			C-354.4,465.8-357,463.2-360.2,463.2z"/>
		<path class="st5" d="M-290.4,463.2c-3.2,0-5.8,2.6-5.8,5.8v6.9v9.6v6.9c0,3.2,2.6,5.8,5.8,5.8c3.2,0,5.8-2.6,5.8-5.8v-6.9V476v-7
			C-284.6,465.8-287.2,463.2-290.4,463.2z"/>
		<path class="st5" d="M-299.6,460.1h-51.7c0-11.5,11.6-23,25.9-23S-300,448.6-299.6,460.1z"/>
		<circle class="st1" cx="-313.2" cy="449.1" r="2.4"/>
		<circle class="st1" cx="-337.3" cy="449.1" r="2.4"/>
		<path class="st5" d="M-443.2,540.9v-15.5h-10.6c-1-4.3-2.7-8.2-5-11.8l7.2-7.2l-11-10.9l-7.2,7.2c-4-2.6-8.5-4.5-13.4-5.4v-9.2
			h-15.5v9.5c-4.6,1.1-9,3.1-12.7,5.7l-7-7l-10.9,11l7.4,7.4c-2.2,3.7-3.8,7.8-4.7,12.2h-10.5v15.5h10.9c1,4.3,2.7,8.2,5,11.8
			l-7.2,7.2l11,10.9l7.2-7.2c3.8,2.4,8,4.2,12.6,5.2v9.7h15.5v-9.7c4.7-1,9.1-2.9,12.9-5.5l6.8,6.8l10.9-11l-6.9-6.9
			c2.5-3.9,4.2-8.3,5.1-12.9L-443.2,540.9z M-490,509.6c13.2,0,23.9,10.7,23.9,23.9s-10.7,23.9-23.9,23.9
			c-13.2,0-23.9-10.7-23.9-23.9S-503.2,509.6-490,509.6z"/>
		<path class="st5" d="M-494.8,448.8l-3.9-9l-6.2,2.7c-1.6-2.2-3.6-4.1-5.9-5.6l2.4-5.9l-9.1-3.6l-2.4,5.9c-3-0.5-6.1-0.5-9.1,0.2
			l-2.3-5.3l-9,3.9l2.4,5.5c-2.4,1.8-4.4,4-6,6.5l-5.9-2.3l-3.6,9.1l6.2,2.5c-0.4,2.7-0.3,5.5,0.3,8.3l-6.1,2.6l3.9,9l6.3-2.7
			c1.6,2.2,3.6,4.1,5.9,5.6l-2.4,6l9.1,3.6l2.4-6c2.8,0.5,5.7,0.5,8.6-0.1l2.4,5.6l9-3.9l-2.4-5.6c2.5-1.8,4.6-3.9,6.2-6.4l5.6,2.2
			l3.6-9.1l-5.7-2.3c0.5-2.9,0.4-5.9-0.3-8.8L-494.8,448.8z M-529.8,442.3c7.7-3.3,16.6,0.2,19.9,7.9c3.3,7.7-0.2,16.6-7.9,19.9
			c-7.7,3.3-16.6-0.2-19.9-7.9C-541,454.5-537.5,445.6-529.8,442.3z"/>
	</g>
</g>
<g id="CRM">
	<g>
		<path class="st5" d="M144.7,461.1c0,0-1.8,0.2-4.4,1.6c0.5,1.5,0.8,3.1,0.8,4.7c0,3.2-1,6.2-2.8,8.7c5.4,3,12.9,10.7,15.1,29.6
			c15.7-0.5,21.8-5.8,21.8-5.8c-0.2-37-18.3-38.8-18.4-38.8c3.3-2,5.5-5.7,5.5-9.9c0-6.4-5.2-11.6-11.6-11.6s-11.6,5.2-11.6,11.6
			c0,2.9,1.1,5.6,2.8,7.6C142.8,459.7,143.7,460.5,144.7,461.1z"/>
		<path class="st14" d="M132,480.5l-0.6-0.1l0.1,0.1h-3c-1.4,5-2.2,11.4-2.3,19.4c0,0,5.8,5,20.6,5.7c-1.3-10.9-4.6-17-7.4-20.3
			C135.9,481.1,132.3,480.5,132,480.5z"/>
		<path class="st14" d="M134.7,467.6c-1.4,1.8-2.8,4.1-4.1,6.9l0.1-0.1C133.1,473,134.6,470.5,134.7,467.6z"/>
		<path class="st14" d="M122,474.6c-1.2-2.9-2.6-5.1-4-6.9c0.1,1.9,0.8,3.8,2,5.2C120.5,473.5,121.2,474.1,122,474.6L122,474.6z"/>
		<path class="st5" d="M108.7,480.6c1.9-2.1,3.9-3.6,5.6-4.5c-1.8-2.5-2.8-5.5-2.8-8.7c0-1.7,0.3-3.2,0.8-4.7
			c-2.5-1.4-4.3-1.6-4.4-1.6c3.3-2,5.5-5.7,5.5-9.9c0-6.4-5.2-11.6-11.6-11.6s-11.6,5.2-11.6,11.6c0,2.9,1.1,5.6,2.8,7.6
			c0.8,0.9,1.7,1.7,2.7,2.3c0,0-18.2,1.7-18.4,38.8c0,0,6.1,5.3,21.8,5.8C100.4,494.7,103.6,486.3,108.7,480.6z"/>
		<path class="st14" d="M113.1,485.4c-2.8,3.3-6.1,9.4-7.4,20.3c14.8-0.8,20.6-5.7,20.6-5.7c0-8-0.9-14.4-2.3-19.4h-3.6
			C119.8,480.6,116.5,481.4,113.1,485.4z"/>
		<path class="st5" d="M132.4,477.3c3.3-2,5.5-5.7,5.5-9.9c0-6.4-5.2-11.6-11.6-11.6s-11.6,5.2-11.6,11.6c0,2.9,1.1,5.6,2.8,7.6
			c0.8,0.9,1.7,1.7,2.7,2.3c0,0-18.2,1.7-18.4,38.8c0,0,6.8,5.8,24.4,5.8s24.4-5.8,24.4-5.8C150.5,479.1,132.4,477.3,132.4,477.3z"
			/>
	</g>
	<g>
		<path class="st2" d="M207.5,516.3l-19.8,7.1c-20.9,29.1-60.7,39.2-93.3,22c-11.9-6.3-21.4-15.4-28-26.1l-6.7,17.1L41.1,529
			c9.1,16.5,22.9,30.6,40.8,40c46.7,24.5,104.2,8.3,131.4-36L207.5,516.3z"/>
		<path class="st2" d="M162.4,416c32.9,17.3,47.2,56.3,34.4,90.3l18.6-6.5l5.9,17.1c18.1-46.6-1.3-100.6-46.6-124.4
			c-10.6-5.6-21.8-9.1-33.1-10.6l-14.3,13.7l12.4,13C147.5,409.7,155.1,412.1,162.4,416z"/>
		<path class="st2" d="M52.3,519.5l6.5-16.4c-5.8-18.1-4.7-38.3,4.8-56.4c11.9-22.6,34-36.4,57.7-38.7L109,395l14.7-14
			c-34.2,1.7-66.6,20.8-83.6,53.2c-13.1,24.9-14.6,52.9-6.4,77.7L52.3,519.5z"/>
	</g>
</g>
<g id="IOT">
	<g>
		<path class="st2" d="M704.8,581H511.4v-0.5c-14.6-1.8-28.2-8.5-38.6-19.2C460.7,549,454,532.7,454,515.4
			c0-30.6,21.5-57.2,50.9-63.9c2.7-18.6,11.7-35.7,25.6-48.5c15.3-14.2,35.2-22,56.1-22c28.3,0,54.7,14.7,69.8,38.5
			c23.5,3,43.4,19,51.5,41.2c31.8,1.6,57.2,28,57.2,60.2C765.1,554,738,581,704.8,581z M519.9,567.2h184.9
			c25.6,0,46.4-20.8,46.4-46.4c0-25.6-20.8-46.4-46.4-46.4c-0.5,0-1.1,0-1.6,0l-5.6,0.2l-1.4-5.3c-5.5-20.3-23.4-35-44.4-36.4
			l-3.7-0.3l-1.8-3.2c-12.2-21.4-35.1-34.7-59.7-34.7c-35.5,0-65.6,27.7-68.5,63.1l-0.4,5.5l-5.5,0.8c-25.3,3.6-44.3,25.7-44.3,51.2
			c0,27.9,22.7,51.1,50.6,51.7L519.9,567.2z"/>
	</g>
	<circle class="st15" cx="514.1" cy="527.6" r="18.5"/>
	<circle class="st15" cx="580" cy="446.5" r="26.5"/>
	<path class="st15" d="M707.4,381c31.8,0,57.6,25.8,57.6,57.6"/>
	<path class="st15" d="M707.4,401.4c20.5,0,37.2,16.7,37.2,37.2"/>
	<path class="st15" d="M707.4,421.8c9.3,0,16.8,7.5,16.8,16.8"/>
	<circle class="st15" cx="606.5" cy="519.4" r="13.6"/>
	<circle class="st15" cx="700.1" cy="523.9" r="24.2"/>
	<line class="st15" x1="532.6" y1="527.6" x2="592.9" y2="519.4"/>
	<line class="st15" x1="620.1" y1="519.4" x2="675.9" y2="523.5"/>
	<line class="st15" x1="601.3" y1="503.6" x2="588.5" y2="471.6"/>
</g>
</svg>
